<svg width="205" height="64" viewBox="0 0 205 64" fill="none" xmlns="http://www.w3.org/2000/svg">
<path d="M49.1417 4.57227C51.9751 4.57227 54.3977 5.57822 56.4096 7.59012C58.4215 9.60203 59.4275 12.0246 59.4275 14.858V49.1437C59.4275 51.977 58.4215 54.3996 56.4096 56.4115C54.3977 58.4235 51.9751 59.4294 49.1417 59.4294H42.4275V38.1794H49.5346L50.606 29.8937H42.4275V24.608C42.4275 23.2746 42.7072 22.2746 43.2667 21.608C43.8263 20.9413 44.9155 20.608 46.5346 20.608L50.8917 20.5723V13.1794C49.3917 12.9651 47.2727 12.858 44.5346 12.858C41.2965 12.858 38.7072 13.8104 36.7667 15.7151C34.8263 17.6199 33.856 20.3104 33.856 23.7866V29.8937H26.7132V38.1794H33.856V59.4294H14.856C12.0227 59.4294 9.60007 58.4235 7.58817 56.4115C5.57626 54.3996 4.57031 51.977 4.57031 49.1437V14.858C4.57031 12.0246 5.57626 9.60203 7.58817 7.59012C9.60007 5.57822 12.0227 4.57227 14.856 4.57227H49.1417Z" fill="white"/>
<path d="M85.256 32.82H91.88V35.724H85.256V32.82ZM85.64 40.5H81.848V26.7H92.696V29.604H85.64V40.5ZM92.6334 40.5L98.8254 26.7H102.569L108.785 40.5H105.041L100.073 28.524H101.345L96.3054 40.5H92.6334ZM96.0174 37.764L97.0014 35.028H103.817L104.801 37.764H96.0174ZM117.126 40.764C115.654 40.764 114.334 40.46 113.166 39.852C112.014 39.228 111.102 38.38 110.43 37.308C109.758 36.22 109.422 34.988 109.422 33.612C109.422 32.22 109.758 30.988 110.43 29.916C111.102 28.828 112.014 27.98 113.166 27.372C114.334 26.748 115.654 26.436 117.126 26.436C118.422 26.436 119.558 26.636 120.534 27.036C121.526 27.42 122.374 28.06 123.078 28.956L120.63 31.188C120.166 30.628 119.654 30.212 119.094 29.94C118.534 29.668 117.926 29.532 117.27 29.532C116.486 29.532 115.79 29.708 115.182 30.06C114.574 30.396 114.094 30.868 113.742 31.476C113.406 32.084 113.238 32.796 113.238 33.612C113.238 34.412 113.406 35.116 113.742 35.724C114.094 36.332 114.574 36.812 115.182 37.164C115.79 37.5 116.486 37.668 117.27 37.668C117.926 37.668 118.534 37.532 119.094 37.26C119.654 36.988 120.166 36.572 120.63 36.012L123.078 38.244C122.374 39.124 121.526 39.764 120.534 40.164C119.558 40.564 118.422 40.764 117.126 40.764ZM129.053 32.124H135.725V34.884H129.053V32.124ZM129.437 37.596H136.805V40.5H125.693V26.7H136.541V29.604H129.437V37.596ZM139.808 40.5V26.7H146.864C148.688 26.7 150.048 27.036 150.944 27.708C151.856 28.38 152.312 29.252 152.312 30.324C152.312 31.38 151.928 32.236 151.16 32.892C150.408 33.548 149.352 33.876 147.992 33.876L148.376 32.964C149.8 32.964 150.928 33.292 151.76 33.948C152.592 34.588 153.008 35.508 153.008 36.708C153.008 37.892 152.52 38.82 151.544 39.492C150.568 40.164 149.136 40.5 147.248 40.5H139.808ZM143.552 37.836H146.984C147.704 37.836 148.248 37.708 148.616 37.452C149 37.196 149.192 36.82 149.192 36.324C149.192 35.812 149 35.436 148.616 35.196C148.248 34.94 147.704 34.812 146.984 34.812H143.168V32.268H146.384C147.088 32.268 147.616 32.148 147.968 31.908C148.336 31.668 148.52 31.308 148.52 30.828C148.52 30.348 148.336 29.988 147.968 29.748C147.616 29.492 147.088 29.364 146.384 29.364H143.552V37.836ZM162.589 40.764C161.101 40.764 159.773 40.46 158.605 39.852C157.437 39.228 156.517 38.372 155.845 37.284C155.173 36.196 154.837 34.964 154.837 33.588C154.837 32.212 155.173 30.988 155.845 29.916C156.517 28.844 157.437 27.996 158.605 27.372C159.773 26.748 161.101 26.436 162.589 26.436C164.077 26.436 165.405 26.748 166.573 27.372C167.741 27.996 168.661 28.844 169.333 29.916C170.005 30.988 170.341 32.212 170.341 33.588C170.341 34.964 170.005 36.196 169.333 37.284C168.661 38.372 167.741 39.228 166.573 39.852C165.405 40.46 164.077 40.764 162.589 40.764ZM162.589 37.668C163.357 37.668 164.029 37.5 164.605 37.164C165.197 36.812 165.661 36.324 165.997 35.7C166.333 35.076 166.501 34.38 166.501 33.612C166.501 32.812 166.333 32.108 165.997 31.5C165.661 30.892 165.197 30.412 164.605 30.06C164.029 29.708 163.357 29.532 162.589 29.532C161.837 29.532 161.165 29.708 160.573 30.06C159.981 30.412 159.509 30.892 159.157 31.5C158.821 32.108 158.653 32.804 158.653 33.588C158.653 34.372 158.821 35.076 159.157 35.7C159.509 36.324 159.981 36.812 160.573 37.164C161.165 37.5 161.837 37.668 162.589 37.668ZM180.009 40.764C178.521 40.764 177.193 40.46 176.025 39.852C174.857 39.228 173.937 38.372 173.265 37.284C172.593 36.196 172.257 34.964 172.257 33.588C172.257 32.212 172.593 30.988 173.265 29.916C173.937 28.844 174.857 27.996 176.025 27.372C177.193 26.748 178.521 26.436 180.009 26.436C181.497 26.436 182.825 26.748 183.993 27.372C185.161 27.996 186.081 28.844 186.753 29.916C187.425 30.988 187.761 32.212 187.761 33.588C187.761 34.964 187.425 36.196 186.753 37.284C186.081 38.372 185.161 39.228 183.993 39.852C182.825 40.46 181.497 40.764 180.009 40.764ZM180.009 37.668C180.777 37.668 181.449 37.5 182.025 37.164C182.617 36.812 183.081 36.324 183.417 35.7C183.753 35.076 183.921 34.38 183.921 33.612C183.921 32.812 183.753 32.108 183.417 31.5C183.081 30.892 182.617 30.412 182.025 30.06C181.449 29.708 180.777 29.532 180.009 29.532C179.257 29.532 178.585 29.708 177.993 30.06C177.401 30.412 176.929 30.892 176.577 31.5C176.241 32.108 176.073 32.804 176.073 33.588C176.073 34.372 176.241 35.076 176.577 35.7C176.929 36.324 177.401 36.812 177.993 37.164C178.585 37.5 179.257 37.668 180.009 37.668ZM194.068 37.404L193.852 33.18L200.044 26.7H204.22L198.22 33.132L196.108 35.268L194.068 37.404ZM190.684 40.5V26.7H194.428V40.5H190.684ZM200.116 40.5L195.436 34.74L197.908 32.1L204.532 40.5H200.116Z" fill="white"/>
</svg>
