<svg width="209" height="64" viewBox="0 0 209 64" fill="none" xmlns="http://www.w3.org/2000/svg">
<path d="M31.9987 25.3873C30.6907 25.3873 29.4121 25.7752 28.3245 26.5019C27.237 27.2285 26.3893 28.2614 25.8888 29.4698C25.3882 30.6783 25.2573 32.008 25.5124 33.2908C25.7676 34.5737 26.3975 35.7521 27.3224 36.677C28.2473 37.6019 29.4256 38.2317 30.7085 38.4869C31.9914 38.7421 33.3211 38.6111 34.5295 38.1106C35.7379 37.61 36.7708 36.7624 37.4975 35.6748C38.2242 34.5873 38.612 33.3086 38.612 32.0006C38.612 31.1322 38.441 30.2722 38.1086 29.4698C37.7763 28.6675 37.2891 27.9384 36.675 27.3243C36.0609 26.7102 35.3319 26.2231 34.5295 25.8907C33.7271 25.5584 32.8672 25.3873 31.9987 25.3873ZM58.4787 18.854C58.4647 16.7947 58.0855 14.7542 57.3587 12.8273C56.8234 11.4173 55.9953 10.1369 54.9289 9.07048C53.8624 8.00406 52.582 7.1759 51.172 6.64065C49.2452 5.91389 47.2047 5.53468 45.1454 5.52065C41.7054 5.33398 40.692 5.33398 31.9987 5.33398C23.3054 5.33398 22.292 5.33398 18.852 5.52065C16.7927 5.53468 14.7522 5.91389 12.8254 6.64065C11.4154 7.1759 10.1349 8.00406 9.06853 9.07048C8.0021 10.1369 7.17394 11.4173 6.6387 12.8273C5.91193 14.7542 5.53273 16.7947 5.5187 18.854C5.33203 22.294 5.33203 23.3073 5.33203 32.0006C5.33203 40.694 5.33203 41.7073 5.5187 45.1473C5.5474 47.2139 5.9261 49.2606 6.6387 51.2006C7.17157 52.6042 7.99904 53.8772 9.06536 54.934C10.1272 56.0068 11.4104 56.835 12.8254 57.3606C14.7522 58.0874 16.7927 58.4666 18.852 58.4806C22.292 58.6673 23.3054 58.6673 31.9987 58.6673C40.692 58.6673 41.7054 58.6673 45.1454 58.4806C47.2047 58.4666 49.2452 58.0874 51.172 57.3606C52.587 56.835 53.8702 56.0068 54.932 54.934C55.9984 53.8772 56.8258 52.6042 57.3587 51.2006C58.0848 49.2643 58.4639 47.2152 58.4787 45.1473C58.6654 41.7073 58.6654 40.694 58.6654 32.0006C58.6654 23.3073 58.6654 22.294 58.4787 18.854ZM51.7054 40.1873C51.6198 41.8329 51.2686 43.4539 50.6654 44.9873C50.1477 46.2665 49.3781 47.4285 48.4023 48.4043C47.4265 49.38 46.2645 50.1496 44.9854 50.6673C43.4374 51.2369 41.8074 51.5521 40.1587 51.6007C38.052 51.6007 37.492 51.6007 31.9987 51.6007C26.5054 51.6007 25.9454 51.6007 23.8387 51.6007C22.19 51.5521 20.56 51.2369 19.012 50.6673C17.6896 50.1759 16.4954 49.3919 15.5187 48.374C14.5525 47.4173 13.8063 46.2616 13.332 44.9873C12.7602 43.441 12.4536 41.8091 12.4254 40.1606C12.4254 38.054 12.4254 37.494 12.4254 32.0006C12.4254 26.5073 12.4254 25.9473 12.4254 23.8406C12.4536 22.1922 12.7602 20.5603 13.332 19.014C13.8234 17.6916 14.6074 16.4974 15.6254 15.5207C16.5863 14.5596 17.7407 13.8142 19.012 13.334C20.56 12.7644 22.19 12.4492 23.8387 12.4007C25.9454 12.4007 26.5054 12.4007 31.9987 12.4007C37.492 12.4007 38.052 12.4007 40.1587 12.4007C41.8074 12.4492 43.4374 12.7644 44.9854 13.334C46.3078 13.8254 47.502 14.6094 48.4787 15.6273C49.4449 16.584 50.1911 17.7397 50.6654 19.014C51.2349 20.562 51.5501 22.1919 51.5987 23.8406C51.5987 25.9473 51.5987 26.5073 51.5987 32.0006C51.5987 37.494 51.7854 38.054 51.7054 40.1606V40.1873ZM47.4387 20.3473C47.1212 19.4859 46.6206 18.7037 45.9715 18.0546C45.3223 17.4054 44.5401 16.9048 43.6787 16.5873C42.496 16.1773 41.2503 15.9788 39.9987 16.0007C37.9187 16.0007 37.332 16.0007 31.9987 16.0007C26.6654 16.0007 26.0787 16.0007 23.9987 16.0007C22.7407 16.0129 21.4949 16.2477 20.3187 16.694C19.4705 16.9971 18.6965 17.4772 18.0483 18.1025C17.4 18.7278 16.8922 19.484 16.5587 20.3207C16.1714 21.5083 15.9822 22.7516 15.9987 24.0007C15.9987 26.0807 15.9987 26.6673 15.9987 32.0006C15.9987 37.334 15.9987 37.9207 15.9987 40.0006C16.0251 41.2572 16.2594 42.5006 16.692 43.6806C17.0095 44.542 17.5101 45.3243 18.1593 45.9734C18.8084 46.6226 19.5907 47.1231 20.452 47.4407C21.5898 47.8591 22.7871 48.0931 23.9987 48.134C26.0787 48.134 26.6654 48.134 31.9987 48.134C37.332 48.134 37.9187 48.134 39.9987 48.134C41.2566 48.1217 42.5025 47.887 43.6787 47.4407C44.5401 47.1231 45.3223 46.6226 45.9715 45.9734C46.6206 45.3243 47.1212 44.542 47.4387 43.6806C47.885 42.5045 48.1197 41.2586 48.132 40.0006C48.132 37.9207 48.132 37.334 48.132 32.0006C48.132 26.6673 48.132 26.0807 48.132 24.0007C48.1328 22.7414 47.8976 21.4932 47.4387 20.3207V20.3473ZM31.9987 42.1873C30.6622 42.1873 29.3389 41.9236 28.1045 41.4114C26.8701 40.8991 25.7488 40.1484 24.805 39.2021C23.8613 38.2558 23.1134 37.1327 22.6044 35.8969C22.0954 34.6612 21.8352 33.3371 21.8387 32.0006C21.8387 29.9848 22.4368 28.0142 23.5573 26.3385C24.6778 24.6627 26.2704 23.3571 28.1333 22.5869C29.9962 21.8167 32.0458 21.6165 34.0225 22.0117C35.9993 22.4069 37.8143 23.3798 39.2379 24.8071C40.6614 26.2344 41.6295 28.052 42.0195 30.0297C42.4096 32.0075 42.204 34.0565 41.4289 35.9174C40.6538 37.7783 39.344 39.3674 37.6654 40.4835C35.9867 41.5996 34.0146 42.1926 31.9987 42.1873ZM42.6654 23.814C42.0759 23.7516 41.5303 23.4732 41.1339 23.0326C40.7374 22.5919 40.518 22.0201 40.518 21.4273C40.518 20.8345 40.7374 20.2627 41.1339 19.8221C41.5303 19.3814 42.0759 19.103 42.6654 19.0406C43.2548 19.103 43.8004 19.3814 44.1969 19.8221C44.5934 20.2627 44.8127 20.8345 44.8127 21.4273C44.8127 22.0201 44.5934 22.5919 44.1969 23.0326C43.8004 23.4732 43.2548 23.7516 42.6654 23.814Z" fill="white"/>
<path d="M76.848 40.5V26.7H80.64V40.5H76.848ZM84.5411 40.5V26.7H87.6611L95.4371 36.036H94.0211V26.7H97.7411V40.5H94.6211L86.8211 31.164H88.2611V40.5H84.5411ZM112.504 36.3C112.504 37.164 112.256 37.932 111.76 38.604C111.28 39.276 110.576 39.804 109.648 40.188C108.736 40.572 107.608 40.764 106.264 40.764C105.16 40.764 104.072 40.628 103 40.356C101.944 40.084 101.088 39.724 100.432 39.276L101.752 36.468C102.376 36.884 103.104 37.212 103.936 37.452C104.768 37.692 105.616 37.812 106.48 37.812C107.328 37.812 107.92 37.692 108.256 37.452C108.592 37.212 108.76 36.932 108.76 36.612C108.76 36.292 108.608 36.036 108.304 35.844C108.016 35.652 107.632 35.5 107.152 35.388C106.688 35.26 106.168 35.14 105.592 35.028C105.032 34.916 104.464 34.772 103.888 34.596C103.328 34.42 102.808 34.188 102.328 33.9C101.864 33.596 101.48 33.204 101.176 32.724C100.888 32.228 100.744 31.612 100.744 30.876C100.744 30.012 100.992 29.252 101.488 28.596C102 27.924 102.72 27.396 103.648 27.012C104.576 26.628 105.68 26.436 106.96 26.436C107.824 26.436 108.704 26.532 109.6 26.724C110.496 26.916 111.28 27.22 111.952 27.636L110.728 30.444C110.104 30.06 109.456 29.788 108.784 29.628C108.128 29.468 107.472 29.388 106.816 29.388C106.016 29.388 105.432 29.508 105.064 29.748C104.696 29.988 104.512 30.292 104.512 30.66C104.512 30.98 104.656 31.236 104.944 31.428C105.232 31.62 105.608 31.78 106.072 31.908C106.552 32.02 107.08 32.132 107.656 32.244C108.232 32.356 108.8 32.5 109.36 32.676C109.92 32.836 110.44 33.06 110.92 33.348C111.4 33.636 111.784 34.02 112.072 34.5C112.36 34.964 112.504 35.564 112.504 36.3ZM117.496 40.5V29.652H113.152V26.7H125.632V29.652H121.288V40.5H117.496ZM124.916 40.5L131.108 26.7H134.852L141.068 40.5H137.324L132.356 28.524H133.628L128.588 40.5H124.916ZM128.3 37.764L129.284 35.028H136.1L137.084 37.764H128.3ZM155.24 39.012C154.728 39.38 154.152 39.7 153.512 39.972C152.888 40.228 152.232 40.42 151.544 40.548C150.872 40.692 150.208 40.764 149.552 40.764C148.016 40.764 146.656 40.46 145.472 39.852C144.288 39.228 143.36 38.372 142.688 37.284C142.032 36.196 141.704 34.972 141.704 33.612C141.704 32.22 142.04 30.988 142.712 29.916C143.384 28.844 144.312 27.996 145.496 27.372C146.68 26.748 148.024 26.436 149.528 26.436C150.872 26.436 152.04 26.644 153.032 27.06C154.04 27.46 154.88 28.076 155.552 28.908L153.056 31.14C152.592 30.596 152.064 30.196 151.472 29.94C150.896 29.668 150.264 29.532 149.576 29.532C148.792 29.532 148.096 29.708 147.488 30.06C146.88 30.396 146.4 30.868 146.048 31.476C145.696 32.084 145.52 32.796 145.52 33.612C145.52 34.396 145.696 35.1 146.048 35.724C146.4 36.332 146.88 36.812 147.488 37.164C148.096 37.5 148.808 37.668 149.624 37.668C150.296 37.668 150.904 37.564 151.448 37.356C152.008 37.148 152.56 36.836 153.104 36.42L155.24 39.012ZM151.784 39.06V33.42H155.24V39.012L151.784 39.06ZM158.772 40.5V26.7H165.06C166.34 26.7 167.436 26.908 168.348 27.324C169.276 27.724 169.996 28.3 170.508 29.052C171.02 29.804 171.276 30.716 171.276 31.788C171.276 32.828 171.02 33.724 170.508 34.476C169.996 35.228 169.276 35.804 168.348 36.204C167.436 36.604 166.34 36.804 165.06 36.804H160.86L162.564 35.196V40.5H158.772ZM167.46 40.5L163.98 35.484H168.012L171.54 40.5H167.46ZM162.564 35.628L161.172 33.924H164.796C165.676 33.924 166.34 33.74 166.788 33.372C167.236 32.988 167.46 32.46 167.46 31.788C167.46 31.1 167.236 30.572 166.788 30.204C166.34 29.836 165.676 29.652 164.796 29.652H161.172L162.564 27.948V35.628ZM172.394 40.5L178.586 26.7H182.33L188.546 40.5H184.802L179.834 28.524H181.106L176.066 40.5H172.394ZM175.778 37.764L176.762 35.028H183.578L184.562 37.764H175.778ZM190.424 40.5V26.7H193.592L199.304 35.988H197.768L203.36 26.7H206.552L206.6 40.5H203.048L203.024 32.1H203.552L199.328 39.036H197.624L193.256 32.1H193.952V40.5H190.424Z" fill="white"/>
</svg>
