<svg width="126" height="115" viewBox="0 0 126 115" fill="none" xmlns="http://www.w3.org/2000/svg">
<g clip-path="url(#clip0_28_711)">
<path d="M69.107 98.5752L88.4312 110.663C98.1792 116.762 110.864 115.22 118.87 106.965L119.127 106.699C128.503 97.033 128.266 81.595 118.6 72.2192C110.226 64.0993 97.2711 63.0439 87.699 69.7076L68.7306 82.904C63.2001 86.7533 63.4005 95 69.1111 98.5752H69.107Z" fill="#FF0000"/>
<path d="M26.7814 65.3274L24.9856 53.8081C24.0816 47.9953 19.2383 43.6061 13.3641 43.2747L13.1759 43.2625C6.29957 42.8698 0.409046 48.1303 0.0204349 55.0108C-0.314998 60.9668 3.61202 66.3296 9.39619 67.8022L20.85 70.7189C24.192 71.5697 27.3132 68.7308 26.7814 65.3233V65.3274Z" fill="#FF0000"/>
<path d="M58.711 75.7015L83.214 58.623C95.5759 50.0081 100.235 33.9278 94.4019 20.036L94.2137 19.5901C87.3783 3.31752 68.6472 -4.33198 52.3746 2.50348C38.2824 8.42264 30.3547 23.4967 33.4636 38.4602L39.62 68.1092C41.4158 76.7568 51.4624 80.7534 58.7069 75.7015H58.711Z" fill="#FF0000"/>
</g>
<defs>
<clipPath id="clip0_28_711">
<rect width="126" height="114.378" fill="white"/>
</clipPath>
</defs>
</svg>
