<svg width="235" height="60" viewBox="0 0 235 60" fill="none" xmlns="http://www.w3.org/2000/svg">
<rect width="235" height="60" rx="8" fill="#171719"/>
<rect width="235" height="60" rx="8" fill="black" fill-opacity="0.2"/>
<path fill-rule="evenodd" clip-rule="evenodd" d="M41.4668 39.5467C42.2534 38.3467 42.5468 37.7334 43.1468 36.3867C38.7201 34.7067 38.0134 28.4 42.3868 25.9867C41.0534 24.3067 39.1734 23.3333 37.4001 23.3333C36.1201 23.3333 35.2401 23.6667 34.4534 23.9734C33.7868 24.2267 33.1868 24.4533 32.4401 24.4533C31.6401 24.4533 30.9334 24.2 30.1868 23.9334C29.3734 23.64 28.5201 23.3333 27.4534 23.3333C25.4668 23.3333 23.3468 24.5467 22.0001 26.6267C20.1068 29.56 20.4401 35.0533 23.4934 39.7467C24.5868 41.4267 26.0534 43.3067 27.9601 43.3333C28.7601 43.3467 29.2801 43.1067 29.8534 42.8534C30.5068 42.56 31.2134 42.24 32.4534 42.24C33.6934 42.2267 34.3868 42.56 35.0401 42.8534C35.6001 43.1067 36.1068 43.3467 36.8934 43.3333C38.8268 43.3067 40.3734 41.2267 41.4668 39.5467Z" fill="white"/>
<path fill-rule="evenodd" clip-rule="evenodd" d="M37.1201 16.6667C37.3334 18.1333 36.7334 19.5867 35.9468 20.6C35.1068 21.6933 33.6401 22.5466 32.2268 22.4933C31.9734 21.08 32.6268 19.6266 33.4268 18.6533C34.3201 17.5866 35.8268 16.76 37.1201 16.6667Z" fill="white"/>
<path d="M65.164 20V13.184H68.128C68.896 13.184 69.56 13.324 70.12 13.604C70.688 13.884 71.124 14.28 71.428 14.792C71.74 15.304 71.896 15.904 71.896 16.592C71.896 17.28 71.74 17.88 71.428 18.392C71.124 18.904 70.688 19.3 70.12 19.58C69.56 19.86 68.896 20 68.128 20H65.164ZM66.328 19.028H68.08C68.64 19.028 69.116 18.932 69.508 18.74C69.9 18.54 70.2 18.256 70.408 17.888C70.616 17.52 70.72 17.088 70.72 16.592C70.72 16.088 70.616 15.656 70.408 15.296C70.2 14.928 69.9 14.644 69.508 14.444C69.116 14.244 68.64 14.144 68.08 14.144H66.328V19.028ZM76.7818 20.096C76.0778 20.096 75.4458 19.944 74.8858 19.64C74.3258 19.336 73.8818 18.92 73.5538 18.392C73.2338 17.856 73.0738 17.252 73.0738 16.58C73.0738 15.916 73.2338 15.32 73.5538 14.792C73.8818 14.264 74.3258 13.848 74.8858 13.544C75.4458 13.24 76.0778 13.088 76.7818 13.088C77.4938 13.088 78.1258 13.24 78.6778 13.544C79.2378 13.848 79.6778 14.264 79.9978 14.792C80.3258 15.32 80.4898 15.916 80.4898 16.58C80.4898 17.252 80.3258 17.856 79.9978 18.392C79.6778 18.92 79.2378 19.336 78.6778 19.64C78.1258 19.944 77.4938 20.096 76.7818 20.096ZM76.7818 19.088C77.2698 19.088 77.7018 18.98 78.0778 18.764C78.4618 18.548 78.7618 18.252 78.9778 17.876C79.2018 17.492 79.3138 17.064 79.3138 16.592C79.3138 16.104 79.2018 15.676 78.9778 15.308C78.7618 14.932 78.4618 14.636 78.0778 14.42C77.7018 14.204 77.2698 14.096 76.7818 14.096C76.3018 14.096 75.8698 14.204 75.4858 14.42C75.1018 14.628 74.7978 14.92 74.5738 15.296C74.3578 15.672 74.2498 16.104 74.2498 16.592C74.2498 17.064 74.3578 17.492 74.5738 17.876C74.7978 18.252 75.1018 18.548 75.4858 18.764C75.8698 18.98 76.3018 19.088 76.7818 19.088ZM83.5926 20L81.2886 13.184H82.4886L84.5646 19.412H83.9646L86.1126 13.184H87.2046L89.3046 19.412H88.7286L90.8286 13.184H91.9566L89.6526 20H88.4166L86.4726 14.3H86.7966L84.8406 20H83.5926ZM93.649 20V13.184H94.609L98.989 18.56H98.545V13.184H99.709V20H98.749L94.357 14.624H94.813V20H93.649ZM102.16 20V13.184H103.324V19.028H106.984V20H102.16ZM111.281 20.096C110.577 20.096 109.945 19.944 109.385 19.64C108.825 19.336 108.381 18.92 108.053 18.392C107.733 17.856 107.573 17.252 107.573 16.58C107.573 15.916 107.733 15.32 108.053 14.792C108.381 14.264 108.825 13.848 109.385 13.544C109.945 13.24 110.577 13.088 111.281 13.088C111.993 13.088 112.625 13.24 113.177 13.544C113.737 13.848 114.177 14.264 114.497 14.792C114.825 15.32 114.989 15.916 114.989 16.58C114.989 17.252 114.825 17.856 114.497 18.392C114.177 18.92 113.737 19.336 113.177 19.64C112.625 19.944 111.993 20.096 111.281 20.096ZM111.281 19.088C111.769 19.088 112.201 18.98 112.577 18.764C112.961 18.548 113.261 18.252 113.477 17.876C113.701 17.492 113.813 17.064 113.813 16.592C113.813 16.104 113.701 15.676 113.477 15.308C113.261 14.932 112.961 14.636 112.577 14.42C112.201 14.204 111.769 14.096 111.281 14.096C110.801 14.096 110.369 14.204 109.985 14.42C109.601 14.628 109.297 14.92 109.073 15.296C108.857 15.672 108.749 16.104 108.749 16.592C108.749 17.064 108.857 17.492 109.073 17.876C109.297 18.252 109.601 18.548 109.985 18.764C110.369 18.98 110.801 19.088 111.281 19.088ZM115.509 20L118.629 13.184H119.781L122.913 20H121.737L119.013 13.796H119.409L116.649 20H115.509ZM116.937 18.38L117.249 17.456H120.993L121.305 18.38H116.937ZM124.188 20V13.184H127.152C127.92 13.184 128.584 13.324 129.144 13.604C129.712 13.884 130.148 14.28 130.452 14.792C130.764 15.304 130.92 15.904 130.92 16.592C130.92 17.28 130.764 17.88 130.452 18.392C130.148 18.904 129.712 19.3 129.144 19.58C128.584 19.86 127.92 20 127.152 20H124.188ZM125.352 19.028H127.104C127.664 19.028 128.14 18.932 128.532 18.74C128.924 18.54 129.224 18.256 129.432 17.888C129.64 17.52 129.744 17.088 129.744 16.592C129.744 16.088 129.64 15.656 129.432 15.296C129.224 14.928 128.924 14.644 128.532 14.444C128.14 14.244 127.664 14.144 127.104 14.144H125.352V19.028ZM139.148 20.096C138.444 20.096 137.812 19.944 137.252 19.64C136.692 19.336 136.248 18.92 135.92 18.392C135.6 17.856 135.44 17.252 135.44 16.58C135.44 15.916 135.6 15.32 135.92 14.792C136.248 14.264 136.692 13.848 137.252 13.544C137.812 13.24 138.444 13.088 139.148 13.088C139.86 13.088 140.492 13.24 141.044 13.544C141.604 13.848 142.044 14.264 142.364 14.792C142.692 15.32 142.856 15.916 142.856 16.58C142.856 17.252 142.692 17.856 142.364 18.392C142.044 18.92 141.604 19.336 141.044 19.64C140.492 19.944 139.86 20.096 139.148 20.096ZM139.148 19.088C139.636 19.088 140.068 18.98 140.444 18.764C140.828 18.548 141.128 18.252 141.344 17.876C141.568 17.492 141.68 17.064 141.68 16.592C141.68 16.104 141.568 15.676 141.344 15.308C141.128 14.932 140.828 14.636 140.444 14.42C140.068 14.204 139.636 14.096 139.148 14.096C138.668 14.096 138.236 14.204 137.852 14.42C137.468 14.628 137.164 14.92 136.94 15.296C136.724 15.672 136.616 16.104 136.616 16.592C136.616 17.064 136.724 17.492 136.94 17.876C137.164 18.252 137.468 18.548 137.852 18.764C138.236 18.98 138.668 19.088 139.148 19.088ZM144.669 20V13.184H145.629L150.009 18.56H149.565V13.184H150.729V20H149.769L145.377 14.624H145.833V20H144.669ZM157.734 20V14.144H155.406V13.184H161.226V14.144H158.898V20H157.734ZM162.56 20V13.184H163.724V16.064H167.456V13.184H168.62V20H167.456V17.024H163.724V20H162.56ZM172.043 16.064H175.631V17.012H172.043V16.064ZM172.235 19.028H176.183V20H171.071V13.184H176.051V14.144H172.235V19.028Z" fill="white"/>
<path d="M63.784 46L71.272 29.2H75.112L82.624 46H78.544L72.4 31.168H73.936L67.768 46H63.784ZM67.528 42.4L68.56 39.448H77.2L78.256 42.4H67.528ZM91.975 46.192C90.887 46.192 89.935 45.952 89.119 45.472C88.303 44.992 87.663 44.264 87.199 43.288C86.751 42.296 86.527 41.048 86.527 39.544C86.527 38.024 86.743 36.776 87.175 35.8C87.607 34.824 88.231 34.096 89.047 33.616C89.863 33.136 90.839 32.896 91.975 32.896C93.191 32.896 94.279 33.176 95.239 33.736C96.215 34.28 96.983 35.048 97.543 36.04C98.119 37.032 98.407 38.2 98.407 39.544C98.407 40.904 98.119 42.08 97.543 43.072C96.983 44.064 96.215 44.832 95.239 45.376C94.279 45.92 93.191 46.192 91.975 46.192ZM84.343 50.656V33.088H87.919V35.728L87.847 39.568L88.087 43.384V50.656H84.343ZM91.327 43.12C91.951 43.12 92.503 42.976 92.983 42.688C93.479 42.4 93.871 41.992 94.159 41.464C94.463 40.92 94.615 40.28 94.615 39.544C94.615 38.792 94.463 38.152 94.159 37.624C93.871 37.096 93.479 36.688 92.983 36.4C92.503 36.112 91.951 35.968 91.327 35.968C90.703 35.968 90.143 36.112 89.647 36.4C89.151 36.688 88.759 37.096 88.471 37.624C88.183 38.152 88.039 38.792 88.039 39.544C88.039 40.28 88.183 40.92 88.471 41.464C88.759 41.992 89.151 42.4 89.647 42.688C90.143 42.976 90.703 43.12 91.327 43.12ZM108.785 46.192C107.697 46.192 106.745 45.952 105.929 45.472C105.113 44.992 104.473 44.264 104.009 43.288C103.561 42.296 103.337 41.048 103.337 39.544C103.337 38.024 103.553 36.776 103.985 35.8C104.417 34.824 105.041 34.096 105.857 33.616C106.673 33.136 107.649 32.896 108.785 32.896C110.001 32.896 111.089 33.176 112.049 33.736C113.025 34.28 113.793 35.048 114.353 36.04C114.929 37.032 115.217 38.2 115.217 39.544C115.217 40.904 114.929 42.08 114.353 43.072C113.793 44.064 113.025 44.832 112.049 45.376C111.089 45.92 110.001 46.192 108.785 46.192ZM101.153 50.656V33.088H104.729V35.728L104.657 39.568L104.897 43.384V50.656H101.153ZM108.137 43.12C108.761 43.12 109.313 42.976 109.793 42.688C110.289 42.4 110.681 41.992 110.969 41.464C111.273 40.92 111.425 40.28 111.425 39.544C111.425 38.792 111.273 38.152 110.969 37.624C110.681 37.096 110.289 36.688 109.793 36.4C109.313 36.112 108.761 35.968 108.137 35.968C107.513 35.968 106.953 36.112 106.457 36.4C105.961 36.688 105.569 37.096 105.281 37.624C104.993 38.152 104.849 38.792 104.849 39.544C104.849 40.28 104.993 40.92 105.281 41.464C105.569 41.992 105.961 42.4 106.457 42.688C106.953 42.976 107.513 43.12 108.137 43.12ZM130.784 46.288C129.44 46.288 128.152 46.112 126.92 45.76C125.688 45.392 124.696 44.92 123.944 44.344L125.264 41.416C125.984 41.928 126.832 42.352 127.808 42.688C128.8 43.008 129.8 43.168 130.808 43.168C131.576 43.168 132.192 43.096 132.656 42.952C133.136 42.792 133.488 42.576 133.712 42.304C133.936 42.032 134.048 41.72 134.048 41.368C134.048 40.92 133.872 40.568 133.52 40.312C133.168 40.04 132.704 39.824 132.128 39.664C131.552 39.488 130.912 39.328 130.208 39.184C129.52 39.024 128.824 38.832 128.12 38.608C127.432 38.384 126.8 38.096 126.224 37.744C125.648 37.392 125.176 36.928 124.808 36.352C124.456 35.776 124.28 35.04 124.28 34.144C124.28 33.184 124.536 32.312 125.048 31.528C125.576 30.728 126.36 30.096 127.4 29.632C128.456 29.152 129.776 28.912 131.36 28.912C132.416 28.912 133.456 29.04 134.48 29.296C135.504 29.536 136.408 29.904 137.193 30.4L135.992 33.352C135.208 32.904 134.424 32.576 133.64 32.368C132.856 32.144 132.088 32.032 131.336 32.032C130.584 32.032 129.968 32.12 129.488 32.296C129.008 32.472 128.664 32.704 128.456 32.992C128.248 33.264 128.144 33.584 128.144 33.952C128.144 34.384 128.32 34.736 128.672 35.008C129.024 35.264 129.488 35.472 130.064 35.632C130.64 35.792 131.272 35.952 131.96 36.112C132.664 36.272 133.36 36.456 134.048 36.664C134.752 36.872 135.392 37.152 135.969 37.504C136.544 37.856 137.008 38.32 137.36 38.896C137.728 39.472 137.912 40.2 137.912 41.08C137.912 42.024 137.648 42.888 137.12 43.672C136.592 44.456 135.8 45.088 134.744 45.568C133.704 46.048 132.384 46.288 130.784 46.288ZM145.825 46.192C144.305 46.192 143.121 45.808 142.273 45.04C141.425 44.256 141.001 43.096 141.001 41.56V30.232H144.745V41.512C144.745 42.056 144.889 42.48 145.177 42.784C145.465 43.072 145.857 43.216 146.353 43.216C146.945 43.216 147.449 43.056 147.865 42.736L148.873 45.376C148.489 45.648 148.025 45.856 147.481 46C146.953 46.128 146.401 46.192 145.825 46.192ZM139.009 36.256V33.376H147.961V36.256H139.009ZM156.96 46.192C155.584 46.192 154.36 45.904 153.288 45.328C152.232 44.752 151.392 43.968 150.768 42.976C150.16 41.968 149.856 40.824 149.856 39.544C149.856 38.248 150.16 37.104 150.768 36.112C151.392 35.104 152.232 34.32 153.288 33.76C154.36 33.184 155.584 32.896 156.96 32.896C158.32 32.896 159.536 33.184 160.608 33.76C161.68 34.32 162.52 35.096 163.128 36.088C163.736 37.08 164.04 38.232 164.04 39.544C164.04 40.824 163.736 41.968 163.128 42.976C162.52 43.968 161.68 44.752 160.608 45.328C159.536 45.904 158.32 46.192 156.96 46.192ZM156.96 43.12C157.584 43.12 158.144 42.976 158.64 42.688C159.136 42.4 159.528 41.992 159.816 41.464C160.104 40.92 160.248 40.28 160.248 39.544C160.248 38.792 160.104 38.152 159.816 37.624C159.528 37.096 159.136 36.688 158.64 36.4C158.144 36.112 157.584 35.968 156.96 35.968C156.336 35.968 155.776 36.112 155.28 36.4C154.784 36.688 154.384 37.096 154.08 37.624C153.792 38.152 153.648 38.792 153.648 39.544C153.648 40.28 153.792 40.92 154.08 41.464C154.384 41.992 154.784 42.4 155.28 42.688C155.776 42.976 156.336 43.12 156.96 43.12ZM166.783 46V33.088H170.359V36.736L169.855 35.68C170.239 34.768 170.855 34.08 171.703 33.616C172.551 33.136 173.583 32.896 174.799 32.896V36.352C174.639 36.336 174.495 36.328 174.367 36.328C174.239 36.312 174.103 36.304 173.959 36.304C172.935 36.304 172.103 36.6 171.463 37.192C170.839 37.768 170.527 38.672 170.527 39.904V46H166.783ZM183.579 46.192C182.107 46.192 180.811 45.904 179.691 45.328C178.587 44.752 177.731 43.968 177.123 42.976C176.515 41.968 176.211 40.824 176.211 39.544C176.211 38.248 176.507 37.104 177.099 36.112C177.707 35.104 178.531 34.32 179.571 33.76C180.611 33.184 181.787 32.896 183.099 32.896C184.363 32.896 185.499 33.168 186.507 33.712C187.531 34.24 188.339 35.008 188.931 36.016C189.523 37.008 189.819 38.2 189.819 39.592C189.819 39.736 189.811 39.904 189.795 40.096C189.779 40.272 189.763 40.44 189.747 40.6H179.259V38.416H187.779L186.339 39.064C186.339 38.392 186.203 37.808 185.931 37.312C185.659 36.816 185.283 36.432 184.803 36.16C184.323 35.872 183.763 35.728 183.123 35.728C182.483 35.728 181.915 35.872 181.419 36.16C180.939 36.432 180.563 36.824 180.291 37.336C180.019 37.832 179.883 38.424 179.883 39.112V39.688C179.883 40.392 180.035 41.016 180.339 41.56C180.659 42.088 181.099 42.496 181.659 42.784C182.235 43.056 182.907 43.192 183.675 43.192C184.363 43.192 184.963 43.088 185.475 42.88C186.003 42.672 186.483 42.36 186.915 41.944L188.907 44.104C188.315 44.776 187.571 45.296 186.675 45.664C185.779 46.016 184.747 46.192 183.579 46.192Z" fill="white"/>
</svg>
