<svg width="235" height="60" viewBox="0 0 235 60" fill="none" xmlns="http://www.w3.org/2000/svg">
<rect width="235" height="60" rx="8" fill="#171719"/>
<rect width="235" height="60" rx="8" fill="black" fill-opacity="0.2"/>
<path d="M33.2707 29.4889L37.2134 25.5462L24.4787 18.3889C23.6347 17.9329 22.844 17.8689 22.1507 18.3676L33.2707 29.4889ZM37.8854 34.1049L41.984 31.7996C42.784 31.3516 43.2227 30.7169 43.2227 30.0129C43.2227 29.3102 42.784 28.6742 41.9854 28.2262L38.2747 26.1422L34.0974 30.3182L37.8854 34.1049ZM21.4654 19.3369C21.38 19.5996 21.332 19.8929 21.332 20.2142V39.8209C21.332 40.3289 21.444 40.7662 21.6467 41.1142L32.4427 30.3169L21.4654 19.3369ZM33.2707 31.1436L22.5347 41.8809C22.74 41.9596 22.9614 42.0009 23.1947 42.0009C23.6107 42.0009 24.044 41.8782 24.4854 41.6329L36.8254 34.7036L33.2707 31.1436Z" fill="white"/>
<path d="M63.988 20L67.108 13.184H68.26L71.392 20H70.216L67.492 13.796H67.888L65.128 20H63.988ZM65.416 18.38L65.728 17.456H69.472L69.784 18.38H65.416ZM72.6668 20V13.184H73.6268L78.0068 18.56H77.5628V13.184H78.7268V20H77.7668L73.3748 14.624H73.8308V20H72.6668ZM81.1774 20V13.184H84.1414C84.9094 13.184 85.5734 13.324 86.1334 13.604C86.7014 13.884 87.1374 14.28 87.4414 14.792C87.7534 15.304 87.9094 15.904 87.9094 16.592C87.9094 17.28 87.7534 17.88 87.4414 18.392C87.1374 18.904 86.7014 19.3 86.1334 19.58C85.5734 19.86 84.9094 20 84.1414 20H81.1774ZM82.3414 19.028H84.0934C84.6534 19.028 85.1294 18.932 85.5214 18.74C85.9134 18.54 86.2134 18.256 86.4214 17.888C86.6294 17.52 86.7334 17.088 86.7334 16.592C86.7334 16.088 86.6294 15.656 86.4214 15.296C86.2134 14.928 85.9134 14.644 85.5214 14.444C85.1294 14.244 84.6534 14.144 84.0934 14.144H82.3414V19.028ZM89.7232 20V13.184H92.5072C93.1072 13.184 93.6232 13.28 94.0552 13.472C94.4872 13.656 94.8232 13.928 95.0632 14.288C95.3032 14.64 95.4232 15.072 95.4232 15.584C95.4232 16.08 95.3032 16.508 95.0632 16.868C94.8232 17.228 94.4872 17.504 94.0552 17.696C93.6232 17.88 93.1072 17.972 92.5072 17.972H90.3712L90.8872 17.444V20H89.7232ZM94.2832 20L92.5072 17.528H93.7672L95.5432 20H94.2832ZM90.8872 17.576L90.4432 17.024H92.4352C93.0272 17.024 93.4752 16.9 93.7792 16.652C94.0912 16.404 94.2472 16.048 94.2472 15.584C94.2472 15.12 94.0912 14.764 93.7792 14.516C93.4752 14.268 93.0272 14.144 92.4352 14.144H90.4432L90.8872 13.592V17.576ZM100.474 20.096C99.7698 20.096 99.1378 19.944 98.5778 19.64C98.0178 19.336 97.5738 18.92 97.2458 18.392C96.9258 17.856 96.7658 17.252 96.7658 16.58C96.7658 15.916 96.9258 15.32 97.2458 14.792C97.5738 14.264 98.0178 13.848 98.5778 13.544C99.1378 13.24 99.7698 13.088 100.474 13.088C101.186 13.088 101.818 13.24 102.37 13.544C102.93 13.848 103.37 14.264 103.69 14.792C104.018 15.32 104.182 15.916 104.182 16.58C104.182 17.252 104.018 17.856 103.69 18.392C103.37 18.92 102.93 19.336 102.37 19.64C101.818 19.944 101.186 20.096 100.474 20.096ZM100.474 19.088C100.962 19.088 101.394 18.98 101.77 18.764C102.154 18.548 102.454 18.252 102.67 17.876C102.894 17.492 103.006 17.064 103.006 16.592C103.006 16.104 102.894 15.676 102.67 15.308C102.454 14.932 102.154 14.636 101.77 14.42C101.394 14.204 100.962 14.096 100.474 14.096C99.9938 14.096 99.5618 14.204 99.1778 14.42C98.7938 14.628 98.4898 14.92 98.2658 15.296C98.0498 15.672 97.9418 16.104 97.9418 16.592C97.9418 17.064 98.0498 17.492 98.2658 17.876C98.4898 18.252 98.7938 18.548 99.1778 18.764C99.5618 18.98 99.9938 19.088 100.474 19.088ZM105.994 20V13.184H107.158V20H105.994ZM109.595 20V13.184H112.559C113.327 13.184 113.991 13.324 114.551 13.604C115.119 13.884 115.555 14.28 115.859 14.792C116.171 15.304 116.327 15.904 116.327 16.592C116.327 17.28 116.171 17.88 115.859 18.392C115.555 18.904 115.119 19.3 114.551 19.58C113.991 19.86 113.327 20 112.559 20H109.595ZM110.759 19.028H112.511C113.071 19.028 113.547 18.932 113.939 18.74C114.331 18.54 114.631 18.256 114.839 17.888C115.047 17.52 115.151 17.088 115.151 16.592C115.151 16.088 115.047 15.656 114.839 15.296C114.631 14.928 114.331 14.644 113.939 14.444C113.547 14.244 113.071 14.144 112.511 14.144H110.759V19.028ZM120.307 20L123.427 13.184H124.579L127.711 20H126.535L123.811 13.796H124.207L121.447 20H120.307ZM121.735 18.38L122.047 17.456H125.791L126.103 18.38H121.735ZM128.986 20V13.184H131.77C132.37 13.184 132.886 13.28 133.318 13.472C133.75 13.656 134.086 13.928 134.326 14.288C134.566 14.64 134.686 15.072 134.686 15.584C134.686 16.088 134.566 16.52 134.326 16.88C134.086 17.24 133.75 17.516 133.318 17.708C132.886 17.9 132.37 17.996 131.77 17.996H129.634L130.15 17.444V20H128.986ZM130.15 17.576L129.706 17.024H131.698C132.29 17.024 132.738 16.9 133.042 16.652C133.354 16.404 133.51 16.048 133.51 15.584C133.51 15.12 133.354 14.764 133.042 14.516C132.738 14.268 132.29 14.144 131.698 14.144H129.706L130.15 13.592V17.576ZM136.583 20V13.184H139.367C139.967 13.184 140.483 13.28 140.915 13.472C141.347 13.656 141.683 13.928 141.923 14.288C142.163 14.64 142.283 15.072 142.283 15.584C142.283 16.088 142.163 16.52 141.923 16.88C141.683 17.24 141.347 17.516 140.915 17.708C140.483 17.9 139.967 17.996 139.367 17.996H137.231L137.747 17.444V20H136.583ZM137.747 17.576L137.303 17.024H139.295C139.887 17.024 140.335 16.9 140.639 16.652C140.951 16.404 141.107 16.048 141.107 15.584C141.107 15.12 140.951 14.764 140.639 14.516C140.335 14.268 139.887 14.144 139.295 14.144H137.303L137.747 13.592V17.576ZM150.594 20.096C149.89 20.096 149.258 19.944 148.698 19.64C148.138 19.336 147.694 18.92 147.366 18.392C147.046 17.856 146.886 17.252 146.886 16.58C146.886 15.916 147.046 15.32 147.366 14.792C147.694 14.264 148.138 13.848 148.698 13.544C149.258 13.24 149.89 13.088 150.594 13.088C151.306 13.088 151.938 13.24 152.49 13.544C153.05 13.848 153.49 14.264 153.81 14.792C154.138 15.32 154.302 15.916 154.302 16.58C154.302 17.252 154.138 17.856 153.81 18.392C153.49 18.92 153.05 19.336 152.49 19.64C151.938 19.944 151.306 20.096 150.594 20.096ZM150.594 19.088C151.082 19.088 151.514 18.98 151.89 18.764C152.274 18.548 152.574 18.252 152.79 17.876C153.014 17.492 153.126 17.064 153.126 16.592C153.126 16.104 153.014 15.676 152.79 15.308C152.574 14.932 152.274 14.636 151.89 14.42C151.514 14.204 151.082 14.096 150.594 14.096C150.114 14.096 149.682 14.204 149.298 14.42C148.914 14.628 148.61 14.92 148.386 15.296C148.17 15.672 148.062 16.104 148.062 16.592C148.062 17.064 148.17 17.492 148.386 17.876C148.61 18.252 148.914 18.548 149.298 18.764C149.682 18.98 150.114 19.088 150.594 19.088ZM156.115 20V13.184H157.075L161.455 18.56H161.011V13.184H162.175V20H161.215L156.823 14.624H157.279V20H156.115Z" fill="white"/>
<path d="M74.104 46.288C72.776 46.288 71.552 46.08 70.432 45.664C69.328 45.232 68.36 44.624 67.528 43.84C66.712 43.056 66.072 42.136 65.608 41.08C65.16 40.024 64.936 38.864 64.936 37.6C64.936 36.336 65.16 35.176 65.608 34.12C66.072 33.064 66.72 32.144 67.552 31.36C68.384 30.576 69.36 29.976 70.48 29.56C71.6 29.128 72.832 28.912 74.176 28.912C75.664 28.912 77 29.16 78.184 29.656C79.384 30.152 80.392 30.872 81.208 31.816L78.712 34.12C78.104 33.48 77.44 33.008 76.72 32.704C76 32.384 75.216 32.224 74.368 32.224C73.552 32.224 72.808 32.352 72.136 32.608C71.464 32.864 70.88 33.232 70.384 33.712C69.904 34.192 69.528 34.76 69.256 35.416C69 36.072 68.872 36.8 68.872 37.6C68.872 38.384 69 39.104 69.256 39.76C69.528 40.416 69.904 40.992 70.384 41.488C70.88 41.968 71.456 42.336 72.112 42.592C72.784 42.848 73.52 42.976 74.32 42.976C75.088 42.976 75.832 42.856 76.552 42.616C77.288 42.36 78 41.936 78.688 41.344L80.896 44.152C79.984 44.84 78.92 45.368 77.704 45.736C76.504 46.104 75.304 46.288 74.104 46.288ZM77.344 43.648V37.336H80.896V44.152L77.344 43.648ZM90.6276 46.192C89.2516 46.192 88.0276 45.904 86.9556 45.328C85.8996 44.752 85.0596 43.968 84.4356 42.976C83.8276 41.968 83.5236 40.824 83.5236 39.544C83.5236 38.248 83.8276 37.104 84.4356 36.112C85.0596 35.104 85.8996 34.32 86.9556 33.76C88.0276 33.184 89.2516 32.896 90.6276 32.896C91.9876 32.896 93.2036 33.184 94.2756 33.76C95.3476 34.32 96.1876 35.096 96.7956 36.088C97.4036 37.08 97.7076 38.232 97.7076 39.544C97.7076 40.824 97.4036 41.968 96.7956 42.976C96.1876 43.968 95.3476 44.752 94.2756 45.328C93.2036 45.904 91.9876 46.192 90.6276 46.192ZM90.6276 43.12C91.2516 43.12 91.8116 42.976 92.3076 42.688C92.8036 42.4 93.1956 41.992 93.4836 41.464C93.7716 40.92 93.9156 40.28 93.9156 39.544C93.9156 38.792 93.7716 38.152 93.4836 37.624C93.1956 37.096 92.8036 36.688 92.3076 36.4C91.8116 36.112 91.2516 35.968 90.6276 35.968C90.0036 35.968 89.4436 36.112 88.9476 36.4C88.4516 36.688 88.0516 37.096 87.7476 37.624C87.4596 38.152 87.3156 38.792 87.3156 39.544C87.3156 40.28 87.4596 40.92 87.7476 41.464C88.0516 41.992 88.4516 42.4 88.9476 42.688C89.4436 42.976 90.0036 43.12 90.6276 43.12ZM106.594 46.192C105.218 46.192 103.994 45.904 102.922 45.328C101.866 44.752 101.026 43.968 100.402 42.976C99.7942 41.968 99.4902 40.824 99.4902 39.544C99.4902 38.248 99.7942 37.104 100.402 36.112C101.026 35.104 101.866 34.32 102.922 33.76C103.994 33.184 105.218 32.896 106.594 32.896C107.954 32.896 109.17 33.184 110.242 33.76C111.314 34.32 112.154 35.096 112.762 36.088C113.37 37.08 113.674 38.232 113.674 39.544C113.674 40.824 113.37 41.968 112.762 42.976C112.154 43.968 111.314 44.752 110.242 45.328C109.17 45.904 107.954 46.192 106.594 46.192ZM106.594 43.12C107.218 43.12 107.778 42.976 108.274 42.688C108.77 42.4 109.162 41.992 109.45 41.464C109.738 40.92 109.882 40.28 109.882 39.544C109.882 38.792 109.738 38.152 109.45 37.624C109.162 37.096 108.77 36.688 108.274 36.4C107.778 36.112 107.218 35.968 106.594 35.968C105.97 35.968 105.41 36.112 104.914 36.4C104.418 36.688 104.018 37.096 103.714 37.624C103.426 38.152 103.282 38.792 103.282 39.544C103.282 40.28 103.426 40.92 103.714 41.464C104.018 41.992 104.418 42.4 104.914 42.688C105.41 42.976 105.97 43.12 106.594 43.12ZM122.489 50.848C121.273 50.848 120.097 50.696 118.961 50.392C117.841 50.104 116.905 49.664 116.153 49.072L117.641 46.384C118.185 46.832 118.873 47.184 119.705 47.44C120.553 47.712 121.385 47.848 122.201 47.848C123.529 47.848 124.489 47.552 125.081 46.96C125.689 46.368 125.993 45.488 125.993 44.32V42.376L126.233 39.136L126.185 35.872V33.088H129.737V43.84C129.737 46.24 129.113 48.008 127.865 49.144C126.617 50.28 124.825 50.848 122.489 50.848ZM121.913 45.376C120.713 45.376 119.625 45.12 118.649 44.608C117.689 44.08 116.913 43.352 116.321 42.424C115.745 41.48 115.457 40.384 115.457 39.136C115.457 37.872 115.745 36.776 116.321 35.848C116.913 34.904 117.689 34.176 118.649 33.664C119.625 33.152 120.713 32.896 121.913 32.896C123.001 32.896 123.961 33.12 124.793 33.568C125.625 34 126.273 34.68 126.737 35.608C127.201 36.52 127.433 37.696 127.433 39.136C127.433 40.56 127.201 41.736 126.737 42.664C126.273 43.576 125.625 44.256 124.793 44.704C123.961 45.152 123.001 45.376 121.913 45.376ZM122.657 42.304C123.313 42.304 123.897 42.176 124.409 41.92C124.921 41.648 125.321 41.272 125.609 40.792C125.897 40.312 126.041 39.76 126.041 39.136C126.041 38.496 125.897 37.944 125.609 37.48C125.321 37 124.921 36.632 124.409 36.376C123.897 36.104 123.313 35.968 122.657 35.968C122.001 35.968 121.417 36.104 120.905 36.376C120.393 36.632 119.985 37 119.681 37.48C119.393 37.944 119.249 38.496 119.249 39.136C119.249 39.76 119.393 40.312 119.681 40.792C119.985 41.272 120.393 41.648 120.905 41.92C121.417 42.176 122.001 42.304 122.657 42.304ZM133.461 46V28.192H137.205V46H133.461ZM147.328 46.192C145.856 46.192 144.56 45.904 143.44 45.328C142.336 44.752 141.48 43.968 140.872 42.976C140.264 41.968 139.96 40.824 139.96 39.544C139.96 38.248 140.256 37.104 140.848 36.112C141.456 35.104 142.28 34.32 143.32 33.76C144.36 33.184 145.536 32.896 146.848 32.896C148.112 32.896 149.248 33.168 150.256 33.712C151.28 34.24 152.088 35.008 152.68 36.016C153.272 37.008 153.568 38.2 153.568 39.592C153.568 39.736 153.56 39.904 153.544 40.096C153.528 40.272 153.512 40.44 153.496 40.6H143.008V38.416H151.528L150.088 39.064C150.088 38.392 149.952 37.808 149.68 37.312C149.408 36.816 149.032 36.432 148.552 36.16C148.072 35.872 147.512 35.728 146.872 35.728C146.232 35.728 145.664 35.872 145.168 36.16C144.688 36.432 144.312 36.824 144.04 37.336C143.768 37.832 143.632 38.424 143.632 39.112V39.688C143.632 40.392 143.784 41.016 144.088 41.56C144.408 42.088 144.848 42.496 145.408 42.784C145.984 43.056 146.656 43.192 147.424 43.192C148.112 43.192 148.712 43.088 149.224 42.88C149.752 42.672 150.232 42.36 150.664 41.944L152.656 44.104C152.064 44.776 151.32 45.296 150.424 45.664C149.528 46.016 148.496 46.192 147.328 46.192ZM163.602 46V29.2H170.874C172.378 29.2 173.674 29.448 174.762 29.944C175.85 30.424 176.69 31.12 177.282 32.032C177.874 32.944 178.17 34.032 178.17 35.296C178.17 36.544 177.874 37.624 177.282 38.536C176.69 39.448 175.85 40.152 174.762 40.648C173.674 41.128 172.378 41.368 170.874 41.368H165.762L167.49 39.616V46H163.602ZM167.49 40.048L165.762 38.2H170.658C171.858 38.2 172.754 37.944 173.346 37.432C173.938 36.92 174.234 36.208 174.234 35.296C174.234 34.368 173.938 33.648 173.346 33.136C172.754 32.624 171.858 32.368 170.658 32.368H165.762L167.49 30.52V40.048ZM181.156 46V28.192H184.9V46H181.156ZM196.535 46V43.48L196.295 42.928V38.416C196.295 37.616 196.047 36.992 195.551 36.544C195.071 36.096 194.327 35.872 193.319 35.872C192.631 35.872 191.951 35.984 191.279 36.208C190.623 36.416 190.063 36.704 189.599 37.072L188.255 34.456C188.959 33.96 189.807 33.576 190.799 33.304C191.791 33.032 192.799 32.896 193.823 32.896C195.791 32.896 197.319 33.36 198.407 34.288C199.495 35.216 200.039 36.664 200.039 38.632V46H196.535ZM192.599 46.192C191.591 46.192 190.727 46.024 190.007 45.688C189.287 45.336 188.735 44.864 188.351 44.272C187.967 43.68 187.775 43.016 187.775 42.28C187.775 41.512 187.959 40.84 188.327 40.264C188.711 39.688 189.311 39.24 190.127 38.92C190.943 38.584 192.007 38.416 193.319 38.416H196.751V40.6H193.727C192.847 40.6 192.239 40.744 191.903 41.032C191.583 41.32 191.423 41.68 191.423 42.112C191.423 42.592 191.607 42.976 191.975 43.264C192.359 43.536 192.879 43.672 193.535 43.672C194.159 43.672 194.719 43.528 195.215 43.24C195.711 42.936 196.071 42.496 196.295 41.92L196.871 43.648C196.599 44.48 196.103 45.112 195.383 45.544C194.663 45.976 193.735 46.192 192.599 46.192ZM205.065 50.848C204.393 50.848 203.729 50.744 203.073 50.536C202.417 50.328 201.881 50.04 201.465 49.672L202.833 47.008C203.121 47.264 203.449 47.464 203.817 47.608C204.201 47.752 204.577 47.824 204.945 47.824C205.473 47.824 205.889 47.696 206.193 47.44C206.513 47.2 206.801 46.792 207.057 46.216L207.729 44.632L208.017 44.224L212.649 33.088H216.249L210.417 46.792C210.001 47.832 209.521 48.648 208.977 49.24C208.449 49.832 207.857 50.248 207.201 50.488C206.561 50.728 205.849 50.848 205.065 50.848ZM207.273 46.504L201.513 33.088H205.377L209.841 43.888L207.273 46.504Z" fill="white"/>
</svg>
