<svg width="49" height="48" viewBox="0 0 49 48" fill="none" xmlns="http://www.w3.org/2000/svg">
<path d="M18.1997 44H30.1997C40.1997 44 44.1997 40 44.1997 30V18C44.1997 8 40.1997 4 30.1997 4H18.1997C8.19971 4 4.19971 8 4.19971 18V30C4.19971 40 8.19971 44 18.1997 44Z" stroke="#F92323" stroke-width="3" stroke-linecap="round" stroke-linejoin="round"/>
<path d="M34.1997 4.88V24.84C34.1997 28.78 31.3797 30.32 27.9197 28.24L25.2797 26.66C24.6797 26.3 23.7197 26.3 23.1197 26.66L20.4797 28.24C17.0197 30.3 14.1997 28.78 14.1997 24.84V4.88" stroke="#F92323" stroke-width="3" stroke-linecap="round" stroke-linejoin="round"/>
<path d="M18.1997 44H30.1997C40.1997 44 44.1997 40 44.1997 30V18C44.1997 8 40.1997 4 30.1997 4H18.1997C8.19971 4 4.19971 8 4.19971 18V30C4.19971 40 8.19971 44 18.1997 44Z" stroke="#F92323" stroke-width="3" stroke-linecap="round" stroke-linejoin="round"/>
<path d="M34.1997 4.88V24.84C34.1997 28.78 31.3797 30.32 27.9197 28.24L25.2797 26.66C24.6797 26.3 23.7197 26.3 23.1197 26.66L20.4797 28.24C17.0197 30.3 14.1997 28.78 14.1997 24.84V4.88" stroke="#F92323" stroke-width="3" stroke-linecap="round" stroke-linejoin="round"/>
</svg>
