<svg width="205" height="19" viewBox="0 0 205 19" fill="none" xmlns="http://www.w3.org/2000/svg">
<path d="M16.9995 13.8659V16.2793C17.0004 16.5034 16.9545 16.7251 16.8648 16.9304C16.775 17.1357 16.6434 17.32 16.4783 17.4714C16.3132 17.6229 16.1183 17.7382 15.906 17.81C15.6938 17.8818 15.4689 17.9084 15.2457 17.8883C12.7702 17.6193 10.3923 16.7734 8.30312 15.4185C6.35937 14.1834 4.71141 12.5354 3.47627 10.5917C2.11669 8.49296 1.27059 6.1035 1.00653 3.61687C0.986426 3.39441 1.01286 3.1702 1.08416 2.95851C1.15546 2.74682 1.27005 2.5523 1.42065 2.38733C1.57124 2.22236 1.75454 2.09055 1.95886 2.0003C2.16319 1.91004 2.38407 1.86333 2.60744 1.86312H5.02086C5.41128 1.85927 5.78977 1.99753 6.0858 2.25211C6.38182 2.50668 6.57517 2.86022 6.62981 3.24681C6.73168 4.01916 6.92059 4.77751 7.19295 5.50739C7.30118 5.79533 7.32461 6.10826 7.26045 6.40911C7.19629 6.70996 7.04723 6.98611 6.83093 7.20483L5.80925 8.22652C6.95446 10.2406 8.62206 11.9082 10.6361 13.0534L11.6578 12.0317C11.8765 11.8154 12.1527 11.6663 12.4535 11.6022C12.7544 11.538 13.0673 11.5614 13.3552 11.6697C14.0851 11.942 14.8435 12.1309 15.6158 12.2328C16.0066 12.2879 16.3635 12.4848 16.6186 12.7859C16.8737 13.087 17.0093 13.4714 16.9995 13.8659Z" stroke="#171719" stroke-width="2" stroke-linecap="round" stroke-linejoin="round"/>
<path d="M16.9995 13.8659V16.2793C17.0004 16.5034 16.9545 16.7251 16.8648 16.9304C16.775 17.1357 16.6434 17.32 16.4783 17.4714C16.3132 17.6229 16.1183 17.7382 15.906 17.81C15.6938 17.8818 15.4689 17.9084 15.2457 17.8883C12.7702 17.6193 10.3923 16.7734 8.30312 15.4185C6.35937 14.1834 4.71141 12.5354 3.47627 10.5917C2.11669 8.49296 1.27059 6.1035 1.00653 3.61687C0.986426 3.39441 1.01286 3.1702 1.08416 2.95851C1.15546 2.74682 1.27005 2.5523 1.42065 2.38733C1.57124 2.22236 1.75454 2.09055 1.95886 2.0003C2.16319 1.91004 2.38407 1.86333 2.60744 1.86312H5.02086C5.41128 1.85927 5.78977 1.99753 6.0858 2.25211C6.38182 2.50668 6.57517 2.86022 6.62981 3.24681C6.73168 4.01916 6.92059 4.77751 7.19295 5.50739C7.30118 5.79533 7.32461 6.10826 7.26045 6.40911C7.19629 6.70996 7.04723 6.98611 6.83093 7.20483L5.80925 8.22652C6.95446 10.2406 8.62206 11.9082 10.6361 13.0534L11.6578 12.0317C11.8765 11.8154 12.1527 11.6663 12.4535 11.6022C12.7544 11.538 13.0673 11.5614 13.3552 11.6697C14.0851 11.942 14.8435 12.1309 15.6158 12.2328C16.0066 12.2879 16.3635 12.4848 16.6186 12.7859C16.8737 13.087 17.0093 13.4714 16.9995 13.8659Z" stroke="black" stroke-opacity="0.2" stroke-width="2" stroke-linecap="round" stroke-linejoin="round"/>
<path d="M40.486 13.5449V7.41291H41.662V13.5449H40.486ZM37.938 11.0389V9.93291H44.21V11.0389H37.938ZM49.1384 5.46691C50.0251 5.46691 50.7718 5.65824 51.3784 6.04091C51.9944 6.42357 52.4611 6.97891 52.7784 7.70691C53.0958 8.42557 53.2544 9.30757 53.2544 10.3529C53.2544 11.4636 53.0584 12.4016 52.6664 13.1669C52.2744 13.9322 51.7331 14.5109 51.0424 14.9029C50.3518 15.2949 49.5444 15.4909 48.6204 15.4909C48.1631 15.4909 47.7198 15.4442 47.2904 15.3509C46.8704 15.2576 46.5018 15.1129 46.1844 14.9169L46.7164 13.8249C46.9778 13.9929 47.2671 14.1142 47.5844 14.1889C47.9111 14.2542 48.2518 14.2869 48.6064 14.2869C49.5958 14.2869 50.3844 13.9789 50.9724 13.3629C51.5604 12.7376 51.8544 11.8136 51.8544 10.5909C51.8544 10.3949 51.8451 10.1616 51.8264 9.89091C51.8078 9.62024 51.7658 9.35424 51.7004 9.09291L52.1624 9.56891C52.0318 9.99824 51.8124 10.3622 51.5044 10.6609C51.2058 10.9502 50.8418 11.1696 50.4124 11.3189C49.9924 11.4589 49.5304 11.5289 49.0264 11.5289C48.3824 11.5289 47.8084 11.4076 47.3044 11.1649C46.8004 10.9222 46.4038 10.5816 46.1144 10.1429C45.8251 9.69491 45.6804 9.16757 45.6804 8.56091C45.6804 7.92624 45.8298 7.38024 46.1284 6.92291C46.4364 6.45624 46.8518 6.09691 47.3744 5.84491C47.9064 5.59291 48.4944 5.46691 49.1384 5.46691ZM49.1944 6.60091C48.7744 6.60091 48.4011 6.68024 48.0744 6.83891C47.7478 6.99757 47.4911 7.21691 47.3044 7.49691C47.1271 7.77691 47.0384 8.11291 47.0384 8.50491C47.0384 9.08357 47.2391 9.54557 47.6404 9.89091C48.0418 10.2269 48.5831 10.3949 49.2644 10.3949C49.7124 10.3949 50.1044 10.3109 50.4404 10.1429C50.7858 9.97491 51.0518 9.74624 51.2384 9.45691C51.4344 9.16757 51.5324 8.84557 51.5324 8.49091C51.5324 8.14557 51.4438 7.83291 51.2664 7.55291C51.0891 7.27291 50.8278 7.04424 50.4824 6.86691C50.1371 6.68957 49.7078 6.60091 49.1944 6.60091ZM56.3931 15.3789V6.13891L56.9951 6.79691H54.1811V5.57891H57.7791V15.3789H56.3931ZM67.7845 15.4909C66.9911 15.4909 66.3051 15.3742 65.7265 15.1409C65.1478 14.9076 64.6998 14.5762 64.3825 14.1469C64.0651 13.7082 63.9065 13.1949 63.9065 12.6069C63.9065 12.0282 64.0558 11.5382 64.3545 11.1369C64.6625 10.7262 65.1058 10.4182 65.6845 10.2129C66.2631 9.99824 66.9631 9.89091 67.7845 9.89091C68.6058 9.89091 69.3058 9.99824 69.8845 10.2129C70.4725 10.4182 70.9205 10.7262 71.2285 11.1369C71.5365 11.5476 71.6905 12.0376 71.6905 12.6069C71.6905 13.1949 71.5318 13.7082 71.2145 14.1469C70.8971 14.5762 70.4445 14.9076 69.8565 15.1409C69.2685 15.3742 68.5778 15.4909 67.7845 15.4909ZM67.7845 14.3569C68.5685 14.3569 69.1798 14.1982 69.6185 13.8809C70.0665 13.5542 70.2905 13.1156 70.2905 12.5649C70.2905 12.0236 70.0665 11.5989 69.6185 11.2909C69.1798 10.9736 68.5685 10.8149 67.7845 10.8149C67.0098 10.8149 66.4031 10.9736 65.9645 11.2909C65.5258 11.5989 65.3065 12.0236 65.3065 12.5649C65.3065 13.1156 65.5258 13.5542 65.9645 13.8809C66.4031 14.1982 67.0098 14.3569 67.7845 14.3569ZM67.7845 10.6469C67.0378 10.6469 66.4031 10.5489 65.8805 10.3529C65.3578 10.1476 64.9565 9.85824 64.6765 9.48491C64.3965 9.10224 64.2565 8.64957 64.2565 8.12691C64.2565 7.57624 64.4011 7.10491 64.6905 6.71291C64.9891 6.31157 65.4045 6.00357 65.9365 5.78891C66.4685 5.57424 67.0845 5.46691 67.7845 5.46691C68.4938 5.46691 69.1145 5.57424 69.6465 5.78891C70.1785 6.00357 70.5938 6.31157 70.8925 6.71291C71.1911 7.10491 71.3405 7.57624 71.3405 8.12691C71.3405 8.64957 71.2005 9.10224 70.9205 9.48491C70.6405 9.85824 70.2345 10.1476 69.7025 10.3529C69.1705 10.5489 68.5311 10.6469 67.7845 10.6469ZM67.7845 9.75091C68.4658 9.75091 68.9978 9.61091 69.3805 9.33091C69.7725 9.05091 69.9685 8.66824 69.9685 8.18291C69.9685 7.68824 69.7678 7.30091 69.3665 7.02091C68.9651 6.74091 68.4378 6.60091 67.7845 6.60091C67.1311 6.60091 66.6085 6.74091 66.2165 7.02091C65.8338 7.30091 65.6425 7.68824 65.6425 8.18291C65.6425 8.66824 65.8291 9.05091 66.2025 9.33091C66.5851 9.61091 67.1125 9.75091 67.7845 9.75091ZM76.9342 15.4909C76.1409 15.4909 75.4549 15.3742 74.8762 15.1409C74.2976 14.9076 73.8496 14.5762 73.5322 14.1469C73.2149 13.7082 73.0562 13.1949 73.0562 12.6069C73.0562 12.0282 73.2056 11.5382 73.5042 11.1369C73.8122 10.7262 74.2556 10.4182 74.8342 10.2129C75.4129 9.99824 76.1129 9.89091 76.9342 9.89091C77.7556 9.89091 78.4556 9.99824 79.0342 10.2129C79.6222 10.4182 80.0702 10.7262 80.3782 11.1369C80.6862 11.5476 80.8402 12.0376 80.8402 12.6069C80.8402 13.1949 80.6816 13.7082 80.3642 14.1469C80.0469 14.5762 79.5942 14.9076 79.0062 15.1409C78.4182 15.3742 77.7276 15.4909 76.9342 15.4909ZM76.9342 14.3569C77.7182 14.3569 78.3296 14.1982 78.7682 13.8809C79.2162 13.5542 79.4402 13.1156 79.4402 12.5649C79.4402 12.0236 79.2162 11.5989 78.7682 11.2909C78.3296 10.9736 77.7182 10.8149 76.9342 10.8149C76.1596 10.8149 75.5529 10.9736 75.1142 11.2909C74.6756 11.5989 74.4562 12.0236 74.4562 12.5649C74.4562 13.1156 74.6756 13.5542 75.1142 13.8809C75.5529 14.1982 76.1596 14.3569 76.9342 14.3569ZM76.9342 10.6469C76.1876 10.6469 75.5529 10.5489 75.0302 10.3529C74.5076 10.1476 74.1062 9.85824 73.8262 9.48491C73.5462 9.10224 73.4062 8.64957 73.4062 8.12691C73.4062 7.57624 73.5509 7.10491 73.8402 6.71291C74.1389 6.31157 74.5542 6.00357 75.0862 5.78891C75.6182 5.57424 76.2342 5.46691 76.9342 5.46691C77.6436 5.46691 78.2642 5.57424 78.7962 5.78891C79.3282 6.00357 79.7436 6.31157 80.0422 6.71291C80.3409 7.10491 80.4902 7.57624 80.4902 8.12691C80.4902 8.64957 80.3502 9.10224 80.0702 9.48491C79.7902 9.85824 79.3842 10.1476 78.8522 10.3529C78.3202 10.5489 77.6809 10.6469 76.9342 10.6469ZM76.9342 9.75091C77.6156 9.75091 78.1476 9.61091 78.5302 9.33091C78.9222 9.05091 79.1182 8.66824 79.1182 8.18291C79.1182 7.68824 78.9176 7.30091 78.5162 7.02091C78.1149 6.74091 77.5876 6.60091 76.9342 6.60091C76.2809 6.60091 75.7582 6.74091 75.3662 7.02091C74.9836 7.30091 74.7922 7.68824 74.7922 8.18291C74.7922 8.66824 74.9789 9.05091 75.3522 9.33091C75.7349 9.61091 76.2622 9.75091 76.9342 9.75091ZM85.44 5.46691C86.3267 5.46691 87.0733 5.65824 87.68 6.04091C88.296 6.42357 88.7627 6.97891 89.08 7.70691C89.3973 8.42557 89.556 9.30757 89.556 10.3529C89.556 11.4636 89.36 12.4016 88.968 13.1669C88.576 13.9322 88.0347 14.5109 87.344 14.9029C86.6533 15.2949 85.846 15.4909 84.922 15.4909C84.4647 15.4909 84.0213 15.4442 83.592 15.3509C83.172 15.2576 82.8033 15.1129 82.486 14.9169L83.018 13.8249C83.2793 13.9929 83.5687 14.1142 83.886 14.1889C84.2127 14.2542 84.5533 14.2869 84.908 14.2869C85.8973 14.2869 86.686 13.9789 87.274 13.3629C87.862 12.7376 88.156 11.8136 88.156 10.5909C88.156 10.3949 88.1467 10.1616 88.128 9.89091C88.1093 9.62024 88.0673 9.35424 88.002 9.09291L88.464 9.56891C88.3333 9.99824 88.114 10.3622 87.806 10.6609C87.5073 10.9502 87.1433 11.1696 86.714 11.3189C86.294 11.4589 85.832 11.5289 85.328 11.5289C84.684 11.5289 84.11 11.4076 83.606 11.1649C83.102 10.9222 82.7053 10.5816 82.416 10.1429C82.1267 9.69491 81.982 9.16757 81.982 8.56091C81.982 7.92624 82.1313 7.38024 82.43 6.92291C82.738 6.45624 83.1533 6.09691 83.676 5.84491C84.208 5.59291 84.796 5.46691 85.44 5.46691ZM85.496 6.60091C85.076 6.60091 84.7027 6.68024 84.376 6.83891C84.0493 6.99757 83.7927 7.21691 83.606 7.49691C83.4287 7.77691 83.34 8.11291 83.34 8.50491C83.34 9.08357 83.5407 9.54557 83.942 9.89091C84.3433 10.2269 84.8847 10.3949 85.566 10.3949C86.014 10.3949 86.406 10.3109 86.742 10.1429C87.0873 9.97491 87.3533 9.74624 87.54 9.45691C87.736 9.16757 87.834 8.84557 87.834 8.49091C87.834 8.14557 87.7453 7.83291 87.568 7.55291C87.3907 7.27291 87.1293 7.04424 86.784 6.86691C86.4387 6.68957 86.0093 6.60091 85.496 6.60091ZM94.2206 5.46691C95.1073 5.46691 95.854 5.65824 96.4606 6.04091C97.0766 6.42357 97.5433 6.97891 97.8606 7.70691C98.178 8.42557 98.3366 9.30757 98.3366 10.3529C98.3366 11.4636 98.1406 12.4016 97.7486 13.1669C97.3566 13.9322 96.8153 14.5109 96.1246 14.9029C95.434 15.2949 94.6266 15.4909 93.7026 15.4909C93.2453 15.4909 92.802 15.4442 92.3726 15.3509C91.9526 15.2576 91.584 15.1129 91.2666 14.9169L91.7986 13.8249C92.06 13.9929 92.3493 14.1142 92.6666 14.1889C92.9933 14.2542 93.334 14.2869 93.6886 14.2869C94.678 14.2869 95.4666 13.9789 96.0546 13.3629C96.6426 12.7376 96.9366 11.8136 96.9366 10.5909C96.9366 10.3949 96.9273 10.1616 96.9086 9.89091C96.89 9.62024 96.848 9.35424 96.7826 9.09291L97.2446 9.56891C97.114 9.99824 96.8946 10.3622 96.5866 10.6609C96.288 10.9502 95.924 11.1696 95.4946 11.3189C95.0746 11.4589 94.6126 11.5289 94.1086 11.5289C93.4646 11.5289 92.8906 11.4076 92.3866 11.1649C91.8826 10.9222 91.486 10.5816 91.1966 10.1429C90.9073 9.69491 90.7626 9.16757 90.7626 8.56091C90.7626 7.92624 90.912 7.38024 91.2106 6.92291C91.5186 6.45624 91.934 6.09691 92.4566 5.84491C92.9886 5.59291 93.5766 5.46691 94.2206 5.46691ZM94.2766 6.60091C93.8566 6.60091 93.4833 6.68024 93.1566 6.83891C92.83 6.99757 92.5733 7.21691 92.3866 7.49691C92.2093 7.77691 92.1206 8.11291 92.1206 8.50491C92.1206 9.08357 92.3213 9.54557 92.7226 9.89091C93.124 10.2269 93.6653 10.3949 94.3466 10.3949C94.7946 10.3949 95.1866 10.3109 95.5226 10.1429C95.868 9.97491 96.134 9.74624 96.3206 9.45691C96.5166 9.16757 96.6146 8.84557 96.6146 8.49091C96.6146 8.14557 96.526 7.83291 96.3486 7.55291C96.1713 7.27291 95.91 7.04424 95.5646 6.86691C95.2193 6.68957 94.79 6.60091 94.2766 6.60091ZM102.987 15.4909C102.297 15.4909 101.625 15.3836 100.971 15.1689C100.327 14.9542 99.7999 14.6649 99.3892 14.3009L100.033 13.1949C100.36 13.5029 100.785 13.7549 101.307 13.9509C101.83 14.1469 102.385 14.2449 102.973 14.2449C103.72 14.2449 104.294 14.0862 104.695 13.7689C105.097 13.4516 105.297 13.0269 105.297 12.4949C105.297 12.1309 105.209 11.8136 105.031 11.5429C104.854 11.2722 104.546 11.0669 104.107 10.9269C103.678 10.7776 103.085 10.7029 102.329 10.7029H100.103L100.621 5.57891H106.151V6.79691H101.139L101.867 6.11091L101.461 10.1569L100.733 9.48491H102.623C103.603 9.48491 104.392 9.61091 104.989 9.86291C105.587 10.1149 106.021 10.4649 106.291 10.9129C106.562 11.3516 106.697 11.8602 106.697 12.4389C106.697 12.9989 106.562 13.5122 106.291 13.9789C106.021 14.4362 105.61 14.8049 105.059 15.0849C104.518 15.3556 103.827 15.4909 102.987 15.4909ZM115.066 15.4909C114.375 15.4909 113.703 15.3836 113.05 15.1689C112.406 14.9542 111.879 14.6649 111.468 14.3009L112.112 13.1949C112.439 13.5029 112.863 13.7549 113.386 13.9509C113.909 14.1469 114.464 14.2449 115.052 14.2449C115.799 14.2449 116.373 14.0862 116.774 13.7689C117.175 13.4516 117.376 13.0269 117.376 12.4949C117.376 12.1309 117.287 11.8136 117.11 11.5429C116.933 11.2722 116.625 11.0669 116.186 10.9269C115.757 10.7776 115.164 10.7029 114.408 10.7029H112.182L112.7 5.57891H118.23V6.79691H113.218L113.946 6.11091L113.54 10.1569L112.812 9.48491H114.702C115.682 9.48491 116.471 9.61091 117.068 9.86291C117.665 10.1149 118.099 10.4649 118.37 10.9129C118.641 11.3516 118.776 11.8602 118.776 12.4389C118.776 12.9989 118.641 13.5122 118.37 13.9789C118.099 14.4362 117.689 14.8049 117.138 15.0849C116.597 15.3556 115.906 15.4909 115.066 15.4909ZM124.197 15.4909C123.329 15.4909 122.587 15.2996 121.971 14.9169C121.355 14.5342 120.884 13.9836 120.557 13.2649C120.24 12.5369 120.081 11.6502 120.081 10.6049C120.081 9.49424 120.277 8.55624 120.669 7.79091C121.061 7.02557 121.607 6.44691 122.307 6.05491C123.007 5.66291 123.81 5.46691 124.715 5.46691C125.182 5.46691 125.625 5.51357 126.045 5.60691C126.474 5.70024 126.843 5.84491 127.151 6.04091L126.619 7.13291C126.367 6.95557 126.078 6.83424 125.751 6.76891C125.434 6.70357 125.098 6.67091 124.743 6.67091C123.744 6.67091 122.951 6.98357 122.363 7.60891C121.775 8.22491 121.481 9.14424 121.481 10.3669C121.481 10.5629 121.49 10.7962 121.509 11.0669C121.528 11.3376 121.574 11.6036 121.649 11.8649L121.173 11.3889C121.313 10.9596 121.532 10.6002 121.831 10.3109C122.139 10.0122 122.503 9.79291 122.923 9.65291C123.352 9.50357 123.814 9.42891 124.309 9.42891C124.962 9.42891 125.541 9.55024 126.045 9.79291C126.549 10.0356 126.946 10.3809 127.235 10.8289C127.524 11.2676 127.669 11.7902 127.669 12.3969C127.669 13.0222 127.515 13.5682 127.207 14.0349C126.899 14.5016 126.484 14.8609 125.961 15.1129C125.438 15.3649 124.85 15.4909 124.197 15.4909ZM124.141 14.3569C124.57 14.3569 124.944 14.2776 125.261 14.1189C125.588 13.9602 125.844 13.7409 126.031 13.4609C126.218 13.1716 126.311 12.8356 126.311 12.4529C126.311 11.8742 126.11 11.4169 125.709 11.0809C125.308 10.7356 124.762 10.5629 124.071 10.5629C123.623 10.5629 123.231 10.6469 122.895 10.8149C122.559 10.9829 122.293 11.2116 122.097 11.5009C121.91 11.7809 121.817 12.1029 121.817 12.4669C121.817 12.8029 121.906 13.1156 122.083 13.4049C122.26 13.6849 122.522 13.9136 122.867 14.0909C123.212 14.2682 123.637 14.3569 124.141 14.3569ZM132.978 15.4909C132.11 15.4909 131.368 15.2996 130.752 14.9169C130.136 14.5342 129.664 13.9836 129.338 13.2649C129.02 12.5369 128.862 11.6502 128.862 10.6049C128.862 9.49424 129.058 8.55624 129.45 7.79091C129.842 7.02557 130.388 6.44691 131.088 6.05491C131.788 5.66291 132.59 5.46691 133.496 5.46691C133.962 5.46691 134.406 5.51357 134.826 5.60691C135.255 5.70024 135.624 5.84491 135.932 6.04091L135.4 7.13291C135.148 6.95557 134.858 6.83424 134.532 6.76891C134.214 6.70357 133.878 6.67091 133.524 6.67091C132.525 6.67091 131.732 6.98357 131.144 7.60891C130.556 8.22491 130.262 9.14424 130.262 10.3669C130.262 10.5629 130.271 10.7962 130.29 11.0669C130.308 11.3376 130.355 11.6036 130.43 11.8649L129.954 11.3889C130.094 10.9596 130.313 10.6002 130.612 10.3109C130.92 10.0122 131.284 9.79291 131.704 9.65291C132.133 9.50357 132.595 9.42891 133.09 9.42891C133.743 9.42891 134.322 9.55024 134.826 9.79291C135.33 10.0356 135.726 10.3809 136.016 10.8289C136.305 11.2676 136.45 11.7902 136.45 12.3969C136.45 13.0222 136.296 13.5682 135.988 14.0349C135.68 14.5016 135.264 14.8609 134.742 15.1129C134.219 15.3649 133.631 15.4909 132.978 15.4909ZM132.922 14.3569C133.351 14.3569 133.724 14.2776 134.042 14.1189C134.368 13.9602 134.625 13.7409 134.812 13.4609C134.998 13.1716 135.092 12.8356 135.092 12.4529C135.092 11.8742 134.891 11.4169 134.49 11.0809C134.088 10.7356 133.542 10.5629 132.852 10.5629C132.404 10.5629 132.012 10.6469 131.676 10.8149C131.34 10.9829 131.074 11.2116 130.878 11.5009C130.691 11.7809 130.598 12.1029 130.598 12.4669C130.598 12.8029 130.686 13.1156 130.864 13.4049C131.041 13.6849 131.302 13.9136 131.648 14.0909C131.993 14.2682 132.418 14.3569 132.922 14.3569ZM137.502 12.9709V11.9909L142.514 5.57891H144.026L139.056 11.9909L138.342 11.7669H146.168V12.9709H137.502ZM142.948 15.3789V12.9709L142.99 11.7669V9.63891H144.306V15.3789H142.948ZM150.298 15.4909C149.607 15.4909 148.935 15.3836 148.282 15.1689C147.638 14.9542 147.111 14.6649 146.7 14.3009L147.344 13.1949C147.671 13.5029 148.095 13.7549 148.618 13.9509C149.141 14.1469 149.696 14.2449 150.284 14.2449C151.031 14.2449 151.605 14.0862 152.006 13.7689C152.407 13.4516 152.608 13.0269 152.608 12.4949C152.608 12.1309 152.519 11.8136 152.342 11.5429C152.165 11.2722 151.857 11.0669 151.418 10.9269C150.989 10.7776 150.396 10.7029 149.64 10.7029H147.414L147.932 5.57891H153.462V6.79691H148.45L149.178 6.11091L148.772 10.1569L148.044 9.48491H149.934C150.914 9.48491 151.703 9.61091 152.3 9.86291C152.897 10.1149 153.331 10.4649 153.602 10.9129C153.873 11.3516 154.008 11.8602 154.008 12.4389C154.008 12.9989 153.873 13.5122 153.602 13.9789C153.331 14.4362 152.921 14.8049 152.37 15.0849C151.829 15.3556 151.138 15.4909 150.298 15.4909Z" fill="#171719"/>
<path d="M40.486 13.5449V7.41291H41.662V13.5449H40.486ZM37.938 11.0389V9.93291H44.21V11.0389H37.938ZM49.1384 5.46691C50.0251 5.46691 50.7718 5.65824 51.3784 6.04091C51.9944 6.42357 52.4611 6.97891 52.7784 7.70691C53.0958 8.42557 53.2544 9.30757 53.2544 10.3529C53.2544 11.4636 53.0584 12.4016 52.6664 13.1669C52.2744 13.9322 51.7331 14.5109 51.0424 14.9029C50.3518 15.2949 49.5444 15.4909 48.6204 15.4909C48.1631 15.4909 47.7198 15.4442 47.2904 15.3509C46.8704 15.2576 46.5018 15.1129 46.1844 14.9169L46.7164 13.8249C46.9778 13.9929 47.2671 14.1142 47.5844 14.1889C47.9111 14.2542 48.2518 14.2869 48.6064 14.2869C49.5958 14.2869 50.3844 13.9789 50.9724 13.3629C51.5604 12.7376 51.8544 11.8136 51.8544 10.5909C51.8544 10.3949 51.8451 10.1616 51.8264 9.89091C51.8078 9.62024 51.7658 9.35424 51.7004 9.09291L52.1624 9.56891C52.0318 9.99824 51.8124 10.3622 51.5044 10.6609C51.2058 10.9502 50.8418 11.1696 50.4124 11.3189C49.9924 11.4589 49.5304 11.5289 49.0264 11.5289C48.3824 11.5289 47.8084 11.4076 47.3044 11.1649C46.8004 10.9222 46.4038 10.5816 46.1144 10.1429C45.8251 9.69491 45.6804 9.16757 45.6804 8.56091C45.6804 7.92624 45.8298 7.38024 46.1284 6.92291C46.4364 6.45624 46.8518 6.09691 47.3744 5.84491C47.9064 5.59291 48.4944 5.46691 49.1384 5.46691ZM49.1944 6.60091C48.7744 6.60091 48.4011 6.68024 48.0744 6.83891C47.7478 6.99757 47.4911 7.21691 47.3044 7.49691C47.1271 7.77691 47.0384 8.11291 47.0384 8.50491C47.0384 9.08357 47.2391 9.54557 47.6404 9.89091C48.0418 10.2269 48.5831 10.3949 49.2644 10.3949C49.7124 10.3949 50.1044 10.3109 50.4404 10.1429C50.7858 9.97491 51.0518 9.74624 51.2384 9.45691C51.4344 9.16757 51.5324 8.84557 51.5324 8.49091C51.5324 8.14557 51.4438 7.83291 51.2664 7.55291C51.0891 7.27291 50.8278 7.04424 50.4824 6.86691C50.1371 6.68957 49.7078 6.60091 49.1944 6.60091ZM56.3931 15.3789V6.13891L56.9951 6.79691H54.1811V5.57891H57.7791V15.3789H56.3931ZM67.7845 15.4909C66.9911 15.4909 66.3051 15.3742 65.7265 15.1409C65.1478 14.9076 64.6998 14.5762 64.3825 14.1469C64.0651 13.7082 63.9065 13.1949 63.9065 12.6069C63.9065 12.0282 64.0558 11.5382 64.3545 11.1369C64.6625 10.7262 65.1058 10.4182 65.6845 10.2129C66.2631 9.99824 66.9631 9.89091 67.7845 9.89091C68.6058 9.89091 69.3058 9.99824 69.8845 10.2129C70.4725 10.4182 70.9205 10.7262 71.2285 11.1369C71.5365 11.5476 71.6905 12.0376 71.6905 12.6069C71.6905 13.1949 71.5318 13.7082 71.2145 14.1469C70.8971 14.5762 70.4445 14.9076 69.8565 15.1409C69.2685 15.3742 68.5778 15.4909 67.7845 15.4909ZM67.7845 14.3569C68.5685 14.3569 69.1798 14.1982 69.6185 13.8809C70.0665 13.5542 70.2905 13.1156 70.2905 12.5649C70.2905 12.0236 70.0665 11.5989 69.6185 11.2909C69.1798 10.9736 68.5685 10.8149 67.7845 10.8149C67.0098 10.8149 66.4031 10.9736 65.9645 11.2909C65.5258 11.5989 65.3065 12.0236 65.3065 12.5649C65.3065 13.1156 65.5258 13.5542 65.9645 13.8809C66.4031 14.1982 67.0098 14.3569 67.7845 14.3569ZM67.7845 10.6469C67.0378 10.6469 66.4031 10.5489 65.8805 10.3529C65.3578 10.1476 64.9565 9.85824 64.6765 9.48491C64.3965 9.10224 64.2565 8.64957 64.2565 8.12691C64.2565 7.57624 64.4011 7.10491 64.6905 6.71291C64.9891 6.31157 65.4045 6.00357 65.9365 5.78891C66.4685 5.57424 67.0845 5.46691 67.7845 5.46691C68.4938 5.46691 69.1145 5.57424 69.6465 5.78891C70.1785 6.00357 70.5938 6.31157 70.8925 6.71291C71.1911 7.10491 71.3405 7.57624 71.3405 8.12691C71.3405 8.64957 71.2005 9.10224 70.9205 9.48491C70.6405 9.85824 70.2345 10.1476 69.7025 10.3529C69.1705 10.5489 68.5311 10.6469 67.7845 10.6469ZM67.7845 9.75091C68.4658 9.75091 68.9978 9.61091 69.3805 9.33091C69.7725 9.05091 69.9685 8.66824 69.9685 8.18291C69.9685 7.68824 69.7678 7.30091 69.3665 7.02091C68.9651 6.74091 68.4378 6.60091 67.7845 6.60091C67.1311 6.60091 66.6085 6.74091 66.2165 7.02091C65.8338 7.30091 65.6425 7.68824 65.6425 8.18291C65.6425 8.66824 65.8291 9.05091 66.2025 9.33091C66.5851 9.61091 67.1125 9.75091 67.7845 9.75091ZM76.9342 15.4909C76.1409 15.4909 75.4549 15.3742 74.8762 15.1409C74.2976 14.9076 73.8496 14.5762 73.5322 14.1469C73.2149 13.7082 73.0562 13.1949 73.0562 12.6069C73.0562 12.0282 73.2056 11.5382 73.5042 11.1369C73.8122 10.7262 74.2556 10.4182 74.8342 10.2129C75.4129 9.99824 76.1129 9.89091 76.9342 9.89091C77.7556 9.89091 78.4556 9.99824 79.0342 10.2129C79.6222 10.4182 80.0702 10.7262 80.3782 11.1369C80.6862 11.5476 80.8402 12.0376 80.8402 12.6069C80.8402 13.1949 80.6816 13.7082 80.3642 14.1469C80.0469 14.5762 79.5942 14.9076 79.0062 15.1409C78.4182 15.3742 77.7276 15.4909 76.9342 15.4909ZM76.9342 14.3569C77.7182 14.3569 78.3296 14.1982 78.7682 13.8809C79.2162 13.5542 79.4402 13.1156 79.4402 12.5649C79.4402 12.0236 79.2162 11.5989 78.7682 11.2909C78.3296 10.9736 77.7182 10.8149 76.9342 10.8149C76.1596 10.8149 75.5529 10.9736 75.1142 11.2909C74.6756 11.5989 74.4562 12.0236 74.4562 12.5649C74.4562 13.1156 74.6756 13.5542 75.1142 13.8809C75.5529 14.1982 76.1596 14.3569 76.9342 14.3569ZM76.9342 10.6469C76.1876 10.6469 75.5529 10.5489 75.0302 10.3529C74.5076 10.1476 74.1062 9.85824 73.8262 9.48491C73.5462 9.10224 73.4062 8.64957 73.4062 8.12691C73.4062 7.57624 73.5509 7.10491 73.8402 6.71291C74.1389 6.31157 74.5542 6.00357 75.0862 5.78891C75.6182 5.57424 76.2342 5.46691 76.9342 5.46691C77.6436 5.46691 78.2642 5.57424 78.7962 5.78891C79.3282 6.00357 79.7436 6.31157 80.0422 6.71291C80.3409 7.10491 80.4902 7.57624 80.4902 8.12691C80.4902 8.64957 80.3502 9.10224 80.0702 9.48491C79.7902 9.85824 79.3842 10.1476 78.8522 10.3529C78.3202 10.5489 77.6809 10.6469 76.9342 10.6469ZM76.9342 9.75091C77.6156 9.75091 78.1476 9.61091 78.5302 9.33091C78.9222 9.05091 79.1182 8.66824 79.1182 8.18291C79.1182 7.68824 78.9176 7.30091 78.5162 7.02091C78.1149 6.74091 77.5876 6.60091 76.9342 6.60091C76.2809 6.60091 75.7582 6.74091 75.3662 7.02091C74.9836 7.30091 74.7922 7.68824 74.7922 8.18291C74.7922 8.66824 74.9789 9.05091 75.3522 9.33091C75.7349 9.61091 76.2622 9.75091 76.9342 9.75091ZM85.44 5.46691C86.3267 5.46691 87.0733 5.65824 87.68 6.04091C88.296 6.42357 88.7627 6.97891 89.08 7.70691C89.3973 8.42557 89.556 9.30757 89.556 10.3529C89.556 11.4636 89.36 12.4016 88.968 13.1669C88.576 13.9322 88.0347 14.5109 87.344 14.9029C86.6533 15.2949 85.846 15.4909 84.922 15.4909C84.4647 15.4909 84.0213 15.4442 83.592 15.3509C83.172 15.2576 82.8033 15.1129 82.486 14.9169L83.018 13.8249C83.2793 13.9929 83.5687 14.1142 83.886 14.1889C84.2127 14.2542 84.5533 14.2869 84.908 14.2869C85.8973 14.2869 86.686 13.9789 87.274 13.3629C87.862 12.7376 88.156 11.8136 88.156 10.5909C88.156 10.3949 88.1467 10.1616 88.128 9.89091C88.1093 9.62024 88.0673 9.35424 88.002 9.09291L88.464 9.56891C88.3333 9.99824 88.114 10.3622 87.806 10.6609C87.5073 10.9502 87.1433 11.1696 86.714 11.3189C86.294 11.4589 85.832 11.5289 85.328 11.5289C84.684 11.5289 84.11 11.4076 83.606 11.1649C83.102 10.9222 82.7053 10.5816 82.416 10.1429C82.1267 9.69491 81.982 9.16757 81.982 8.56091C81.982 7.92624 82.1313 7.38024 82.43 6.92291C82.738 6.45624 83.1533 6.09691 83.676 5.84491C84.208 5.59291 84.796 5.46691 85.44 5.46691ZM85.496 6.60091C85.076 6.60091 84.7027 6.68024 84.376 6.83891C84.0493 6.99757 83.7927 7.21691 83.606 7.49691C83.4287 7.77691 83.34 8.11291 83.34 8.50491C83.34 9.08357 83.5407 9.54557 83.942 9.89091C84.3433 10.2269 84.8847 10.3949 85.566 10.3949C86.014 10.3949 86.406 10.3109 86.742 10.1429C87.0873 9.97491 87.3533 9.74624 87.54 9.45691C87.736 9.16757 87.834 8.84557 87.834 8.49091C87.834 8.14557 87.7453 7.83291 87.568 7.55291C87.3907 7.27291 87.1293 7.04424 86.784 6.86691C86.4387 6.68957 86.0093 6.60091 85.496 6.60091ZM94.2206 5.46691C95.1073 5.46691 95.854 5.65824 96.4606 6.04091C97.0766 6.42357 97.5433 6.97891 97.8606 7.70691C98.178 8.42557 98.3366 9.30757 98.3366 10.3529C98.3366 11.4636 98.1406 12.4016 97.7486 13.1669C97.3566 13.9322 96.8153 14.5109 96.1246 14.9029C95.434 15.2949 94.6266 15.4909 93.7026 15.4909C93.2453 15.4909 92.802 15.4442 92.3726 15.3509C91.9526 15.2576 91.584 15.1129 91.2666 14.9169L91.7986 13.8249C92.06 13.9929 92.3493 14.1142 92.6666 14.1889C92.9933 14.2542 93.334 14.2869 93.6886 14.2869C94.678 14.2869 95.4666 13.9789 96.0546 13.3629C96.6426 12.7376 96.9366 11.8136 96.9366 10.5909C96.9366 10.3949 96.9273 10.1616 96.9086 9.89091C96.89 9.62024 96.848 9.35424 96.7826 9.09291L97.2446 9.56891C97.114 9.99824 96.8946 10.3622 96.5866 10.6609C96.288 10.9502 95.924 11.1696 95.4946 11.3189C95.0746 11.4589 94.6126 11.5289 94.1086 11.5289C93.4646 11.5289 92.8906 11.4076 92.3866 11.1649C91.8826 10.9222 91.486 10.5816 91.1966 10.1429C90.9073 9.69491 90.7626 9.16757 90.7626 8.56091C90.7626 7.92624 90.912 7.38024 91.2106 6.92291C91.5186 6.45624 91.934 6.09691 92.4566 5.84491C92.9886 5.59291 93.5766 5.46691 94.2206 5.46691ZM94.2766 6.60091C93.8566 6.60091 93.4833 6.68024 93.1566 6.83891C92.83 6.99757 92.5733 7.21691 92.3866 7.49691C92.2093 7.77691 92.1206 8.11291 92.1206 8.50491C92.1206 9.08357 92.3213 9.54557 92.7226 9.89091C93.124 10.2269 93.6653 10.3949 94.3466 10.3949C94.7946 10.3949 95.1866 10.3109 95.5226 10.1429C95.868 9.97491 96.134 9.74624 96.3206 9.45691C96.5166 9.16757 96.6146 8.84557 96.6146 8.49091C96.6146 8.14557 96.526 7.83291 96.3486 7.55291C96.1713 7.27291 95.91 7.04424 95.5646 6.86691C95.2193 6.68957 94.79 6.60091 94.2766 6.60091ZM102.987 15.4909C102.297 15.4909 101.625 15.3836 100.971 15.1689C100.327 14.9542 99.7999 14.6649 99.3892 14.3009L100.033 13.1949C100.36 13.5029 100.785 13.7549 101.307 13.9509C101.83 14.1469 102.385 14.2449 102.973 14.2449C103.72 14.2449 104.294 14.0862 104.695 13.7689C105.097 13.4516 105.297 13.0269 105.297 12.4949C105.297 12.1309 105.209 11.8136 105.031 11.5429C104.854 11.2722 104.546 11.0669 104.107 10.9269C103.678 10.7776 103.085 10.7029 102.329 10.7029H100.103L100.621 5.57891H106.151V6.79691H101.139L101.867 6.11091L101.461 10.1569L100.733 9.48491H102.623C103.603 9.48491 104.392 9.61091 104.989 9.86291C105.587 10.1149 106.021 10.4649 106.291 10.9129C106.562 11.3516 106.697 11.8602 106.697 12.4389C106.697 12.9989 106.562 13.5122 106.291 13.9789C106.021 14.4362 105.61 14.8049 105.059 15.0849C104.518 15.3556 103.827 15.4909 102.987 15.4909ZM115.066 15.4909C114.375 15.4909 113.703 15.3836 113.05 15.1689C112.406 14.9542 111.879 14.6649 111.468 14.3009L112.112 13.1949C112.439 13.5029 112.863 13.7549 113.386 13.9509C113.909 14.1469 114.464 14.2449 115.052 14.2449C115.799 14.2449 116.373 14.0862 116.774 13.7689C117.175 13.4516 117.376 13.0269 117.376 12.4949C117.376 12.1309 117.287 11.8136 117.11 11.5429C116.933 11.2722 116.625 11.0669 116.186 10.9269C115.757 10.7776 115.164 10.7029 114.408 10.7029H112.182L112.7 5.57891H118.23V6.79691H113.218L113.946 6.11091L113.54 10.1569L112.812 9.48491H114.702C115.682 9.48491 116.471 9.61091 117.068 9.86291C117.665 10.1149 118.099 10.4649 118.37 10.9129C118.641 11.3516 118.776 11.8602 118.776 12.4389C118.776 12.9989 118.641 13.5122 118.37 13.9789C118.099 14.4362 117.689 14.8049 117.138 15.0849C116.597 15.3556 115.906 15.4909 115.066 15.4909ZM124.197 15.4909C123.329 15.4909 122.587 15.2996 121.971 14.9169C121.355 14.5342 120.884 13.9836 120.557 13.2649C120.24 12.5369 120.081 11.6502 120.081 10.6049C120.081 9.49424 120.277 8.55624 120.669 7.79091C121.061 7.02557 121.607 6.44691 122.307 6.05491C123.007 5.66291 123.81 5.46691 124.715 5.46691C125.182 5.46691 125.625 5.51357 126.045 5.60691C126.474 5.70024 126.843 5.84491 127.151 6.04091L126.619 7.13291C126.367 6.95557 126.078 6.83424 125.751 6.76891C125.434 6.70357 125.098 6.67091 124.743 6.67091C123.744 6.67091 122.951 6.98357 122.363 7.60891C121.775 8.22491 121.481 9.14424 121.481 10.3669C121.481 10.5629 121.49 10.7962 121.509 11.0669C121.528 11.3376 121.574 11.6036 121.649 11.8649L121.173 11.3889C121.313 10.9596 121.532 10.6002 121.831 10.3109C122.139 10.0122 122.503 9.79291 122.923 9.65291C123.352 9.50357 123.814 9.42891 124.309 9.42891C124.962 9.42891 125.541 9.55024 126.045 9.79291C126.549 10.0356 126.946 10.3809 127.235 10.8289C127.524 11.2676 127.669 11.7902 127.669 12.3969C127.669 13.0222 127.515 13.5682 127.207 14.0349C126.899 14.5016 126.484 14.8609 125.961 15.1129C125.438 15.3649 124.85 15.4909 124.197 15.4909ZM124.141 14.3569C124.57 14.3569 124.944 14.2776 125.261 14.1189C125.588 13.9602 125.844 13.7409 126.031 13.4609C126.218 13.1716 126.311 12.8356 126.311 12.4529C126.311 11.8742 126.11 11.4169 125.709 11.0809C125.308 10.7356 124.762 10.5629 124.071 10.5629C123.623 10.5629 123.231 10.6469 122.895 10.8149C122.559 10.9829 122.293 11.2116 122.097 11.5009C121.91 11.7809 121.817 12.1029 121.817 12.4669C121.817 12.8029 121.906 13.1156 122.083 13.4049C122.26 13.6849 122.522 13.9136 122.867 14.0909C123.212 14.2682 123.637 14.3569 124.141 14.3569ZM132.978 15.4909C132.11 15.4909 131.368 15.2996 130.752 14.9169C130.136 14.5342 129.664 13.9836 129.338 13.2649C129.02 12.5369 128.862 11.6502 128.862 10.6049C128.862 9.49424 129.058 8.55624 129.45 7.79091C129.842 7.02557 130.388 6.44691 131.088 6.05491C131.788 5.66291 132.59 5.46691 133.496 5.46691C133.962 5.46691 134.406 5.51357 134.826 5.60691C135.255 5.70024 135.624 5.84491 135.932 6.04091L135.4 7.13291C135.148 6.95557 134.858 6.83424 134.532 6.76891C134.214 6.70357 133.878 6.67091 133.524 6.67091C132.525 6.67091 131.732 6.98357 131.144 7.60891C130.556 8.22491 130.262 9.14424 130.262 10.3669C130.262 10.5629 130.271 10.7962 130.29 11.0669C130.308 11.3376 130.355 11.6036 130.43 11.8649L129.954 11.3889C130.094 10.9596 130.313 10.6002 130.612 10.3109C130.92 10.0122 131.284 9.79291 131.704 9.65291C132.133 9.50357 132.595 9.42891 133.09 9.42891C133.743 9.42891 134.322 9.55024 134.826 9.79291C135.33 10.0356 135.726 10.3809 136.016 10.8289C136.305 11.2676 136.45 11.7902 136.45 12.3969C136.45 13.0222 136.296 13.5682 135.988 14.0349C135.68 14.5016 135.264 14.8609 134.742 15.1129C134.219 15.3649 133.631 15.4909 132.978 15.4909ZM132.922 14.3569C133.351 14.3569 133.724 14.2776 134.042 14.1189C134.368 13.9602 134.625 13.7409 134.812 13.4609C134.998 13.1716 135.092 12.8356 135.092 12.4529C135.092 11.8742 134.891 11.4169 134.49 11.0809C134.088 10.7356 133.542 10.5629 132.852 10.5629C132.404 10.5629 132.012 10.6469 131.676 10.8149C131.34 10.9829 131.074 11.2116 130.878 11.5009C130.691 11.7809 130.598 12.1029 130.598 12.4669C130.598 12.8029 130.686 13.1156 130.864 13.4049C131.041 13.6849 131.302 13.9136 131.648 14.0909C131.993 14.2682 132.418 14.3569 132.922 14.3569ZM137.502 12.9709V11.9909L142.514 5.57891H144.026L139.056 11.9909L138.342 11.7669H146.168V12.9709H137.502ZM142.948 15.3789V12.9709L142.99 11.7669V9.63891H144.306V15.3789H142.948ZM150.298 15.4909C149.607 15.4909 148.935 15.3836 148.282 15.1689C147.638 14.9542 147.111 14.6649 146.7 14.3009L147.344 13.1949C147.671 13.5029 148.095 13.7549 148.618 13.9509C149.141 14.1469 149.696 14.2449 150.284 14.2449C151.031 14.2449 151.605 14.0862 152.006 13.7689C152.407 13.4516 152.608 13.0269 152.608 12.4949C152.608 12.1309 152.519 11.8136 152.342 11.5429C152.165 11.2722 151.857 11.0669 151.418 10.9269C150.989 10.7776 150.396 10.7029 149.64 10.7029H147.414L147.932 5.57891H153.462V6.79691H148.45L149.178 6.11091L148.772 10.1569L148.044 9.48491H149.934C150.914 9.48491 151.703 9.61091 152.3 9.86291C152.897 10.1149 153.331 10.4649 153.602 10.9129C153.873 11.3516 154.008 11.8602 154.008 12.4389C154.008 12.9989 153.873 13.5122 153.602 13.9789C153.331 14.4362 152.921 14.8049 152.37 15.0849C151.829 15.3556 151.138 15.4909 150.298 15.4909Z" fill="black" fill-opacity="0.2"/>
</svg>
