<svg width="205" height="18" viewBox="0 0 205 18" fill="none" xmlns="http://www.w3.org/2000/svg">
<path d="M2.6 2.47888H15.4C16.28 2.47888 17 3.19888 17 4.07888V13.6789C17 14.5589 16.28 15.2789 15.4 15.2789H2.6C1.72 15.2789 1 14.5589 1 13.6789V4.07888C1 3.19888 1.72 2.47888 2.6 2.47888Z" stroke="#171719" stroke-width="2" stroke-linecap="round" stroke-linejoin="round"/>
<path d="M2.6 2.47888H15.4C16.28 2.47888 17 3.19888 17 4.07888V13.6789C17 14.5589 16.28 15.2789 15.4 15.2789H2.6C1.72 15.2789 1 14.5589 1 13.6789V4.07888C1 3.19888 1.72 2.47888 2.6 2.47888Z" stroke="black" stroke-opacity="0.2" stroke-width="2" stroke-linecap="round" stroke-linejoin="round"/>
<path d="M17 4.07886L9 9.67886L1 4.07886" stroke="#171719" stroke-width="2" stroke-linecap="round" stroke-linejoin="round"/>
<path d="M17 4.07886L9 9.67886L1 4.07886" stroke="black" stroke-opacity="0.2" stroke-width="2" stroke-linecap="round" stroke-linejoin="round"/>
<path d="M40.402 14.4629C39.786 14.4629 39.198 14.3789 38.638 14.2109C38.0873 14.0429 37.6533 13.8376 37.336 13.5949L37.896 12.5309C38.2133 12.7456 38.6053 12.9276 39.072 13.0769C39.5387 13.2262 40.0147 13.3009 40.5 13.3009C41.1253 13.3009 41.5733 13.2122 41.844 13.0349C42.124 12.8576 42.264 12.6102 42.264 12.2929C42.264 12.0596 42.18 11.8776 42.012 11.7469C41.844 11.6162 41.62 11.5182 41.34 11.4529C41.0693 11.3876 40.766 11.3316 40.43 11.2849C40.094 11.2289 39.758 11.1636 39.422 11.0889C39.086 11.0049 38.778 10.8929 38.498 10.7529C38.218 10.6036 37.994 10.4029 37.826 10.1509C37.658 9.88957 37.574 9.54424 37.574 9.11491C37.574 8.66691 37.7 8.27491 37.952 7.93891C38.204 7.60291 38.5587 7.34624 39.016 7.16891C39.4827 6.98224 40.0333 6.88891 40.668 6.88891C41.1533 6.88891 41.6433 6.94957 42.138 7.07091C42.642 7.18291 43.0527 7.34624 43.37 7.56091L42.796 8.62491C42.46 8.40091 42.11 8.24691 41.746 8.16291C41.382 8.07891 41.018 8.03691 40.654 8.03691C40.066 8.03691 39.6273 8.13491 39.338 8.33091C39.0487 8.51757 38.904 8.76024 38.904 9.05891C38.904 9.31091 38.988 9.50691 39.156 9.64691C39.3333 9.77757 39.5573 9.88024 39.828 9.95491C40.108 10.0296 40.416 10.0949 40.752 10.1509C41.088 10.1976 41.424 10.2629 41.76 10.3469C42.096 10.4216 42.3993 10.5289 42.67 10.6689C42.95 10.8089 43.174 11.0049 43.342 11.2569C43.5193 11.5089 43.608 11.8449 43.608 12.2649C43.608 12.7129 43.4773 13.1002 43.216 13.4269C42.9547 13.7536 42.586 14.0102 42.11 14.1969C41.634 14.3742 41.0647 14.4629 40.402 14.4629ZM48.5497 14.4629C47.915 14.4629 47.355 14.3462 46.8697 14.1129C46.3937 13.8796 46.0203 13.5249 45.7497 13.0489C45.4883 12.5636 45.3577 11.9569 45.3577 11.2289V6.95891H46.7017V11.0749C46.7017 11.8029 46.8743 12.3489 47.2197 12.7129C47.5743 13.0769 48.069 13.2589 48.7037 13.2589C49.1703 13.2589 49.5763 13.1656 49.9217 12.9789C50.267 12.7829 50.533 12.5029 50.7197 12.1389C50.9063 11.7656 50.9997 11.3176 50.9997 10.7949V6.95891H52.3437V14.3789H51.0697V12.3769L51.2797 12.9089C51.037 13.4036 50.673 13.7862 50.1877 14.0569C49.7023 14.3276 49.1563 14.4629 48.5497 14.4629ZM58.9763 14.4629C58.3603 14.4629 57.7956 14.3229 57.2823 14.0429C56.7783 13.7536 56.3723 13.3289 56.0643 12.7689C55.7656 12.2089 55.6163 11.5089 55.6163 10.6689C55.6163 9.82891 55.7609 9.12891 56.0503 8.56891C56.3489 8.00891 56.7503 7.58891 57.2543 7.30891C57.7676 7.02891 58.3416 6.88891 58.9763 6.88891C59.7043 6.88891 60.3483 7.04757 60.9083 7.36491C61.4683 7.68224 61.9116 8.12557 62.2383 8.69491C62.5649 9.25491 62.7283 9.91291 62.7283 10.6689C62.7283 11.4249 62.5649 12.0876 62.2383 12.6569C61.9116 13.2262 61.4683 13.6696 60.9083 13.9869C60.3483 14.3042 59.7043 14.4629 58.9763 14.4629ZM55.0423 17.0949V6.95891H56.3303V8.96091L56.2463 10.6829L56.3863 12.4049V17.0949H55.0423ZM58.8643 13.2869C59.3403 13.2869 59.7649 13.1796 60.1383 12.9649C60.5209 12.7502 60.8196 12.4469 61.0343 12.0549C61.2583 11.6536 61.3703 11.1916 61.3703 10.6689C61.3703 10.1369 61.2583 9.67957 61.0343 9.29691C60.8196 8.90491 60.5209 8.60157 60.1383 8.38691C59.7649 8.17224 59.3403 8.06491 58.8643 8.06491C58.3976 8.06491 57.9729 8.17224 57.5903 8.38691C57.2169 8.60157 56.9183 8.90491 56.6943 9.29691C56.4796 9.67957 56.3723 10.1369 56.3723 10.6689C56.3723 11.1916 56.4796 11.6536 56.6943 12.0549C56.9183 12.4469 57.2169 12.7502 57.5903 12.9649C57.9729 13.1796 58.3976 13.2869 58.8643 13.2869ZM68.6593 14.4629C68.0433 14.4629 67.4786 14.3229 66.9653 14.0429C66.4613 13.7536 66.0553 13.3289 65.7473 12.7689C65.4486 12.2089 65.2993 11.5089 65.2993 10.6689C65.2993 9.82891 65.4439 9.12891 65.7333 8.56891C66.0319 8.00891 66.4333 7.58891 66.9373 7.30891C67.4506 7.02891 68.0246 6.88891 68.6593 6.88891C69.3873 6.88891 70.0313 7.04757 70.5913 7.36491C71.1513 7.68224 71.5946 8.12557 71.9213 8.69491C72.2479 9.25491 72.4113 9.91291 72.4113 10.6689C72.4113 11.4249 72.2479 12.0876 71.9213 12.6569C71.5946 13.2262 71.1513 13.6696 70.5913 13.9869C70.0313 14.3042 69.3873 14.4629 68.6593 14.4629ZM64.7253 17.0949V6.95891H66.0133V8.96091L65.9293 10.6829L66.0693 12.4049V17.0949H64.7253ZM68.5473 13.2869C69.0233 13.2869 69.4479 13.1796 69.8213 12.9649C70.2039 12.7502 70.5026 12.4469 70.7173 12.0549C70.9413 11.6536 71.0533 11.1916 71.0533 10.6689C71.0533 10.1369 70.9413 9.67957 70.7173 9.29691C70.5026 8.90491 70.2039 8.60157 69.8213 8.38691C69.4479 8.17224 69.0233 8.06491 68.5473 8.06491C68.0806 8.06491 67.6559 8.17224 67.2733 8.38691C66.8999 8.60157 66.6013 8.90491 66.3773 9.29691C66.1626 9.67957 66.0553 10.1369 66.0553 10.6689C66.0553 11.1916 66.1626 11.6536 66.3773 12.0549C66.6013 12.4469 66.8999 12.7502 67.2733 12.9649C67.6559 13.1796 68.0806 13.2869 68.5473 13.2869ZM77.5862 14.4629C76.8396 14.4629 76.1769 14.2996 75.5982 13.9729C75.0196 13.6462 74.5622 13.1982 74.2262 12.6289C73.8902 12.0502 73.7222 11.3969 73.7222 10.6689C73.7222 9.93157 73.8902 9.27824 74.2262 8.70891C74.5622 8.13957 75.0196 7.69624 75.5982 7.37891C76.1769 7.05224 76.8396 6.88891 77.5862 6.88891C78.3236 6.88891 78.9816 7.05224 79.5602 7.37891C80.1482 7.69624 80.6056 8.13957 80.9322 8.70891C81.2682 9.26891 81.4362 9.92224 81.4362 10.6689C81.4362 11.4062 81.2682 12.0596 80.9322 12.6289C80.6056 13.1982 80.1482 13.6462 79.5602 13.9729C78.9816 14.2996 78.3236 14.4629 77.5862 14.4629ZM77.5862 13.2869C78.0622 13.2869 78.4869 13.1796 78.8602 12.9649C79.2429 12.7502 79.5416 12.4469 79.7562 12.0549C79.9709 11.6536 80.0782 11.1916 80.0782 10.6689C80.0782 10.1369 79.9709 9.67957 79.7562 9.29691C79.5416 8.90491 79.2429 8.60157 78.8602 8.38691C78.4869 8.17224 78.0622 8.06491 77.5862 8.06491C77.1102 8.06491 76.6856 8.17224 76.3122 8.38691C75.9389 8.60157 75.6402 8.90491 75.4162 9.29691C75.1922 9.67957 75.0802 10.1369 75.0802 10.6689C75.0802 11.1916 75.1922 11.6536 75.4162 12.0549C75.6402 12.4469 75.9389 12.7502 76.3122 12.9649C76.6856 13.1796 77.1102 13.2869 77.5862 13.2869ZM83.4349 14.3789V6.95891H84.7229V8.97491L84.5969 8.47091C84.8023 7.95757 85.1476 7.56557 85.6329 7.29491C86.1183 7.02424 86.7156 6.88891 87.4249 6.88891V8.19091C87.3689 8.18157 87.3129 8.17691 87.2569 8.17691C87.2103 8.17691 87.1636 8.17691 87.1169 8.17691C86.3983 8.17691 85.8289 8.39157 85.4089 8.82091C84.9889 9.25024 84.7789 9.87091 84.7789 10.6829V14.3789H83.4349ZM92.0702 14.4629C91.3235 14.4629 90.7449 14.2622 90.3342 13.8609C89.9235 13.4596 89.7182 12.8856 89.7182 12.1389V5.33491H91.0622V12.0829C91.0622 12.4842 91.1602 12.7922 91.3562 13.0069C91.5615 13.2216 91.8509 13.3289 92.2242 13.3289C92.6442 13.3289 92.9942 13.2122 93.2742 12.9789L93.6942 13.9449C93.4889 14.1222 93.2415 14.2529 92.9522 14.3369C92.6722 14.4209 92.3782 14.4629 92.0702 14.4629ZM88.4582 8.06491V6.95891H93.1902V8.06491H88.4582ZM101.409 17.2069C100.438 17.2069 99.5517 17.0482 98.7491 16.7309C97.9464 16.4136 97.2557 15.9702 96.6771 15.4009C96.0984 14.8316 95.6504 14.1596 95.3331 13.3849C95.0157 12.6009 94.8571 11.7469 94.8571 10.8229C94.8571 9.89891 95.0157 9.04957 95.3331 8.27491C95.6504 7.50024 96.0984 6.82824 96.6771 6.25891C97.2651 5.68957 97.9651 5.25091 98.7771 4.94291C99.5891 4.63491 100.485 4.48091 101.465 4.48091C102.426 4.48091 103.304 4.63024 104.097 4.92891C104.89 5.22757 105.576 5.65224 106.155 6.20291C106.743 6.74424 107.196 7.39291 107.513 8.14891C107.83 8.89557 107.989 9.72157 107.989 10.6269C107.989 11.4202 107.891 12.1016 107.695 12.6709C107.499 13.2402 107.214 13.6836 106.841 14.0009C106.477 14.3089 106.029 14.4629 105.497 14.4629C104.974 14.4629 104.554 14.3042 104.237 13.9869C103.929 13.6696 103.775 13.2169 103.775 12.6289V11.6769L103.845 10.8229L103.719 9.21291V7.35091H104.937V12.3909C104.937 12.7642 105.012 13.0256 105.161 13.1749C105.32 13.3242 105.511 13.3989 105.735 13.3989C106.006 13.3989 106.239 13.2916 106.435 13.0769C106.64 12.8622 106.79 12.5496 106.883 12.1389C106.986 11.7189 107.037 11.2196 107.037 10.6409C107.037 9.85691 106.902 9.14757 106.631 8.51291C106.37 7.86891 105.987 7.31357 105.483 6.84691C104.988 6.38024 104.4 6.02557 103.719 5.78291C103.047 5.53091 102.296 5.40491 101.465 5.40491C100.634 5.40491 99.8737 5.54024 99.1831 5.81091C98.5017 6.07224 97.9137 6.44557 97.4191 6.93091C96.9244 7.40691 96.5417 7.97624 96.2711 8.63891C96.0097 9.30157 95.8791 10.0296 95.8791 10.8229C95.8791 11.6256 96.0097 12.3629 96.2711 13.0349C96.5324 13.6976 96.9057 14.2669 97.3911 14.7429C97.8857 15.2282 98.4691 15.6016 99.1411 15.8629C99.8224 16.1336 100.578 16.2689 101.409 16.2689C101.838 16.2689 102.291 16.2176 102.767 16.1149C103.243 16.0216 103.691 15.8676 104.111 15.6529L104.419 16.5489C103.99 16.7636 103.504 16.9269 102.963 17.0389C102.422 17.1509 101.904 17.2069 101.409 17.2069ZM101.157 14.4629C100.494 14.4629 99.9064 14.3089 99.3931 14.0009C98.8797 13.6836 98.4737 13.2542 98.1751 12.7129C97.8764 12.1716 97.7271 11.5556 97.7271 10.8649C97.7271 10.1649 97.8764 9.54891 98.1751 9.01691C98.4737 8.47557 98.8797 8.05557 99.3931 7.75691C99.9064 7.44891 100.494 7.29491 101.157 7.29491C101.801 7.29491 102.366 7.43491 102.851 7.71491C103.336 7.98557 103.714 8.38691 103.985 8.91891C104.265 9.45091 104.405 10.0996 104.405 10.8649C104.405 11.6302 104.27 12.2789 103.999 12.8109C103.728 13.3429 103.35 13.7536 102.865 14.0429C102.38 14.3229 101.81 14.4629 101.157 14.4629ZM101.353 13.3709C101.81 13.3709 102.216 13.2729 102.571 13.0769C102.935 12.8716 103.22 12.5822 103.425 12.2089C103.64 11.8262 103.747 11.3782 103.747 10.8649C103.747 10.3422 103.64 9.89424 103.425 9.52091C103.22 9.14757 102.935 8.86291 102.571 8.66691C102.216 8.47091 101.81 8.37291 101.353 8.37291C100.886 8.37291 100.471 8.47557 100.107 8.68091C99.7524 8.87691 99.4724 9.16157 99.2671 9.53491C99.0711 9.90824 98.9731 10.3516 98.9731 10.8649C98.9731 11.3689 99.0711 11.8076 99.2671 12.1809C99.4724 12.5542 99.7524 12.8482 100.107 13.0629C100.471 13.2682 100.886 13.3709 101.353 13.3709ZM114.012 14.4629C113.377 14.4629 112.803 14.3229 112.29 14.0429C111.786 13.7536 111.384 13.3289 111.086 12.7689C110.796 12.2089 110.652 11.5089 110.652 10.6689C110.652 9.82891 110.801 9.12891 111.1 8.56891C111.408 8.00891 111.814 7.58891 112.318 7.30891C112.831 7.02891 113.396 6.88891 114.012 6.88891C114.74 6.88891 115.384 7.04757 115.944 7.36491C116.504 7.68224 116.947 8.12557 117.274 8.69491C117.6 9.25491 117.764 9.91291 117.764 10.6689C117.764 11.4249 117.6 12.0876 117.274 12.6569C116.947 13.2262 116.504 13.6696 115.944 13.9869C115.384 14.3042 114.74 14.4629 114.012 14.4629ZM110.078 14.3789V3.99091H111.422V8.93291L111.282 10.6549L111.366 12.3769V14.3789H110.078ZM113.9 13.2869C114.376 13.2869 114.8 13.1796 115.174 12.9649C115.556 12.7502 115.855 12.4469 116.07 12.0549C116.294 11.6536 116.406 11.1916 116.406 10.6689C116.406 10.1369 116.294 9.67957 116.07 9.29691C115.855 8.90491 115.556 8.60157 115.174 8.38691C114.8 8.17224 114.376 8.06491 113.9 8.06491C113.433 8.06491 113.008 8.17224 112.626 8.38691C112.252 8.60157 111.954 8.90491 111.73 9.29691C111.515 9.67957 111.408 10.1369 111.408 10.6689C111.408 11.1916 111.515 11.6536 111.73 12.0549C111.954 12.4469 112.252 12.7502 112.626 12.9649C113.008 13.1796 113.433 13.2869 113.9 13.2869ZM124.298 14.3789V12.8109L124.228 12.5169V9.84291C124.228 9.27357 124.06 8.83491 123.724 8.52691C123.398 8.20957 122.903 8.05091 122.24 8.05091C121.802 8.05091 121.372 8.12557 120.952 8.27491C120.532 8.41491 120.178 8.60624 119.888 8.84891L119.328 7.84091C119.711 7.53291 120.168 7.29957 120.7 7.14091C121.242 6.97291 121.806 6.88891 122.394 6.88891C123.412 6.88891 124.196 7.13624 124.746 7.63091C125.297 8.12557 125.572 8.88157 125.572 9.89891V14.3789H124.298ZM121.862 14.4629C121.312 14.4629 120.826 14.3696 120.406 14.1829C119.996 13.9962 119.678 13.7396 119.454 13.4129C119.23 13.0769 119.118 12.6989 119.118 12.2789C119.118 11.8776 119.212 11.5136 119.398 11.1869C119.594 10.8602 119.907 10.5989 120.336 10.4029C120.775 10.2069 121.363 10.1089 122.1 10.1089H124.452V11.0749H122.156C121.484 11.0749 121.032 11.1869 120.798 11.4109C120.565 11.6349 120.448 11.9056 120.448 12.2229C120.448 12.5869 120.593 12.8809 120.882 13.1049C121.172 13.3196 121.573 13.4269 122.086 13.4269C122.59 13.4269 123.029 13.3149 123.402 13.0909C123.785 12.8669 124.06 12.5402 124.228 12.1109L124.494 13.0349C124.317 13.4736 124.004 13.8236 123.556 14.0849C123.108 14.3369 122.544 14.4629 121.862 14.4629ZM128.199 14.3789V3.99091H129.543V14.3789H128.199ZM132.25 14.3789V3.99091H133.594V14.3789H132.25ZM139.478 14.4629C138.731 14.4629 138.068 14.2996 137.49 13.9729C136.911 13.6462 136.454 13.1982 136.118 12.6289C135.782 12.0502 135.614 11.3969 135.614 10.6689C135.614 9.93157 135.782 9.27824 136.118 8.70891C136.454 8.13957 136.911 7.69624 137.49 7.37891C138.068 7.05224 138.731 6.88891 139.478 6.88891C140.215 6.88891 140.873 7.05224 141.452 7.37891C142.04 7.69624 142.497 8.13957 142.824 8.70891C143.16 9.26891 143.328 9.92224 143.328 10.6689C143.328 11.4062 143.16 12.0596 142.824 12.6289C142.497 13.1982 142.04 13.6462 141.452 13.9729C140.873 14.2996 140.215 14.4629 139.478 14.4629ZM139.478 13.2869C139.954 13.2869 140.378 13.1796 140.752 12.9649C141.134 12.7502 141.433 12.4469 141.648 12.0549C141.862 11.6536 141.97 11.1916 141.97 10.6689C141.97 10.1369 141.862 9.67957 141.648 9.29691C141.433 8.90491 141.134 8.60157 140.752 8.38691C140.378 8.17224 139.954 8.06491 139.478 8.06491C139.002 8.06491 138.577 8.17224 138.204 8.38691C137.83 8.60157 137.532 8.90491 137.308 9.29691C137.084 9.67957 136.972 10.1369 136.972 10.6689C136.972 11.1916 137.084 11.6536 137.308 12.0549C137.532 12.4469 137.83 12.7502 138.204 12.9649C138.577 13.1796 139.002 13.2869 139.478 13.2869ZM148.504 14.4629C147.758 14.4629 147.095 14.2996 146.516 13.9729C145.938 13.6462 145.48 13.1982 145.144 12.6289C144.808 12.0502 144.64 11.3969 144.64 10.6689C144.64 9.93157 144.808 9.27824 145.144 8.70891C145.48 8.13957 145.938 7.69624 146.516 7.37891C147.095 7.05224 147.758 6.88891 148.504 6.88891C149.242 6.88891 149.9 7.05224 150.478 7.37891C151.066 7.69624 151.524 8.13957 151.85 8.70891C152.186 9.26891 152.354 9.92224 152.354 10.6689C152.354 11.4062 152.186 12.0596 151.85 12.6289C151.524 13.1982 151.066 13.6462 150.478 13.9729C149.9 14.2996 149.242 14.4629 148.504 14.4629ZM148.504 13.2869C148.98 13.2869 149.405 13.1796 149.778 12.9649C150.161 12.7502 150.46 12.4469 150.674 12.0549C150.889 11.6536 150.996 11.1916 150.996 10.6689C150.996 10.1369 150.889 9.67957 150.674 9.29691C150.46 8.90491 150.161 8.60157 149.778 8.38691C149.405 8.17224 148.98 8.06491 148.504 8.06491C148.028 8.06491 147.604 8.17224 147.23 8.38691C146.857 8.60157 146.558 8.90491 146.334 9.29691C146.11 9.67957 145.998 10.1369 145.998 10.6689C145.998 11.1916 146.11 11.6536 146.334 12.0549C146.558 12.4469 146.857 12.7502 147.23 12.9649C147.604 13.1796 148.028 13.2869 148.504 13.2869ZM158.315 6.88891C158.922 6.88891 159.454 7.00557 159.911 7.23891C160.378 7.47224 160.742 7.82691 161.003 8.30291C161.264 8.77891 161.395 9.38091 161.395 10.1089V14.3789H160.051V10.2629C160.051 9.54424 159.874 9.00291 159.519 8.63891C159.174 8.27491 158.684 8.09291 158.049 8.09291C157.573 8.09291 157.158 8.18624 156.803 8.37291C156.448 8.55957 156.173 8.83491 155.977 9.19891C155.79 9.56291 155.697 10.0156 155.697 10.5569V14.3789H154.353V6.95891H155.641V8.96091L155.431 8.42891C155.674 7.94357 156.047 7.56557 156.551 7.29491C157.055 7.02424 157.643 6.88891 158.315 6.88891ZM166.15 14.4629C165.534 14.4629 164.946 14.3789 164.386 14.2109C163.836 14.0429 163.402 13.8376 163.084 13.5949L163.644 12.5309C163.962 12.7456 164.354 12.9276 164.82 13.0769C165.287 13.2262 165.763 13.3009 166.248 13.3009C166.874 13.3009 167.322 13.2122 167.592 13.0349C167.872 12.8576 168.012 12.6102 168.012 12.2929C168.012 12.0596 167.928 11.8776 167.76 11.7469C167.592 11.6162 167.368 11.5182 167.088 11.4529C166.818 11.3876 166.514 11.3316 166.178 11.2849C165.842 11.2289 165.506 11.1636 165.17 11.0889C164.834 11.0049 164.526 10.8929 164.246 10.7529C163.966 10.6036 163.742 10.4029 163.574 10.1509C163.406 9.88957 163.322 9.54424 163.322 9.11491C163.322 8.66691 163.448 8.27491 163.7 7.93891C163.952 7.60291 164.307 7.34624 164.764 7.16891C165.231 6.98224 165.782 6.88891 166.416 6.88891C166.902 6.88891 167.392 6.94957 167.886 7.07091C168.39 7.18291 168.801 7.34624 169.118 7.56091L168.544 8.62491C168.208 8.40091 167.858 8.24691 167.494 8.16291C167.13 8.07891 166.766 8.03691 166.402 8.03691C165.814 8.03691 165.376 8.13491 165.086 8.33091C164.797 8.51757 164.652 8.76024 164.652 9.05891C164.652 9.31091 164.736 9.50691 164.904 9.64691C165.082 9.77757 165.306 9.88024 165.576 9.95491C165.856 10.0296 166.164 10.0949 166.5 10.1509C166.836 10.1976 167.172 10.2629 167.508 10.3469C167.844 10.4216 168.148 10.5289 168.418 10.6689C168.698 10.8089 168.922 11.0049 169.09 11.2569C169.268 11.5089 169.356 11.8449 169.356 12.2649C169.356 12.7129 169.226 13.1002 168.964 13.4269C168.703 13.7536 168.334 14.0102 167.858 14.1969C167.382 14.3742 166.813 14.4629 166.15 14.4629ZM171.498 14.4629C171.237 14.4629 171.013 14.3742 170.826 14.1969C170.639 14.0102 170.546 13.7769 170.546 13.4969C170.546 13.2169 170.639 12.9882 170.826 12.8109C171.013 12.6336 171.237 12.5449 171.498 12.5449C171.75 12.5449 171.965 12.6336 172.142 12.8109C172.329 12.9882 172.422 13.2169 172.422 13.4969C172.422 13.7769 172.329 14.0102 172.142 14.1969C171.965 14.3742 171.75 14.4629 171.498 14.4629ZM177.558 14.4629C176.802 14.4629 176.125 14.2996 175.528 13.9729C174.94 13.6462 174.478 13.1982 174.142 12.6289C173.806 12.0596 173.638 11.4062 173.638 10.6689C173.638 9.93157 173.806 9.27824 174.142 8.70891C174.478 8.13957 174.94 7.69624 175.528 7.37891C176.125 7.05224 176.802 6.88891 177.558 6.88891C178.23 6.88891 178.827 7.02424 179.35 7.29491C179.882 7.55624 180.293 7.94824 180.582 8.47091L179.56 9.12891C179.317 8.76491 179.019 8.49891 178.664 8.33091C178.319 8.15357 177.945 8.06491 177.544 8.06491C177.059 8.06491 176.625 8.17224 176.242 8.38691C175.859 8.60157 175.556 8.90491 175.332 9.29691C175.108 9.67957 174.996 10.1369 174.996 10.6689C174.996 11.2009 175.108 11.6629 175.332 12.0549C175.556 12.4469 175.859 12.7502 176.242 12.9649C176.625 13.1796 177.059 13.2869 177.544 13.2869C177.945 13.2869 178.319 13.2029 178.664 13.0349C179.019 12.8576 179.317 12.5869 179.56 12.2229L180.582 12.8669C180.293 13.3802 179.882 13.7769 179.35 14.0569C178.827 14.3276 178.23 14.4629 177.558 14.4629ZM185.531 14.4629C184.784 14.4629 184.121 14.2996 183.543 13.9729C182.964 13.6462 182.507 13.1982 182.171 12.6289C181.835 12.0502 181.667 11.3969 181.667 10.6689C181.667 9.93157 181.835 9.27824 182.171 8.70891C182.507 8.13957 182.964 7.69624 183.543 7.37891C184.121 7.05224 184.784 6.88891 185.531 6.88891C186.268 6.88891 186.926 7.05224 187.505 7.37891C188.093 7.69624 188.55 8.13957 188.877 8.70891C189.213 9.26891 189.381 9.92224 189.381 10.6689C189.381 11.4062 189.213 12.0596 188.877 12.6289C188.55 13.1982 188.093 13.6462 187.505 13.9729C186.926 14.2996 186.268 14.4629 185.531 14.4629ZM185.531 13.2869C186.007 13.2869 186.431 13.1796 186.805 12.9649C187.187 12.7502 187.486 12.4469 187.701 12.0549C187.915 11.6536 188.023 11.1916 188.023 10.6689C188.023 10.1369 187.915 9.67957 187.701 9.29691C187.486 8.90491 187.187 8.60157 186.805 8.38691C186.431 8.17224 186.007 8.06491 185.531 8.06491C185.055 8.06491 184.63 8.17224 184.257 8.38691C183.883 8.60157 183.585 8.90491 183.361 9.29691C183.137 9.67957 183.025 10.1369 183.025 10.6689C183.025 11.1916 183.137 11.6536 183.361 12.0549C183.585 12.4469 183.883 12.7502 184.257 12.9649C184.63 13.1796 185.055 13.2869 185.531 13.2869ZM200.661 6.88891C201.259 6.88891 201.786 7.00557 202.243 7.23891C202.701 7.47224 203.055 7.82691 203.307 8.30291C203.569 8.77891 203.699 9.38091 203.699 10.1089V14.3789H202.355V10.2629C202.355 9.54424 202.187 9.00291 201.851 8.63891C201.515 8.27491 201.044 8.09291 200.437 8.09291C199.989 8.09291 199.597 8.18624 199.261 8.37291C198.925 8.55957 198.664 8.83491 198.477 9.19891C198.3 9.56291 198.211 10.0156 198.211 10.5569V14.3789H196.867V10.2629C196.867 9.54424 196.699 9.00291 196.363 8.63891C196.037 8.27491 195.565 8.09291 194.949 8.09291C194.511 8.09291 194.123 8.18624 193.787 8.37291C193.451 8.55957 193.19 8.83491 193.003 9.19891C192.817 9.56291 192.723 10.0156 192.723 10.5569V14.3789H191.379V6.95891H192.667V8.93291L192.457 8.42891C192.691 7.94357 193.05 7.56557 193.535 7.29491C194.021 7.02424 194.585 6.88891 195.229 6.88891C195.939 6.88891 196.55 7.06624 197.063 7.42091C197.577 7.76624 197.913 8.29357 198.071 9.00291L197.525 8.77891C197.749 8.20957 198.141 7.75224 198.701 7.40691C199.261 7.06157 199.915 6.88891 200.661 6.88891Z" fill="#171719"/>
<path d="M40.402 14.4629C39.786 14.4629 39.198 14.3789 38.638 14.2109C38.0873 14.0429 37.6533 13.8376 37.336 13.5949L37.896 12.5309C38.2133 12.7456 38.6053 12.9276 39.072 13.0769C39.5387 13.2262 40.0147 13.3009 40.5 13.3009C41.1253 13.3009 41.5733 13.2122 41.844 13.0349C42.124 12.8576 42.264 12.6102 42.264 12.2929C42.264 12.0596 42.18 11.8776 42.012 11.7469C41.844 11.6162 41.62 11.5182 41.34 11.4529C41.0693 11.3876 40.766 11.3316 40.43 11.2849C40.094 11.2289 39.758 11.1636 39.422 11.0889C39.086 11.0049 38.778 10.8929 38.498 10.7529C38.218 10.6036 37.994 10.4029 37.826 10.1509C37.658 9.88957 37.574 9.54424 37.574 9.11491C37.574 8.66691 37.7 8.27491 37.952 7.93891C38.204 7.60291 38.5587 7.34624 39.016 7.16891C39.4827 6.98224 40.0333 6.88891 40.668 6.88891C41.1533 6.88891 41.6433 6.94957 42.138 7.07091C42.642 7.18291 43.0527 7.34624 43.37 7.56091L42.796 8.62491C42.46 8.40091 42.11 8.24691 41.746 8.16291C41.382 8.07891 41.018 8.03691 40.654 8.03691C40.066 8.03691 39.6273 8.13491 39.338 8.33091C39.0487 8.51757 38.904 8.76024 38.904 9.05891C38.904 9.31091 38.988 9.50691 39.156 9.64691C39.3333 9.77757 39.5573 9.88024 39.828 9.95491C40.108 10.0296 40.416 10.0949 40.752 10.1509C41.088 10.1976 41.424 10.2629 41.76 10.3469C42.096 10.4216 42.3993 10.5289 42.67 10.6689C42.95 10.8089 43.174 11.0049 43.342 11.2569C43.5193 11.5089 43.608 11.8449 43.608 12.2649C43.608 12.7129 43.4773 13.1002 43.216 13.4269C42.9547 13.7536 42.586 14.0102 42.11 14.1969C41.634 14.3742 41.0647 14.4629 40.402 14.4629ZM48.5497 14.4629C47.915 14.4629 47.355 14.3462 46.8697 14.1129C46.3937 13.8796 46.0203 13.5249 45.7497 13.0489C45.4883 12.5636 45.3577 11.9569 45.3577 11.2289V6.95891H46.7017V11.0749C46.7017 11.8029 46.8743 12.3489 47.2197 12.7129C47.5743 13.0769 48.069 13.2589 48.7037 13.2589C49.1703 13.2589 49.5763 13.1656 49.9217 12.9789C50.267 12.7829 50.533 12.5029 50.7197 12.1389C50.9063 11.7656 50.9997 11.3176 50.9997 10.7949V6.95891H52.3437V14.3789H51.0697V12.3769L51.2797 12.9089C51.037 13.4036 50.673 13.7862 50.1877 14.0569C49.7023 14.3276 49.1563 14.4629 48.5497 14.4629ZM58.9763 14.4629C58.3603 14.4629 57.7956 14.3229 57.2823 14.0429C56.7783 13.7536 56.3723 13.3289 56.0643 12.7689C55.7656 12.2089 55.6163 11.5089 55.6163 10.6689C55.6163 9.82891 55.7609 9.12891 56.0503 8.56891C56.3489 8.00891 56.7503 7.58891 57.2543 7.30891C57.7676 7.02891 58.3416 6.88891 58.9763 6.88891C59.7043 6.88891 60.3483 7.04757 60.9083 7.36491C61.4683 7.68224 61.9116 8.12557 62.2383 8.69491C62.5649 9.25491 62.7283 9.91291 62.7283 10.6689C62.7283 11.4249 62.5649 12.0876 62.2383 12.6569C61.9116 13.2262 61.4683 13.6696 60.9083 13.9869C60.3483 14.3042 59.7043 14.4629 58.9763 14.4629ZM55.0423 17.0949V6.95891H56.3303V8.96091L56.2463 10.6829L56.3863 12.4049V17.0949H55.0423ZM58.8643 13.2869C59.3403 13.2869 59.7649 13.1796 60.1383 12.9649C60.5209 12.7502 60.8196 12.4469 61.0343 12.0549C61.2583 11.6536 61.3703 11.1916 61.3703 10.6689C61.3703 10.1369 61.2583 9.67957 61.0343 9.29691C60.8196 8.90491 60.5209 8.60157 60.1383 8.38691C59.7649 8.17224 59.3403 8.06491 58.8643 8.06491C58.3976 8.06491 57.9729 8.17224 57.5903 8.38691C57.2169 8.60157 56.9183 8.90491 56.6943 9.29691C56.4796 9.67957 56.3723 10.1369 56.3723 10.6689C56.3723 11.1916 56.4796 11.6536 56.6943 12.0549C56.9183 12.4469 57.2169 12.7502 57.5903 12.9649C57.9729 13.1796 58.3976 13.2869 58.8643 13.2869ZM68.6593 14.4629C68.0433 14.4629 67.4786 14.3229 66.9653 14.0429C66.4613 13.7536 66.0553 13.3289 65.7473 12.7689C65.4486 12.2089 65.2993 11.5089 65.2993 10.6689C65.2993 9.82891 65.4439 9.12891 65.7333 8.56891C66.0319 8.00891 66.4333 7.58891 66.9373 7.30891C67.4506 7.02891 68.0246 6.88891 68.6593 6.88891C69.3873 6.88891 70.0313 7.04757 70.5913 7.36491C71.1513 7.68224 71.5946 8.12557 71.9213 8.69491C72.2479 9.25491 72.4113 9.91291 72.4113 10.6689C72.4113 11.4249 72.2479 12.0876 71.9213 12.6569C71.5946 13.2262 71.1513 13.6696 70.5913 13.9869C70.0313 14.3042 69.3873 14.4629 68.6593 14.4629ZM64.7253 17.0949V6.95891H66.0133V8.96091L65.9293 10.6829L66.0693 12.4049V17.0949H64.7253ZM68.5473 13.2869C69.0233 13.2869 69.4479 13.1796 69.8213 12.9649C70.2039 12.7502 70.5026 12.4469 70.7173 12.0549C70.9413 11.6536 71.0533 11.1916 71.0533 10.6689C71.0533 10.1369 70.9413 9.67957 70.7173 9.29691C70.5026 8.90491 70.2039 8.60157 69.8213 8.38691C69.4479 8.17224 69.0233 8.06491 68.5473 8.06491C68.0806 8.06491 67.6559 8.17224 67.2733 8.38691C66.8999 8.60157 66.6013 8.90491 66.3773 9.29691C66.1626 9.67957 66.0553 10.1369 66.0553 10.6689C66.0553 11.1916 66.1626 11.6536 66.3773 12.0549C66.6013 12.4469 66.8999 12.7502 67.2733 12.9649C67.6559 13.1796 68.0806 13.2869 68.5473 13.2869ZM77.5862 14.4629C76.8396 14.4629 76.1769 14.2996 75.5982 13.9729C75.0196 13.6462 74.5622 13.1982 74.2262 12.6289C73.8902 12.0502 73.7222 11.3969 73.7222 10.6689C73.7222 9.93157 73.8902 9.27824 74.2262 8.70891C74.5622 8.13957 75.0196 7.69624 75.5982 7.37891C76.1769 7.05224 76.8396 6.88891 77.5862 6.88891C78.3236 6.88891 78.9816 7.05224 79.5602 7.37891C80.1482 7.69624 80.6056 8.13957 80.9322 8.70891C81.2682 9.26891 81.4362 9.92224 81.4362 10.6689C81.4362 11.4062 81.2682 12.0596 80.9322 12.6289C80.6056 13.1982 80.1482 13.6462 79.5602 13.9729C78.9816 14.2996 78.3236 14.4629 77.5862 14.4629ZM77.5862 13.2869C78.0622 13.2869 78.4869 13.1796 78.8602 12.9649C79.2429 12.7502 79.5416 12.4469 79.7562 12.0549C79.9709 11.6536 80.0782 11.1916 80.0782 10.6689C80.0782 10.1369 79.9709 9.67957 79.7562 9.29691C79.5416 8.90491 79.2429 8.60157 78.8602 8.38691C78.4869 8.17224 78.0622 8.06491 77.5862 8.06491C77.1102 8.06491 76.6856 8.17224 76.3122 8.38691C75.9389 8.60157 75.6402 8.90491 75.4162 9.29691C75.1922 9.67957 75.0802 10.1369 75.0802 10.6689C75.0802 11.1916 75.1922 11.6536 75.4162 12.0549C75.6402 12.4469 75.9389 12.7502 76.3122 12.9649C76.6856 13.1796 77.1102 13.2869 77.5862 13.2869ZM83.4349 14.3789V6.95891H84.7229V8.97491L84.5969 8.47091C84.8023 7.95757 85.1476 7.56557 85.6329 7.29491C86.1183 7.02424 86.7156 6.88891 87.4249 6.88891V8.19091C87.3689 8.18157 87.3129 8.17691 87.2569 8.17691C87.2103 8.17691 87.1636 8.17691 87.1169 8.17691C86.3983 8.17691 85.8289 8.39157 85.4089 8.82091C84.9889 9.25024 84.7789 9.87091 84.7789 10.6829V14.3789H83.4349ZM92.0702 14.4629C91.3235 14.4629 90.7449 14.2622 90.3342 13.8609C89.9235 13.4596 89.7182 12.8856 89.7182 12.1389V5.33491H91.0622V12.0829C91.0622 12.4842 91.1602 12.7922 91.3562 13.0069C91.5615 13.2216 91.8509 13.3289 92.2242 13.3289C92.6442 13.3289 92.9942 13.2122 93.2742 12.9789L93.6942 13.9449C93.4889 14.1222 93.2415 14.2529 92.9522 14.3369C92.6722 14.4209 92.3782 14.4629 92.0702 14.4629ZM88.4582 8.06491V6.95891H93.1902V8.06491H88.4582ZM101.409 17.2069C100.438 17.2069 99.5517 17.0482 98.7491 16.7309C97.9464 16.4136 97.2557 15.9702 96.6771 15.4009C96.0984 14.8316 95.6504 14.1596 95.3331 13.3849C95.0157 12.6009 94.8571 11.7469 94.8571 10.8229C94.8571 9.89891 95.0157 9.04957 95.3331 8.27491C95.6504 7.50024 96.0984 6.82824 96.6771 6.25891C97.2651 5.68957 97.9651 5.25091 98.7771 4.94291C99.5891 4.63491 100.485 4.48091 101.465 4.48091C102.426 4.48091 103.304 4.63024 104.097 4.92891C104.89 5.22757 105.576 5.65224 106.155 6.20291C106.743 6.74424 107.196 7.39291 107.513 8.14891C107.83 8.89557 107.989 9.72157 107.989 10.6269C107.989 11.4202 107.891 12.1016 107.695 12.6709C107.499 13.2402 107.214 13.6836 106.841 14.0009C106.477 14.3089 106.029 14.4629 105.497 14.4629C104.974 14.4629 104.554 14.3042 104.237 13.9869C103.929 13.6696 103.775 13.2169 103.775 12.6289V11.6769L103.845 10.8229L103.719 9.21291V7.35091H104.937V12.3909C104.937 12.7642 105.012 13.0256 105.161 13.1749C105.32 13.3242 105.511 13.3989 105.735 13.3989C106.006 13.3989 106.239 13.2916 106.435 13.0769C106.64 12.8622 106.79 12.5496 106.883 12.1389C106.986 11.7189 107.037 11.2196 107.037 10.6409C107.037 9.85691 106.902 9.14757 106.631 8.51291C106.37 7.86891 105.987 7.31357 105.483 6.84691C104.988 6.38024 104.4 6.02557 103.719 5.78291C103.047 5.53091 102.296 5.40491 101.465 5.40491C100.634 5.40491 99.8737 5.54024 99.1831 5.81091C98.5017 6.07224 97.9137 6.44557 97.4191 6.93091C96.9244 7.40691 96.5417 7.97624 96.2711 8.63891C96.0097 9.30157 95.8791 10.0296 95.8791 10.8229C95.8791 11.6256 96.0097 12.3629 96.2711 13.0349C96.5324 13.6976 96.9057 14.2669 97.3911 14.7429C97.8857 15.2282 98.4691 15.6016 99.1411 15.8629C99.8224 16.1336 100.578 16.2689 101.409 16.2689C101.838 16.2689 102.291 16.2176 102.767 16.1149C103.243 16.0216 103.691 15.8676 104.111 15.6529L104.419 16.5489C103.99 16.7636 103.504 16.9269 102.963 17.0389C102.422 17.1509 101.904 17.2069 101.409 17.2069ZM101.157 14.4629C100.494 14.4629 99.9064 14.3089 99.3931 14.0009C98.8797 13.6836 98.4737 13.2542 98.1751 12.7129C97.8764 12.1716 97.7271 11.5556 97.7271 10.8649C97.7271 10.1649 97.8764 9.54891 98.1751 9.01691C98.4737 8.47557 98.8797 8.05557 99.3931 7.75691C99.9064 7.44891 100.494 7.29491 101.157 7.29491C101.801 7.29491 102.366 7.43491 102.851 7.71491C103.336 7.98557 103.714 8.38691 103.985 8.91891C104.265 9.45091 104.405 10.0996 104.405 10.8649C104.405 11.6302 104.27 12.2789 103.999 12.8109C103.728 13.3429 103.35 13.7536 102.865 14.0429C102.38 14.3229 101.81 14.4629 101.157 14.4629ZM101.353 13.3709C101.81 13.3709 102.216 13.2729 102.571 13.0769C102.935 12.8716 103.22 12.5822 103.425 12.2089C103.64 11.8262 103.747 11.3782 103.747 10.8649C103.747 10.3422 103.64 9.89424 103.425 9.52091C103.22 9.14757 102.935 8.86291 102.571 8.66691C102.216 8.47091 101.81 8.37291 101.353 8.37291C100.886 8.37291 100.471 8.47557 100.107 8.68091C99.7524 8.87691 99.4724 9.16157 99.2671 9.53491C99.0711 9.90824 98.9731 10.3516 98.9731 10.8649C98.9731 11.3689 99.0711 11.8076 99.2671 12.1809C99.4724 12.5542 99.7524 12.8482 100.107 13.0629C100.471 13.2682 100.886 13.3709 101.353 13.3709ZM114.012 14.4629C113.377 14.4629 112.803 14.3229 112.29 14.0429C111.786 13.7536 111.384 13.3289 111.086 12.7689C110.796 12.2089 110.652 11.5089 110.652 10.6689C110.652 9.82891 110.801 9.12891 111.1 8.56891C111.408 8.00891 111.814 7.58891 112.318 7.30891C112.831 7.02891 113.396 6.88891 114.012 6.88891C114.74 6.88891 115.384 7.04757 115.944 7.36491C116.504 7.68224 116.947 8.12557 117.274 8.69491C117.6 9.25491 117.764 9.91291 117.764 10.6689C117.764 11.4249 117.6 12.0876 117.274 12.6569C116.947 13.2262 116.504 13.6696 115.944 13.9869C115.384 14.3042 114.74 14.4629 114.012 14.4629ZM110.078 14.3789V3.99091H111.422V8.93291L111.282 10.6549L111.366 12.3769V14.3789H110.078ZM113.9 13.2869C114.376 13.2869 114.8 13.1796 115.174 12.9649C115.556 12.7502 115.855 12.4469 116.07 12.0549C116.294 11.6536 116.406 11.1916 116.406 10.6689C116.406 10.1369 116.294 9.67957 116.07 9.29691C115.855 8.90491 115.556 8.60157 115.174 8.38691C114.8 8.17224 114.376 8.06491 113.9 8.06491C113.433 8.06491 113.008 8.17224 112.626 8.38691C112.252 8.60157 111.954 8.90491 111.73 9.29691C111.515 9.67957 111.408 10.1369 111.408 10.6689C111.408 11.1916 111.515 11.6536 111.73 12.0549C111.954 12.4469 112.252 12.7502 112.626 12.9649C113.008 13.1796 113.433 13.2869 113.9 13.2869ZM124.298 14.3789V12.8109L124.228 12.5169V9.84291C124.228 9.27357 124.06 8.83491 123.724 8.52691C123.398 8.20957 122.903 8.05091 122.24 8.05091C121.802 8.05091 121.372 8.12557 120.952 8.27491C120.532 8.41491 120.178 8.60624 119.888 8.84891L119.328 7.84091C119.711 7.53291 120.168 7.29957 120.7 7.14091C121.242 6.97291 121.806 6.88891 122.394 6.88891C123.412 6.88891 124.196 7.13624 124.746 7.63091C125.297 8.12557 125.572 8.88157 125.572 9.89891V14.3789H124.298ZM121.862 14.4629C121.312 14.4629 120.826 14.3696 120.406 14.1829C119.996 13.9962 119.678 13.7396 119.454 13.4129C119.23 13.0769 119.118 12.6989 119.118 12.2789C119.118 11.8776 119.212 11.5136 119.398 11.1869C119.594 10.8602 119.907 10.5989 120.336 10.4029C120.775 10.2069 121.363 10.1089 122.1 10.1089H124.452V11.0749H122.156C121.484 11.0749 121.032 11.1869 120.798 11.4109C120.565 11.6349 120.448 11.9056 120.448 12.2229C120.448 12.5869 120.593 12.8809 120.882 13.1049C121.172 13.3196 121.573 13.4269 122.086 13.4269C122.59 13.4269 123.029 13.3149 123.402 13.0909C123.785 12.8669 124.06 12.5402 124.228 12.1109L124.494 13.0349C124.317 13.4736 124.004 13.8236 123.556 14.0849C123.108 14.3369 122.544 14.4629 121.862 14.4629ZM128.199 14.3789V3.99091H129.543V14.3789H128.199ZM132.25 14.3789V3.99091H133.594V14.3789H132.25ZM139.478 14.4629C138.731 14.4629 138.068 14.2996 137.49 13.9729C136.911 13.6462 136.454 13.1982 136.118 12.6289C135.782 12.0502 135.614 11.3969 135.614 10.6689C135.614 9.93157 135.782 9.27824 136.118 8.70891C136.454 8.13957 136.911 7.69624 137.49 7.37891C138.068 7.05224 138.731 6.88891 139.478 6.88891C140.215 6.88891 140.873 7.05224 141.452 7.37891C142.04 7.69624 142.497 8.13957 142.824 8.70891C143.16 9.26891 143.328 9.92224 143.328 10.6689C143.328 11.4062 143.16 12.0596 142.824 12.6289C142.497 13.1982 142.04 13.6462 141.452 13.9729C140.873 14.2996 140.215 14.4629 139.478 14.4629ZM139.478 13.2869C139.954 13.2869 140.378 13.1796 140.752 12.9649C141.134 12.7502 141.433 12.4469 141.648 12.0549C141.862 11.6536 141.97 11.1916 141.97 10.6689C141.97 10.1369 141.862 9.67957 141.648 9.29691C141.433 8.90491 141.134 8.60157 140.752 8.38691C140.378 8.17224 139.954 8.06491 139.478 8.06491C139.002 8.06491 138.577 8.17224 138.204 8.38691C137.83 8.60157 137.532 8.90491 137.308 9.29691C137.084 9.67957 136.972 10.1369 136.972 10.6689C136.972 11.1916 137.084 11.6536 137.308 12.0549C137.532 12.4469 137.83 12.7502 138.204 12.9649C138.577 13.1796 139.002 13.2869 139.478 13.2869ZM148.504 14.4629C147.758 14.4629 147.095 14.2996 146.516 13.9729C145.938 13.6462 145.48 13.1982 145.144 12.6289C144.808 12.0502 144.64 11.3969 144.64 10.6689C144.64 9.93157 144.808 9.27824 145.144 8.70891C145.48 8.13957 145.938 7.69624 146.516 7.37891C147.095 7.05224 147.758 6.88891 148.504 6.88891C149.242 6.88891 149.9 7.05224 150.478 7.37891C151.066 7.69624 151.524 8.13957 151.85 8.70891C152.186 9.26891 152.354 9.92224 152.354 10.6689C152.354 11.4062 152.186 12.0596 151.85 12.6289C151.524 13.1982 151.066 13.6462 150.478 13.9729C149.9 14.2996 149.242 14.4629 148.504 14.4629ZM148.504 13.2869C148.98 13.2869 149.405 13.1796 149.778 12.9649C150.161 12.7502 150.46 12.4469 150.674 12.0549C150.889 11.6536 150.996 11.1916 150.996 10.6689C150.996 10.1369 150.889 9.67957 150.674 9.29691C150.46 8.90491 150.161 8.60157 149.778 8.38691C149.405 8.17224 148.98 8.06491 148.504 8.06491C148.028 8.06491 147.604 8.17224 147.23 8.38691C146.857 8.60157 146.558 8.90491 146.334 9.29691C146.11 9.67957 145.998 10.1369 145.998 10.6689C145.998 11.1916 146.11 11.6536 146.334 12.0549C146.558 12.4469 146.857 12.7502 147.23 12.9649C147.604 13.1796 148.028 13.2869 148.504 13.2869ZM158.315 6.88891C158.922 6.88891 159.454 7.00557 159.911 7.23891C160.378 7.47224 160.742 7.82691 161.003 8.30291C161.264 8.77891 161.395 9.38091 161.395 10.1089V14.3789H160.051V10.2629C160.051 9.54424 159.874 9.00291 159.519 8.63891C159.174 8.27491 158.684 8.09291 158.049 8.09291C157.573 8.09291 157.158 8.18624 156.803 8.37291C156.448 8.55957 156.173 8.83491 155.977 9.19891C155.79 9.56291 155.697 10.0156 155.697 10.5569V14.3789H154.353V6.95891H155.641V8.96091L155.431 8.42891C155.674 7.94357 156.047 7.56557 156.551 7.29491C157.055 7.02424 157.643 6.88891 158.315 6.88891ZM166.15 14.4629C165.534 14.4629 164.946 14.3789 164.386 14.2109C163.836 14.0429 163.402 13.8376 163.084 13.5949L163.644 12.5309C163.962 12.7456 164.354 12.9276 164.82 13.0769C165.287 13.2262 165.763 13.3009 166.248 13.3009C166.874 13.3009 167.322 13.2122 167.592 13.0349C167.872 12.8576 168.012 12.6102 168.012 12.2929C168.012 12.0596 167.928 11.8776 167.76 11.7469C167.592 11.6162 167.368 11.5182 167.088 11.4529C166.818 11.3876 166.514 11.3316 166.178 11.2849C165.842 11.2289 165.506 11.1636 165.17 11.0889C164.834 11.0049 164.526 10.8929 164.246 10.7529C163.966 10.6036 163.742 10.4029 163.574 10.1509C163.406 9.88957 163.322 9.54424 163.322 9.11491C163.322 8.66691 163.448 8.27491 163.7 7.93891C163.952 7.60291 164.307 7.34624 164.764 7.16891C165.231 6.98224 165.782 6.88891 166.416 6.88891C166.902 6.88891 167.392 6.94957 167.886 7.07091C168.39 7.18291 168.801 7.34624 169.118 7.56091L168.544 8.62491C168.208 8.40091 167.858 8.24691 167.494 8.16291C167.13 8.07891 166.766 8.03691 166.402 8.03691C165.814 8.03691 165.376 8.13491 165.086 8.33091C164.797 8.51757 164.652 8.76024 164.652 9.05891C164.652 9.31091 164.736 9.50691 164.904 9.64691C165.082 9.77757 165.306 9.88024 165.576 9.95491C165.856 10.0296 166.164 10.0949 166.5 10.1509C166.836 10.1976 167.172 10.2629 167.508 10.3469C167.844 10.4216 168.148 10.5289 168.418 10.6689C168.698 10.8089 168.922 11.0049 169.09 11.2569C169.268 11.5089 169.356 11.8449 169.356 12.2649C169.356 12.7129 169.226 13.1002 168.964 13.4269C168.703 13.7536 168.334 14.0102 167.858 14.1969C167.382 14.3742 166.813 14.4629 166.15 14.4629ZM171.498 14.4629C171.237 14.4629 171.013 14.3742 170.826 14.1969C170.639 14.0102 170.546 13.7769 170.546 13.4969C170.546 13.2169 170.639 12.9882 170.826 12.8109C171.013 12.6336 171.237 12.5449 171.498 12.5449C171.75 12.5449 171.965 12.6336 172.142 12.8109C172.329 12.9882 172.422 13.2169 172.422 13.4969C172.422 13.7769 172.329 14.0102 172.142 14.1969C171.965 14.3742 171.75 14.4629 171.498 14.4629ZM177.558 14.4629C176.802 14.4629 176.125 14.2996 175.528 13.9729C174.94 13.6462 174.478 13.1982 174.142 12.6289C173.806 12.0596 173.638 11.4062 173.638 10.6689C173.638 9.93157 173.806 9.27824 174.142 8.70891C174.478 8.13957 174.94 7.69624 175.528 7.37891C176.125 7.05224 176.802 6.88891 177.558 6.88891C178.23 6.88891 178.827 7.02424 179.35 7.29491C179.882 7.55624 180.293 7.94824 180.582 8.47091L179.56 9.12891C179.317 8.76491 179.019 8.49891 178.664 8.33091C178.319 8.15357 177.945 8.06491 177.544 8.06491C177.059 8.06491 176.625 8.17224 176.242 8.38691C175.859 8.60157 175.556 8.90491 175.332 9.29691C175.108 9.67957 174.996 10.1369 174.996 10.6689C174.996 11.2009 175.108 11.6629 175.332 12.0549C175.556 12.4469 175.859 12.7502 176.242 12.9649C176.625 13.1796 177.059 13.2869 177.544 13.2869C177.945 13.2869 178.319 13.2029 178.664 13.0349C179.019 12.8576 179.317 12.5869 179.56 12.2229L180.582 12.8669C180.293 13.3802 179.882 13.7769 179.35 14.0569C178.827 14.3276 178.23 14.4629 177.558 14.4629ZM185.531 14.4629C184.784 14.4629 184.121 14.2996 183.543 13.9729C182.964 13.6462 182.507 13.1982 182.171 12.6289C181.835 12.0502 181.667 11.3969 181.667 10.6689C181.667 9.93157 181.835 9.27824 182.171 8.70891C182.507 8.13957 182.964 7.69624 183.543 7.37891C184.121 7.05224 184.784 6.88891 185.531 6.88891C186.268 6.88891 186.926 7.05224 187.505 7.37891C188.093 7.69624 188.55 8.13957 188.877 8.70891C189.213 9.26891 189.381 9.92224 189.381 10.6689C189.381 11.4062 189.213 12.0596 188.877 12.6289C188.55 13.1982 188.093 13.6462 187.505 13.9729C186.926 14.2996 186.268 14.4629 185.531 14.4629ZM185.531 13.2869C186.007 13.2869 186.431 13.1796 186.805 12.9649C187.187 12.7502 187.486 12.4469 187.701 12.0549C187.915 11.6536 188.023 11.1916 188.023 10.6689C188.023 10.1369 187.915 9.67957 187.701 9.29691C187.486 8.90491 187.187 8.60157 186.805 8.38691C186.431 8.17224 186.007 8.06491 185.531 8.06491C185.055 8.06491 184.63 8.17224 184.257 8.38691C183.883 8.60157 183.585 8.90491 183.361 9.29691C183.137 9.67957 183.025 10.1369 183.025 10.6689C183.025 11.1916 183.137 11.6536 183.361 12.0549C183.585 12.4469 183.883 12.7502 184.257 12.9649C184.63 13.1796 185.055 13.2869 185.531 13.2869ZM200.661 6.88891C201.259 6.88891 201.786 7.00557 202.243 7.23891C202.701 7.47224 203.055 7.82691 203.307 8.30291C203.569 8.77891 203.699 9.38091 203.699 10.1089V14.3789H202.355V10.2629C202.355 9.54424 202.187 9.00291 201.851 8.63891C201.515 8.27491 201.044 8.09291 200.437 8.09291C199.989 8.09291 199.597 8.18624 199.261 8.37291C198.925 8.55957 198.664 8.83491 198.477 9.19891C198.3 9.56291 198.211 10.0156 198.211 10.5569V14.3789H196.867V10.2629C196.867 9.54424 196.699 9.00291 196.363 8.63891C196.037 8.27491 195.565 8.09291 194.949 8.09291C194.511 8.09291 194.123 8.18624 193.787 8.37291C193.451 8.55957 193.19 8.83491 193.003 9.19891C192.817 9.56291 192.723 10.0156 192.723 10.5569V14.3789H191.379V6.95891H192.667V8.93291L192.457 8.42891C192.691 7.94357 193.05 7.56557 193.535 7.29491C194.021 7.02424 194.585 6.88891 195.229 6.88891C195.939 6.88891 196.55 7.06624 197.063 7.42091C197.577 7.76624 197.913 8.29357 198.071 9.00291L197.525 8.77891C197.749 8.20957 198.141 7.75224 198.701 7.40691C199.261 7.06157 199.915 6.88891 200.661 6.88891Z" fill="black" fill-opacity="0.2"/>
</svg>
