<svg width="258" height="15" viewBox="0 0 258 15" fill="none" xmlns="http://www.w3.org/2000/svg">
<path d="M5.6 11.542C4.9 11.542 4.25133 11.416 3.654 11.164C3.05667 10.912 2.534 10.562 2.086 10.114C1.638 9.65667 1.288 9.12933 1.036 8.532C0.793333 7.93467 0.672 7.29067 0.672 6.6C0.672 5.90933 0.798 5.26533 1.05 4.668C1.302 4.07067 1.652 3.548 2.1 3.1C2.548 2.64267 3.07067 2.288 3.668 2.036C4.27467 1.784 4.928 1.658 5.628 1.658C6.328 1.658 6.97667 1.784 7.574 2.036C8.18067 2.27867 8.70333 2.624 9.142 3.072C9.59 3.52 9.93533 4.04267 10.178 4.64C10.43 5.228 10.556 5.872 10.556 6.572C10.556 7.272 10.43 7.92533 10.178 8.532C9.926 9.12933 9.57133 9.65667 9.114 10.114C8.666 10.562 8.14333 10.912 7.546 11.164C6.94867 11.416 6.3 11.542 5.6 11.542ZM5.6 10.912C6.20667 10.912 6.77133 10.8 7.294 10.576C7.81667 10.352 8.274 10.044 8.666 9.652C9.058 9.26 9.36133 8.80267 9.576 8.28C9.79067 7.748 9.898 7.17867 9.898 6.572C9.898 5.96533 9.79067 5.40067 9.576 4.878C9.36133 4.35533 9.06267 3.90267 8.68 3.52C8.29733 3.13733 7.84467 2.83867 7.322 2.624C6.80867 2.4 6.244 2.288 5.628 2.288C5.012 2.288 4.438 2.4 3.906 2.624C3.38333 2.83867 2.93067 3.14667 2.548 3.548C2.16533 3.94 1.86667 4.39733 1.652 4.92C1.43733 5.43333 1.33 5.99333 1.33 6.6C1.33 7.20667 1.43733 7.77133 1.652 8.294C1.86667 8.81667 2.16533 9.274 2.548 9.666C2.93067 10.058 3.38333 10.366 3.906 10.59C4.42867 10.8047 4.99333 10.912 5.6 10.912ZM5.754 9.484C5.18467 9.484 4.676 9.36267 4.228 9.12C3.78 8.87733 3.43 8.54133 3.178 8.112C2.926 7.67333 2.8 7.16933 2.8 6.6C2.8 6.03067 2.926 5.53133 3.178 5.102C3.43 4.66333 3.78 4.32267 4.228 4.08C4.676 3.83733 5.18467 3.716 5.754 3.716C6.24867 3.716 6.692 3.81867 7.084 4.024C7.48533 4.22 7.798 4.49533 8.022 4.85L7.224 5.424C7.04667 5.16267 6.82733 4.97133 6.566 4.85C6.314 4.72867 6.03867 4.668 5.74 4.668C5.376 4.668 5.054 4.752 4.774 4.92C4.50333 5.07867 4.284 5.30267 4.116 5.592C3.948 5.872 3.864 6.208 3.864 6.6C3.864 6.992 3.948 7.33267 4.116 7.622C4.284 7.902 4.50333 8.126 4.774 8.294C5.054 8.45267 5.376 8.532 5.74 8.532C6.03867 8.532 6.314 8.47133 6.566 8.35C6.82733 8.22867 7.04667 8.03733 7.224 7.776L8.022 8.336C7.798 8.69067 7.48533 8.97067 7.084 9.176C6.692 9.38133 6.24867 9.484 5.754 9.484ZM16.7344 11.5V1.7H21.1304C22.2597 1.7 23.1277 1.92867 23.7344 2.386C24.341 2.834 24.6444 3.45 24.6444 4.234C24.6444 4.766 24.523 5.214 24.2804 5.578C24.047 5.942 23.7297 6.222 23.3284 6.418C22.927 6.614 22.493 6.712 22.0264 6.712L22.2784 6.292C22.8384 6.292 23.333 6.39 23.7624 6.586C24.1917 6.782 24.5324 7.07133 24.7844 7.454C25.0364 7.82733 25.1624 8.294 25.1624 8.854C25.1624 9.694 24.845 10.3473 24.2104 10.814C23.585 11.2713 22.6517 11.5 21.4104 11.5H16.7344ZM18.1344 10.366H21.3544C22.129 10.366 22.7217 10.2353 23.1324 9.974C23.543 9.71267 23.7484 9.302 23.7484 8.742C23.7484 8.17267 23.543 7.75733 23.1324 7.496C22.7217 7.23467 22.129 7.104 21.3544 7.104H18.0084V5.97H21.0044C21.7137 5.97 22.2644 5.83933 22.6564 5.578C23.0484 5.31667 23.2444 4.92467 23.2444 4.402C23.2444 3.87933 23.0484 3.48733 22.6564 3.226C22.2644 2.96467 21.7137 2.834 21.0044 2.834H18.1344V10.366ZM31.8801 11.5V9.932L31.8101 9.638V6.964C31.8101 6.39467 31.6421 5.956 31.3061 5.648C30.9794 5.33067 30.4847 5.172 29.8221 5.172C29.3834 5.172 28.9541 5.24667 28.5341 5.396C28.1141 5.536 27.7594 5.72733 27.4701 5.97L26.9101 4.962C27.2927 4.654 27.7501 4.42067 28.2821 4.262C28.8234 4.094 29.3881 4.01 29.9761 4.01C30.9934 4.01 31.7774 4.25733 32.3281 4.752C32.8787 5.24667 33.1541 6.00267 33.1541 7.02V11.5H31.8801ZM29.4441 11.584C28.8934 11.584 28.4081 11.4907 27.9881 11.304C27.5774 11.1173 27.2601 10.8607 27.0361 10.534C26.8121 10.198 26.7001 9.82 26.7001 9.4C26.7001 8.99867 26.7934 8.63467 26.9801 8.308C27.1761 7.98133 27.4887 7.72 27.9181 7.524C28.3567 7.328 28.9447 7.23 29.6821 7.23H32.0341V8.196H29.7381C29.0661 8.196 28.6134 8.308 28.3801 8.532C28.1467 8.756 28.0301 9.02667 28.0301 9.344C28.0301 9.708 28.1747 10.002 28.4641 10.226C28.7534 10.4407 29.1547 10.548 29.6681 10.548C30.1721 10.548 30.6107 10.436 30.9841 10.212C31.3667 9.988 31.6421 9.66133 31.8101 9.232L32.0761 10.156C31.8987 10.5947 31.5861 10.9447 31.1381 11.206C30.6901 11.458 30.1254 11.584 29.4441 11.584ZM35.7813 11.5V1.112H37.1253V11.5H35.7813ZM39.8314 11.5V1.112H41.1754V11.5H39.8314ZM47.0596 11.584C46.3129 11.584 45.6502 11.4207 45.0716 11.094C44.4929 10.7673 44.0356 10.3193 43.6996 9.75C43.3636 9.17133 43.1956 8.518 43.1956 7.79C43.1956 7.05267 43.3636 6.39933 43.6996 5.83C44.0356 5.26067 44.4929 4.81733 45.0716 4.5C45.6502 4.17333 46.3129 4.01 47.0596 4.01C47.7969 4.01 48.4549 4.17333 49.0336 4.5C49.6216 4.81733 50.0789 5.26067 50.4056 5.83C50.7416 6.39 50.9096 7.04333 50.9096 7.79C50.9096 8.52733 50.7416 9.18067 50.4056 9.75C50.0789 10.3193 49.6216 10.7673 49.0336 11.094C48.4549 11.4207 47.7969 11.584 47.0596 11.584ZM47.0596 10.408C47.5356 10.408 47.9602 10.3007 48.3336 10.086C48.7162 9.87133 49.0149 9.568 49.2296 9.176C49.4442 8.77467 49.5516 8.31267 49.5516 7.79C49.5516 7.258 49.4442 6.80067 49.2296 6.418C49.0149 6.026 48.7162 5.72267 48.3336 5.508C47.9602 5.29333 47.5356 5.186 47.0596 5.186C46.5836 5.186 46.1589 5.29333 45.7856 5.508C45.4122 5.72267 45.1136 6.026 44.8896 6.418C44.6656 6.80067 44.5536 7.258 44.5536 7.79C44.5536 8.31267 44.6656 8.77467 44.8896 9.176C45.1136 9.568 45.4122 9.87133 45.7856 10.086C46.1589 10.3007 46.5836 10.408 47.0596 10.408ZM56.0863 11.584C55.3396 11.584 54.677 11.4207 54.0983 11.094C53.5196 10.7673 53.0623 10.3193 52.7263 9.75C52.3903 9.17133 52.2223 8.518 52.2223 7.79C52.2223 7.05267 52.3903 6.39933 52.7263 5.83C53.0623 5.26067 53.5196 4.81733 54.0983 4.5C54.677 4.17333 55.3396 4.01 56.0863 4.01C56.8236 4.01 57.4816 4.17333 58.0603 4.5C58.6483 4.81733 59.1056 5.26067 59.4323 5.83C59.7683 6.39 59.9363 7.04333 59.9363 7.79C59.9363 8.52733 59.7683 9.18067 59.4323 9.75C59.1056 10.3193 58.6483 10.7673 58.0603 11.094C57.4816 11.4207 56.8236 11.584 56.0863 11.584ZM56.0863 10.408C56.5623 10.408 56.987 10.3007 57.3603 10.086C57.743 9.87133 58.0416 9.568 58.2563 9.176C58.471 8.77467 58.5783 8.31267 58.5783 7.79C58.5783 7.258 58.471 6.80067 58.2563 6.418C58.0416 6.026 57.743 5.72267 57.3603 5.508C56.987 5.29333 56.5623 5.186 56.0863 5.186C55.6103 5.186 55.1856 5.29333 54.8123 5.508C54.439 5.72267 54.1403 6.026 53.9163 6.418C53.6923 6.80067 53.5803 7.258 53.5803 7.79C53.5803 8.31267 53.6923 8.77467 53.9163 9.176C54.1403 9.568 54.439 9.87133 54.8123 10.086C55.1856 10.3007 55.6103 10.408 56.0863 10.408ZM65.897 4.01C66.5037 4.01 67.0357 4.12667 67.493 4.36C67.9597 4.59333 68.3237 4.948 68.585 5.424C68.8463 5.9 68.977 6.502 68.977 7.23V11.5H67.633V7.384C67.633 6.66533 67.4557 6.124 67.101 5.76C66.7557 5.396 66.2657 5.214 65.631 5.214C65.155 5.214 64.7397 5.30733 64.385 5.494C64.0303 5.68067 63.755 5.956 63.559 6.32C63.3723 6.684 63.279 7.13667 63.279 7.678V11.5H61.935V4.08H63.223V6.082L63.013 5.55C63.2557 5.06467 63.629 4.68667 64.133 4.416C64.637 4.14533 65.225 4.01 65.897 4.01ZM73.7323 11.584C73.1163 11.584 72.5283 11.5 71.9683 11.332C71.4176 11.164 70.9836 10.9587 70.6663 10.716L71.2263 9.652C71.5436 9.86667 71.9356 10.0487 72.4023 10.198C72.869 10.3473 73.345 10.422 73.8303 10.422C74.4556 10.422 74.9036 10.3333 75.1743 10.156C75.4543 9.97867 75.5943 9.73133 75.5943 9.414C75.5943 9.18067 75.5103 8.99867 75.3423 8.868C75.1743 8.73733 74.9503 8.63933 74.6703 8.574C74.3996 8.50867 74.0963 8.45267 73.7603 8.406C73.4243 8.35 73.0883 8.28467 72.7523 8.21C72.4163 8.126 72.1083 8.014 71.8283 7.874C71.5483 7.72467 71.3243 7.524 71.1563 7.272C70.9883 7.01067 70.9043 6.66533 70.9043 6.236C70.9043 5.788 71.0303 5.396 71.2823 5.06C71.5343 4.724 71.889 4.46733 72.3463 4.29C72.813 4.10333 73.3636 4.01 73.9983 4.01C74.4836 4.01 74.9736 4.07067 75.4683 4.192C75.9723 4.304 76.383 4.46733 76.7003 4.682L76.1263 5.746C75.7903 5.522 75.4403 5.368 75.0763 5.284C74.7123 5.2 74.3483 5.158 73.9843 5.158C73.3963 5.158 72.9576 5.256 72.6683 5.452C72.379 5.63867 72.2343 5.88133 72.2343 6.18C72.2343 6.432 72.3183 6.628 72.4863 6.768C72.6636 6.89867 72.8876 7.00133 73.1583 7.076C73.4383 7.15067 73.7463 7.216 74.0823 7.272C74.4183 7.31867 74.7543 7.384 75.0903 7.468C75.4263 7.54267 75.7296 7.65 76.0003 7.79C76.2803 7.93 76.5043 8.126 76.6723 8.378C76.8496 8.63 76.9383 8.966 76.9383 9.386C76.9383 9.834 76.8076 10.2213 76.5463 10.548C76.285 10.8747 75.9163 11.1313 75.4403 11.318C74.9643 11.4953 74.395 11.584 73.7323 11.584ZM79.08 11.584C78.8187 11.584 78.5947 11.4953 78.408 11.318C78.2213 11.1313 78.128 10.898 78.128 10.618C78.128 10.338 78.2213 10.1093 78.408 9.932C78.5947 9.75467 78.8187 9.666 79.08 9.666C79.332 9.666 79.5467 9.75467 79.724 9.932C79.9107 10.1093 80.004 10.338 80.004 10.618C80.004 10.898 79.9107 11.1313 79.724 11.318C79.5467 11.4953 79.332 11.584 79.08 11.584ZM88.5814 11.5L93.0194 1.7H94.4054L98.8574 11.5H97.3874L93.4254 2.484H93.9854L90.0234 11.5H88.5814ZM90.4714 9.05L90.8494 7.93H96.3654L96.7714 9.05H90.4714ZM100.263 11.5V1.112H101.607V11.5H100.263ZM104.313 11.5V1.112H105.657V11.5H104.313ZM112.263 11.5V4.08H113.551V6.096L113.425 5.592C113.631 5.07867 113.976 4.68667 114.461 4.416C114.947 4.14533 115.544 4.01 116.253 4.01V5.312C116.197 5.30267 116.141 5.298 116.085 5.298C116.039 5.298 115.992 5.298 115.945 5.298C115.227 5.298 114.657 5.51267 114.237 5.942C113.817 6.37133 113.607 6.992 113.607 7.804V11.5H112.263ZM118.05 11.5V4.08H119.394V11.5H118.05ZM118.722 2.652C118.461 2.652 118.241 2.568 118.064 2.4C117.896 2.232 117.812 2.02667 117.812 1.784C117.812 1.532 117.896 1.322 118.064 1.154C118.241 0.986 118.461 0.902 118.722 0.902C118.983 0.902 119.198 0.986 119.366 1.154C119.543 1.31267 119.632 1.51333 119.632 1.756C119.632 2.008 119.548 2.22267 119.38 2.4C119.212 2.568 118.993 2.652 118.722 2.652ZM125.348 14.3C124.667 14.3 124.004 14.202 123.36 14.006C122.725 13.8193 122.207 13.5487 121.806 13.194L122.45 12.158C122.795 12.4567 123.22 12.69 123.724 12.858C124.228 13.0353 124.755 13.124 125.306 13.124C126.183 13.124 126.827 12.9187 127.238 12.508C127.649 12.0973 127.854 11.472 127.854 10.632V9.064L127.994 7.594L127.924 6.11V4.08H129.198V10.492C129.198 11.7987 128.871 12.76 128.218 13.376C127.565 13.992 126.608 14.3 125.348 14.3ZM125.18 11.192C124.461 11.192 123.817 11.0427 123.248 10.744C122.688 10.436 122.24 10.0113 121.904 9.47C121.577 8.92867 121.414 8.30333 121.414 7.594C121.414 6.87533 121.577 6.25 121.904 5.718C122.24 5.17667 122.688 4.75667 123.248 4.458C123.817 4.15933 124.461 4.01 125.18 4.01C125.815 4.01 126.393 4.14067 126.916 4.402C127.439 4.654 127.854 5.046 128.162 5.578C128.479 6.11 128.638 6.782 128.638 7.594C128.638 8.39667 128.479 9.064 128.162 9.596C127.854 10.128 127.439 10.5293 126.916 10.8C126.393 11.0613 125.815 11.192 125.18 11.192ZM125.334 10.016C125.829 10.016 126.267 9.91333 126.65 9.708C127.033 9.50267 127.331 9.218 127.546 8.854C127.77 8.49 127.882 8.07 127.882 7.594C127.882 7.118 127.77 6.698 127.546 6.334C127.331 5.97 127.033 5.69 126.65 5.494C126.267 5.28867 125.829 5.186 125.334 5.186C124.839 5.186 124.396 5.28867 124.004 5.494C123.621 5.69 123.318 5.97 123.094 6.334C122.879 6.698 122.772 7.118 122.772 7.594C122.772 8.07 122.879 8.49 123.094 8.854C123.318 9.218 123.621 9.50267 124.004 9.708C124.396 9.91333 124.839 10.016 125.334 10.016ZM135.868 4.01C136.475 4.01 137.007 4.12667 137.464 4.36C137.931 4.59333 138.295 4.948 138.556 5.424C138.817 5.9 138.948 6.502 138.948 7.23V11.5H137.604V7.384C137.604 6.66533 137.427 6.124 137.072 5.76C136.727 5.396 136.237 5.214 135.602 5.214C135.126 5.214 134.711 5.30733 134.356 5.494C134.001 5.68067 133.726 5.956 133.53 6.32C133.343 6.684 133.25 7.13667 133.25 7.678V11.5H131.906V1.112H133.25V6.082L132.984 5.55C133.227 5.06467 133.6 4.68667 134.104 4.416C134.608 4.14533 135.196 4.01 135.868 4.01ZM144.123 11.584C143.377 11.584 142.798 11.3833 142.387 10.982C141.977 10.5807 141.771 10.0067 141.771 9.26V2.456H143.115V9.204C143.115 9.60533 143.213 9.91333 143.409 10.128C143.615 10.3427 143.904 10.45 144.277 10.45C144.697 10.45 145.047 10.3333 145.327 10.1L145.747 11.066C145.542 11.2433 145.295 11.374 145.005 11.458C144.725 11.542 144.431 11.584 144.123 11.584ZM140.511 5.186V4.08H145.243V5.186H140.511ZM149.64 11.584C149.024 11.584 148.436 11.5 147.876 11.332C147.326 11.164 146.892 10.9587 146.574 10.716L147.134 9.652C147.452 9.86667 147.844 10.0487 148.31 10.198C148.777 10.3473 149.253 10.422 149.738 10.422C150.364 10.422 150.812 10.3333 151.082 10.156C151.362 9.97867 151.502 9.73133 151.502 9.414C151.502 9.18067 151.418 8.99867 151.25 8.868C151.082 8.73733 150.858 8.63933 150.578 8.574C150.308 8.50867 150.004 8.45267 149.668 8.406C149.332 8.35 148.996 8.28467 148.66 8.21C148.324 8.126 148.016 8.014 147.736 7.874C147.456 7.72467 147.232 7.524 147.064 7.272C146.896 7.01067 146.812 6.66533 146.812 6.236C146.812 5.788 146.938 5.396 147.19 5.06C147.442 4.724 147.797 4.46733 148.254 4.29C148.721 4.10333 149.272 4.01 149.906 4.01C150.392 4.01 150.882 4.07067 151.376 4.192C151.88 4.304 152.291 4.46733 152.608 4.682L152.034 5.746C151.698 5.522 151.348 5.368 150.984 5.284C150.62 5.2 150.256 5.158 149.892 5.158C149.304 5.158 148.866 5.256 148.576 5.452C148.287 5.63867 148.142 5.88133 148.142 6.18C148.142 6.432 148.226 6.628 148.394 6.768C148.572 6.89867 148.796 7.00133 149.066 7.076C149.346 7.15067 149.654 7.216 149.99 7.272C150.326 7.31867 150.662 7.384 150.998 7.468C151.334 7.54267 151.638 7.65 151.908 7.79C152.188 7.93 152.412 8.126 152.58 8.378C152.758 8.63 152.846 8.966 152.846 9.386C152.846 9.834 152.716 10.2213 152.454 10.548C152.193 10.8747 151.824 11.1313 151.348 11.318C150.872 11.4953 150.303 11.584 149.64 11.584ZM158.566 11.5V4.08H159.854V6.096L159.728 5.592C159.933 5.07867 160.278 4.68667 160.764 4.416C161.249 4.14533 161.846 4.01 162.556 4.01V5.312C162.5 5.30267 162.444 5.298 162.388 5.298C162.341 5.298 162.294 5.298 162.248 5.298C161.529 5.298 160.96 5.51267 160.54 5.942C160.12 6.37133 159.91 6.992 159.91 7.804V11.5H158.566ZM167.588 11.584C166.794 11.584 166.094 11.4207 165.488 11.094C164.89 10.7673 164.424 10.3193 164.088 9.75C163.761 9.18067 163.598 8.52733 163.598 7.79C163.598 7.05267 163.756 6.39933 164.074 5.83C164.4 5.26067 164.844 4.81733 165.404 4.5C165.973 4.17333 166.612 4.01 167.322 4.01C168.04 4.01 168.675 4.16867 169.226 4.486C169.776 4.80333 170.206 5.25133 170.514 5.83C170.831 6.39933 170.99 7.06667 170.99 7.832C170.99 7.888 170.985 7.95333 170.976 8.028C170.976 8.10267 170.971 8.17267 170.962 8.238H164.648V7.272H170.262L169.716 7.608C169.725 7.132 169.627 6.70733 169.422 6.334C169.216 5.96067 168.932 5.67133 168.568 5.466C168.213 5.25133 167.798 5.144 167.322 5.144C166.855 5.144 166.44 5.25133 166.076 5.466C165.712 5.67133 165.427 5.96533 165.222 6.348C165.016 6.72133 164.914 7.15067 164.914 7.636V7.86C164.914 8.35467 165.026 8.798 165.25 9.19C165.483 9.57267 165.805 9.87133 166.216 10.086C166.626 10.3007 167.098 10.408 167.63 10.408C168.068 10.408 168.465 10.3333 168.82 10.184C169.184 10.0347 169.501 9.81067 169.772 9.512L170.514 10.38C170.178 10.772 169.758 11.0707 169.254 11.276C168.759 11.4813 168.204 11.584 167.588 11.584ZM175.124 11.584C174.508 11.584 173.92 11.5 173.36 11.332C172.809 11.164 172.375 10.9587 172.058 10.716L172.618 9.652C172.935 9.86667 173.327 10.0487 173.794 10.198C174.261 10.3473 174.737 10.422 175.222 10.422C175.847 10.422 176.295 10.3333 176.566 10.156C176.846 9.97867 176.986 9.73133 176.986 9.414C176.986 9.18067 176.902 8.99867 176.734 8.868C176.566 8.73733 176.342 8.63933 176.062 8.574C175.791 8.50867 175.488 8.45267 175.152 8.406C174.816 8.35 174.48 8.28467 174.144 8.21C173.808 8.126 173.5 8.014 173.22 7.874C172.94 7.72467 172.716 7.524 172.548 7.272C172.38 7.01067 172.296 6.66533 172.296 6.236C172.296 5.788 172.422 5.396 172.674 5.06C172.926 4.724 173.281 4.46733 173.738 4.29C174.205 4.10333 174.755 4.01 175.39 4.01C175.875 4.01 176.365 4.07067 176.86 4.192C177.364 4.304 177.775 4.46733 178.092 4.682L177.518 5.746C177.182 5.522 176.832 5.368 176.468 5.284C176.104 5.2 175.74 5.158 175.376 5.158C174.788 5.158 174.349 5.256 174.06 5.452C173.771 5.63867 173.626 5.88133 173.626 6.18C173.626 6.432 173.71 6.628 173.878 6.768C174.055 6.89867 174.279 7.00133 174.55 7.076C174.83 7.15067 175.138 7.216 175.474 7.272C175.81 7.31867 176.146 7.384 176.482 7.468C176.818 7.54267 177.121 7.65 177.392 7.79C177.672 7.93 177.896 8.126 178.064 8.378C178.241 8.63 178.33 8.966 178.33 9.386C178.33 9.834 178.199 10.2213 177.938 10.548C177.677 10.8747 177.308 11.1313 176.832 11.318C176.356 11.4953 175.787 11.584 175.124 11.584ZM183.454 11.584C182.66 11.584 181.96 11.4207 181.354 11.094C180.756 10.7673 180.29 10.3193 179.954 9.75C179.627 9.18067 179.464 8.52733 179.464 7.79C179.464 7.05267 179.622 6.39933 179.94 5.83C180.266 5.26067 180.71 4.81733 181.27 4.5C181.839 4.17333 182.478 4.01 183.188 4.01C183.906 4.01 184.541 4.16867 185.092 4.486C185.642 4.80333 186.072 5.25133 186.38 5.83C186.697 6.39933 186.856 7.06667 186.856 7.832C186.856 7.888 186.851 7.95333 186.842 8.028C186.842 8.10267 186.837 8.17267 186.828 8.238H180.514V7.272H186.128L185.582 7.608C185.591 7.132 185.493 6.70733 185.288 6.334C185.082 5.96067 184.798 5.67133 184.434 5.466C184.079 5.25133 183.664 5.144 183.188 5.144C182.721 5.144 182.306 5.25133 181.942 5.466C181.578 5.67133 181.293 5.96533 181.088 6.348C180.882 6.72133 180.78 7.15067 180.78 7.636V7.86C180.78 8.35467 180.892 8.798 181.116 9.19C181.349 9.57267 181.671 9.87133 182.082 10.086C182.492 10.3007 182.964 10.408 183.496 10.408C183.934 10.408 184.331 10.3333 184.686 10.184C185.05 10.0347 185.367 9.81067 185.638 9.512L186.38 10.38C186.044 10.772 185.624 11.0707 185.12 11.276C184.625 11.4813 184.07 11.584 183.454 11.584ZM188.862 11.5V4.08H190.15V6.096L190.024 5.592C190.229 5.07867 190.575 4.68667 191.06 4.416C191.545 4.14533 192.143 4.01 192.852 4.01V5.312C192.796 5.30267 192.74 5.298 192.684 5.298C192.637 5.298 192.591 5.298 192.544 5.298C191.825 5.298 191.256 5.51267 190.836 5.942C190.416 6.37133 190.206 6.992 190.206 7.804V11.5H188.862ZM196.895 11.5L193.647 4.08H195.047L197.931 10.8H197.259L200.199 4.08H201.515L198.267 11.5H196.895ZM206.008 11.584C205.215 11.584 204.515 11.4207 203.908 11.094C203.311 10.7673 202.844 10.3193 202.508 9.75C202.182 9.18067 202.018 8.52733 202.018 7.79C202.018 7.05267 202.177 6.39933 202.494 5.83C202.821 5.26067 203.264 4.81733 203.824 4.5C204.394 4.17333 205.033 4.01 205.742 4.01C206.461 4.01 207.096 4.16867 207.646 4.486C208.197 4.80333 208.626 5.25133 208.934 5.83C209.252 6.39933 209.41 7.06667 209.41 7.832C209.41 7.888 209.406 7.95333 209.396 8.028C209.396 8.10267 209.392 8.17267 209.382 8.238H203.068V7.272H208.682L208.136 7.608C208.146 7.132 208.048 6.70733 207.842 6.334C207.637 5.96067 207.352 5.67133 206.988 5.466C206.634 5.25133 206.218 5.144 205.742 5.144C205.276 5.144 204.86 5.25133 204.496 5.466C204.132 5.67133 203.848 5.96533 203.642 6.348C203.437 6.72133 203.334 7.15067 203.334 7.636V7.86C203.334 8.35467 203.446 8.798 203.67 9.19C203.904 9.57267 204.226 9.87133 204.636 10.086C205.047 10.3007 205.518 10.408 206.05 10.408C206.489 10.408 206.886 10.3333 207.24 10.184C207.604 10.0347 207.922 9.81067 208.192 9.512L208.934 10.38C208.598 10.772 208.178 11.0707 207.674 11.276C207.18 11.4813 206.624 11.584 206.008 11.584ZM214.483 11.584C213.764 11.584 213.12 11.4253 212.551 11.108C211.991 10.7907 211.547 10.3473 211.221 9.778C210.894 9.20867 210.731 8.546 210.731 7.79C210.731 7.034 210.894 6.376 211.221 5.816C211.547 5.24667 211.991 4.80333 212.551 4.486C213.12 4.16867 213.764 4.01 214.483 4.01C215.108 4.01 215.673 4.15 216.177 4.43C216.681 4.71 217.082 5.13 217.381 5.69C217.689 6.25 217.843 6.95 217.843 7.79C217.843 8.63 217.693 9.33 217.395 9.89C217.105 10.45 216.709 10.8747 216.205 11.164C215.701 11.444 215.127 11.584 214.483 11.584ZM214.595 10.408C215.061 10.408 215.481 10.3007 215.855 10.086C216.237 9.87133 216.536 9.568 216.751 9.176C216.975 8.77467 217.087 8.31267 217.087 7.79C217.087 7.258 216.975 6.80067 216.751 6.418C216.536 6.026 216.237 5.72267 215.855 5.508C215.481 5.29333 215.061 5.186 214.595 5.186C214.119 5.186 213.694 5.29333 213.321 5.508C212.947 5.72267 212.649 6.026 212.425 6.418C212.201 6.80067 212.089 7.258 212.089 7.79C212.089 8.31267 212.201 8.77467 212.425 9.176C212.649 9.568 212.947 9.87133 213.321 10.086C213.694 10.3007 214.119 10.408 214.595 10.408ZM217.129 11.5V9.498L217.213 7.776L217.073 6.054V1.112H218.417V11.5H217.129ZM224.243 11.5V10.548L228.233 6.698C228.588 6.362 228.849 6.068 229.017 5.816C229.195 5.55467 229.311 5.31667 229.367 5.102C229.433 4.878 229.465 4.66333 229.465 4.458C229.465 3.954 229.288 3.55733 228.933 3.268C228.579 2.97867 228.061 2.834 227.379 2.834C226.857 2.834 226.385 2.92267 225.965 3.1C225.545 3.268 225.181 3.534 224.873 3.898L223.921 3.072C224.295 2.596 224.794 2.232 225.419 1.98C226.054 1.71867 226.749 1.588 227.505 1.588C228.187 1.588 228.779 1.7 229.283 1.924C229.787 2.13867 230.175 2.45133 230.445 2.862C230.725 3.27267 230.865 3.758 230.865 4.318C230.865 4.63533 230.823 4.948 230.739 5.256C230.655 5.564 230.497 5.89067 230.263 6.236C230.03 6.58133 229.694 6.96867 229.255 7.398L225.699 10.828L225.363 10.282H231.285V11.5H224.243ZM236.567 11.612C235.802 11.612 235.116 11.416 234.509 11.024C233.912 10.632 233.436 10.0627 233.081 9.316C232.736 8.56933 232.563 7.664 232.563 6.6C232.563 5.536 232.736 4.63067 233.081 3.884C233.436 3.13733 233.912 2.568 234.509 2.176C235.116 1.784 235.802 1.588 236.567 1.588C237.323 1.588 238.004 1.784 238.611 2.176C239.218 2.568 239.694 3.13733 240.039 3.884C240.384 4.63067 240.557 5.536 240.557 6.6C240.557 7.664 240.384 8.56933 240.039 9.316C239.694 10.0627 239.218 10.632 238.611 11.024C238.004 11.416 237.323 11.612 236.567 11.612ZM236.567 10.366C237.08 10.366 237.528 10.226 237.911 9.946C238.303 9.666 238.606 9.246 238.821 8.686C239.045 8.126 239.157 7.43067 239.157 6.6C239.157 5.76933 239.045 5.074 238.821 4.514C238.606 3.954 238.303 3.534 237.911 3.254C237.528 2.974 237.08 2.834 236.567 2.834C236.054 2.834 235.601 2.974 235.209 3.254C234.817 3.534 234.509 3.954 234.285 4.514C234.07 5.074 233.963 5.76933 233.963 6.6C233.963 7.43067 234.07 8.126 234.285 8.686C234.509 9.246 234.817 9.666 235.209 9.946C235.601 10.226 236.054 10.366 236.567 10.366ZM241.887 11.5V10.548L245.877 6.698C246.231 6.362 246.493 6.068 246.661 5.816C246.838 5.55467 246.955 5.31667 247.011 5.102C247.076 4.878 247.109 4.66333 247.109 4.458C247.109 3.954 246.931 3.55733 246.577 3.268C246.222 2.97867 245.704 2.834 245.023 2.834C244.5 2.834 244.029 2.92267 243.609 3.1C243.189 3.268 242.825 3.534 242.517 3.898L241.565 3.072C241.938 2.596 242.437 2.232 243.063 1.98C243.697 1.71867 244.393 1.588 245.149 1.588C245.83 1.588 246.423 1.7 246.927 1.924C247.431 2.13867 247.818 2.45133 248.089 2.862C248.369 3.27267 248.509 3.758 248.509 4.318C248.509 4.63533 248.467 4.948 248.383 5.256C248.299 5.564 248.14 5.89067 247.907 6.236C247.673 6.58133 247.337 6.96867 246.899 7.398L243.343 10.828L243.007 10.282H248.929V11.5H241.887ZM250.066 11.5V10.548L254.056 6.698C254.41 6.362 254.672 6.068 254.84 5.816C255.017 5.55467 255.134 5.31667 255.19 5.102C255.255 4.878 255.288 4.66333 255.288 4.458C255.288 3.954 255.11 3.55733 254.756 3.268C254.401 2.97867 253.883 2.834 253.202 2.834C252.679 2.834 252.208 2.92267 251.788 3.1C251.368 3.268 251.004 3.534 250.696 3.898L249.744 3.072C250.117 2.596 250.616 2.232 251.242 1.98C251.876 1.71867 252.572 1.588 253.328 1.588C254.009 1.588 254.602 1.7 255.106 1.924C255.61 2.13867 255.997 2.45133 256.268 2.862C256.548 3.27267 256.688 3.758 256.688 4.318C256.688 4.63533 256.646 4.948 256.562 5.256C256.478 5.564 256.319 5.89067 256.086 6.236C255.852 6.58133 255.516 6.96867 255.078 7.398L251.522 10.828L251.186 10.282H257.108V11.5H250.066Z" fill="#171719"/>
<path d="M5.6 11.542C4.9 11.542 4.25133 11.416 3.654 11.164C3.05667 10.912 2.534 10.562 2.086 10.114C1.638 9.65667 1.288 9.12933 1.036 8.532C0.793333 7.93467 0.672 7.29067 0.672 6.6C0.672 5.90933 0.798 5.26533 1.05 4.668C1.302 4.07067 1.652 3.548 2.1 3.1C2.548 2.64267 3.07067 2.288 3.668 2.036C4.27467 1.784 4.928 1.658 5.628 1.658C6.328 1.658 6.97667 1.784 7.574 2.036C8.18067 2.27867 8.70333 2.624 9.142 3.072C9.59 3.52 9.93533 4.04267 10.178 4.64C10.43 5.228 10.556 5.872 10.556 6.572C10.556 7.272 10.43 7.92533 10.178 8.532C9.926 9.12933 9.57133 9.65667 9.114 10.114C8.666 10.562 8.14333 10.912 7.546 11.164C6.94867 11.416 6.3 11.542 5.6 11.542ZM5.6 10.912C6.20667 10.912 6.77133 10.8 7.294 10.576C7.81667 10.352 8.274 10.044 8.666 9.652C9.058 9.26 9.36133 8.80267 9.576 8.28C9.79067 7.748 9.898 7.17867 9.898 6.572C9.898 5.96533 9.79067 5.40067 9.576 4.878C9.36133 4.35533 9.06267 3.90267 8.68 3.52C8.29733 3.13733 7.84467 2.83867 7.322 2.624C6.80867 2.4 6.244 2.288 5.628 2.288C5.012 2.288 4.438 2.4 3.906 2.624C3.38333 2.83867 2.93067 3.14667 2.548 3.548C2.16533 3.94 1.86667 4.39733 1.652 4.92C1.43733 5.43333 1.33 5.99333 1.33 6.6C1.33 7.20667 1.43733 7.77133 1.652 8.294C1.86667 8.81667 2.16533 9.274 2.548 9.666C2.93067 10.058 3.38333 10.366 3.906 10.59C4.42867 10.8047 4.99333 10.912 5.6 10.912ZM5.754 9.484C5.18467 9.484 4.676 9.36267 4.228 9.12C3.78 8.87733 3.43 8.54133 3.178 8.112C2.926 7.67333 2.8 7.16933 2.8 6.6C2.8 6.03067 2.926 5.53133 3.178 5.102C3.43 4.66333 3.78 4.32267 4.228 4.08C4.676 3.83733 5.18467 3.716 5.754 3.716C6.24867 3.716 6.692 3.81867 7.084 4.024C7.48533 4.22 7.798 4.49533 8.022 4.85L7.224 5.424C7.04667 5.16267 6.82733 4.97133 6.566 4.85C6.314 4.72867 6.03867 4.668 5.74 4.668C5.376 4.668 5.054 4.752 4.774 4.92C4.50333 5.07867 4.284 5.30267 4.116 5.592C3.948 5.872 3.864 6.208 3.864 6.6C3.864 6.992 3.948 7.33267 4.116 7.622C4.284 7.902 4.50333 8.126 4.774 8.294C5.054 8.45267 5.376 8.532 5.74 8.532C6.03867 8.532 6.314 8.47133 6.566 8.35C6.82733 8.22867 7.04667 8.03733 7.224 7.776L8.022 8.336C7.798 8.69067 7.48533 8.97067 7.084 9.176C6.692 9.38133 6.24867 9.484 5.754 9.484ZM16.7344 11.5V1.7H21.1304C22.2597 1.7 23.1277 1.92867 23.7344 2.386C24.341 2.834 24.6444 3.45 24.6444 4.234C24.6444 4.766 24.523 5.214 24.2804 5.578C24.047 5.942 23.7297 6.222 23.3284 6.418C22.927 6.614 22.493 6.712 22.0264 6.712L22.2784 6.292C22.8384 6.292 23.333 6.39 23.7624 6.586C24.1917 6.782 24.5324 7.07133 24.7844 7.454C25.0364 7.82733 25.1624 8.294 25.1624 8.854C25.1624 9.694 24.845 10.3473 24.2104 10.814C23.585 11.2713 22.6517 11.5 21.4104 11.5H16.7344ZM18.1344 10.366H21.3544C22.129 10.366 22.7217 10.2353 23.1324 9.974C23.543 9.71267 23.7484 9.302 23.7484 8.742C23.7484 8.17267 23.543 7.75733 23.1324 7.496C22.7217 7.23467 22.129 7.104 21.3544 7.104H18.0084V5.97H21.0044C21.7137 5.97 22.2644 5.83933 22.6564 5.578C23.0484 5.31667 23.2444 4.92467 23.2444 4.402C23.2444 3.87933 23.0484 3.48733 22.6564 3.226C22.2644 2.96467 21.7137 2.834 21.0044 2.834H18.1344V10.366ZM31.8801 11.5V9.932L31.8101 9.638V6.964C31.8101 6.39467 31.6421 5.956 31.3061 5.648C30.9794 5.33067 30.4847 5.172 29.8221 5.172C29.3834 5.172 28.9541 5.24667 28.5341 5.396C28.1141 5.536 27.7594 5.72733 27.4701 5.97L26.9101 4.962C27.2927 4.654 27.7501 4.42067 28.2821 4.262C28.8234 4.094 29.3881 4.01 29.9761 4.01C30.9934 4.01 31.7774 4.25733 32.3281 4.752C32.8787 5.24667 33.1541 6.00267 33.1541 7.02V11.5H31.8801ZM29.4441 11.584C28.8934 11.584 28.4081 11.4907 27.9881 11.304C27.5774 11.1173 27.2601 10.8607 27.0361 10.534C26.8121 10.198 26.7001 9.82 26.7001 9.4C26.7001 8.99867 26.7934 8.63467 26.9801 8.308C27.1761 7.98133 27.4887 7.72 27.9181 7.524C28.3567 7.328 28.9447 7.23 29.6821 7.23H32.0341V8.196H29.7381C29.0661 8.196 28.6134 8.308 28.3801 8.532C28.1467 8.756 28.0301 9.02667 28.0301 9.344C28.0301 9.708 28.1747 10.002 28.4641 10.226C28.7534 10.4407 29.1547 10.548 29.6681 10.548C30.1721 10.548 30.6107 10.436 30.9841 10.212C31.3667 9.988 31.6421 9.66133 31.8101 9.232L32.0761 10.156C31.8987 10.5947 31.5861 10.9447 31.1381 11.206C30.6901 11.458 30.1254 11.584 29.4441 11.584ZM35.7813 11.5V1.112H37.1253V11.5H35.7813ZM39.8314 11.5V1.112H41.1754V11.5H39.8314ZM47.0596 11.584C46.3129 11.584 45.6502 11.4207 45.0716 11.094C44.4929 10.7673 44.0356 10.3193 43.6996 9.75C43.3636 9.17133 43.1956 8.518 43.1956 7.79C43.1956 7.05267 43.3636 6.39933 43.6996 5.83C44.0356 5.26067 44.4929 4.81733 45.0716 4.5C45.6502 4.17333 46.3129 4.01 47.0596 4.01C47.7969 4.01 48.4549 4.17333 49.0336 4.5C49.6216 4.81733 50.0789 5.26067 50.4056 5.83C50.7416 6.39 50.9096 7.04333 50.9096 7.79C50.9096 8.52733 50.7416 9.18067 50.4056 9.75C50.0789 10.3193 49.6216 10.7673 49.0336 11.094C48.4549 11.4207 47.7969 11.584 47.0596 11.584ZM47.0596 10.408C47.5356 10.408 47.9602 10.3007 48.3336 10.086C48.7162 9.87133 49.0149 9.568 49.2296 9.176C49.4442 8.77467 49.5516 8.31267 49.5516 7.79C49.5516 7.258 49.4442 6.80067 49.2296 6.418C49.0149 6.026 48.7162 5.72267 48.3336 5.508C47.9602 5.29333 47.5356 5.186 47.0596 5.186C46.5836 5.186 46.1589 5.29333 45.7856 5.508C45.4122 5.72267 45.1136 6.026 44.8896 6.418C44.6656 6.80067 44.5536 7.258 44.5536 7.79C44.5536 8.31267 44.6656 8.77467 44.8896 9.176C45.1136 9.568 45.4122 9.87133 45.7856 10.086C46.1589 10.3007 46.5836 10.408 47.0596 10.408ZM56.0863 11.584C55.3396 11.584 54.677 11.4207 54.0983 11.094C53.5196 10.7673 53.0623 10.3193 52.7263 9.75C52.3903 9.17133 52.2223 8.518 52.2223 7.79C52.2223 7.05267 52.3903 6.39933 52.7263 5.83C53.0623 5.26067 53.5196 4.81733 54.0983 4.5C54.677 4.17333 55.3396 4.01 56.0863 4.01C56.8236 4.01 57.4816 4.17333 58.0603 4.5C58.6483 4.81733 59.1056 5.26067 59.4323 5.83C59.7683 6.39 59.9363 7.04333 59.9363 7.79C59.9363 8.52733 59.7683 9.18067 59.4323 9.75C59.1056 10.3193 58.6483 10.7673 58.0603 11.094C57.4816 11.4207 56.8236 11.584 56.0863 11.584ZM56.0863 10.408C56.5623 10.408 56.987 10.3007 57.3603 10.086C57.743 9.87133 58.0416 9.568 58.2563 9.176C58.471 8.77467 58.5783 8.31267 58.5783 7.79C58.5783 7.258 58.471 6.80067 58.2563 6.418C58.0416 6.026 57.743 5.72267 57.3603 5.508C56.987 5.29333 56.5623 5.186 56.0863 5.186C55.6103 5.186 55.1856 5.29333 54.8123 5.508C54.439 5.72267 54.1403 6.026 53.9163 6.418C53.6923 6.80067 53.5803 7.258 53.5803 7.79C53.5803 8.31267 53.6923 8.77467 53.9163 9.176C54.1403 9.568 54.439 9.87133 54.8123 10.086C55.1856 10.3007 55.6103 10.408 56.0863 10.408ZM65.897 4.01C66.5037 4.01 67.0357 4.12667 67.493 4.36C67.9597 4.59333 68.3237 4.948 68.585 5.424C68.8463 5.9 68.977 6.502 68.977 7.23V11.5H67.633V7.384C67.633 6.66533 67.4557 6.124 67.101 5.76C66.7557 5.396 66.2657 5.214 65.631 5.214C65.155 5.214 64.7397 5.30733 64.385 5.494C64.0303 5.68067 63.755 5.956 63.559 6.32C63.3723 6.684 63.279 7.13667 63.279 7.678V11.5H61.935V4.08H63.223V6.082L63.013 5.55C63.2557 5.06467 63.629 4.68667 64.133 4.416C64.637 4.14533 65.225 4.01 65.897 4.01ZM73.7323 11.584C73.1163 11.584 72.5283 11.5 71.9683 11.332C71.4176 11.164 70.9836 10.9587 70.6663 10.716L71.2263 9.652C71.5436 9.86667 71.9356 10.0487 72.4023 10.198C72.869 10.3473 73.345 10.422 73.8303 10.422C74.4556 10.422 74.9036 10.3333 75.1743 10.156C75.4543 9.97867 75.5943 9.73133 75.5943 9.414C75.5943 9.18067 75.5103 8.99867 75.3423 8.868C75.1743 8.73733 74.9503 8.63933 74.6703 8.574C74.3996 8.50867 74.0963 8.45267 73.7603 8.406C73.4243 8.35 73.0883 8.28467 72.7523 8.21C72.4163 8.126 72.1083 8.014 71.8283 7.874C71.5483 7.72467 71.3243 7.524 71.1563 7.272C70.9883 7.01067 70.9043 6.66533 70.9043 6.236C70.9043 5.788 71.0303 5.396 71.2823 5.06C71.5343 4.724 71.889 4.46733 72.3463 4.29C72.813 4.10333 73.3636 4.01 73.9983 4.01C74.4836 4.01 74.9736 4.07067 75.4683 4.192C75.9723 4.304 76.383 4.46733 76.7003 4.682L76.1263 5.746C75.7903 5.522 75.4403 5.368 75.0763 5.284C74.7123 5.2 74.3483 5.158 73.9843 5.158C73.3963 5.158 72.9576 5.256 72.6683 5.452C72.379 5.63867 72.2343 5.88133 72.2343 6.18C72.2343 6.432 72.3183 6.628 72.4863 6.768C72.6636 6.89867 72.8876 7.00133 73.1583 7.076C73.4383 7.15067 73.7463 7.216 74.0823 7.272C74.4183 7.31867 74.7543 7.384 75.0903 7.468C75.4263 7.54267 75.7296 7.65 76.0003 7.79C76.2803 7.93 76.5043 8.126 76.6723 8.378C76.8496 8.63 76.9383 8.966 76.9383 9.386C76.9383 9.834 76.8076 10.2213 76.5463 10.548C76.285 10.8747 75.9163 11.1313 75.4403 11.318C74.9643 11.4953 74.395 11.584 73.7323 11.584ZM79.08 11.584C78.8187 11.584 78.5947 11.4953 78.408 11.318C78.2213 11.1313 78.128 10.898 78.128 10.618C78.128 10.338 78.2213 10.1093 78.408 9.932C78.5947 9.75467 78.8187 9.666 79.08 9.666C79.332 9.666 79.5467 9.75467 79.724 9.932C79.9107 10.1093 80.004 10.338 80.004 10.618C80.004 10.898 79.9107 11.1313 79.724 11.318C79.5467 11.4953 79.332 11.584 79.08 11.584ZM88.5814 11.5L93.0194 1.7H94.4054L98.8574 11.5H97.3874L93.4254 2.484H93.9854L90.0234 11.5H88.5814ZM90.4714 9.05L90.8494 7.93H96.3654L96.7714 9.05H90.4714ZM100.263 11.5V1.112H101.607V11.5H100.263ZM104.313 11.5V1.112H105.657V11.5H104.313ZM112.263 11.5V4.08H113.551V6.096L113.425 5.592C113.631 5.07867 113.976 4.68667 114.461 4.416C114.947 4.14533 115.544 4.01 116.253 4.01V5.312C116.197 5.30267 116.141 5.298 116.085 5.298C116.039 5.298 115.992 5.298 115.945 5.298C115.227 5.298 114.657 5.51267 114.237 5.942C113.817 6.37133 113.607 6.992 113.607 7.804V11.5H112.263ZM118.05 11.5V4.08H119.394V11.5H118.05ZM118.722 2.652C118.461 2.652 118.241 2.568 118.064 2.4C117.896 2.232 117.812 2.02667 117.812 1.784C117.812 1.532 117.896 1.322 118.064 1.154C118.241 0.986 118.461 0.902 118.722 0.902C118.983 0.902 119.198 0.986 119.366 1.154C119.543 1.31267 119.632 1.51333 119.632 1.756C119.632 2.008 119.548 2.22267 119.38 2.4C119.212 2.568 118.993 2.652 118.722 2.652ZM125.348 14.3C124.667 14.3 124.004 14.202 123.36 14.006C122.725 13.8193 122.207 13.5487 121.806 13.194L122.45 12.158C122.795 12.4567 123.22 12.69 123.724 12.858C124.228 13.0353 124.755 13.124 125.306 13.124C126.183 13.124 126.827 12.9187 127.238 12.508C127.649 12.0973 127.854 11.472 127.854 10.632V9.064L127.994 7.594L127.924 6.11V4.08H129.198V10.492C129.198 11.7987 128.871 12.76 128.218 13.376C127.565 13.992 126.608 14.3 125.348 14.3ZM125.18 11.192C124.461 11.192 123.817 11.0427 123.248 10.744C122.688 10.436 122.24 10.0113 121.904 9.47C121.577 8.92867 121.414 8.30333 121.414 7.594C121.414 6.87533 121.577 6.25 121.904 5.718C122.24 5.17667 122.688 4.75667 123.248 4.458C123.817 4.15933 124.461 4.01 125.18 4.01C125.815 4.01 126.393 4.14067 126.916 4.402C127.439 4.654 127.854 5.046 128.162 5.578C128.479 6.11 128.638 6.782 128.638 7.594C128.638 8.39667 128.479 9.064 128.162 9.596C127.854 10.128 127.439 10.5293 126.916 10.8C126.393 11.0613 125.815 11.192 125.18 11.192ZM125.334 10.016C125.829 10.016 126.267 9.91333 126.65 9.708C127.033 9.50267 127.331 9.218 127.546 8.854C127.77 8.49 127.882 8.07 127.882 7.594C127.882 7.118 127.77 6.698 127.546 6.334C127.331 5.97 127.033 5.69 126.65 5.494C126.267 5.28867 125.829 5.186 125.334 5.186C124.839 5.186 124.396 5.28867 124.004 5.494C123.621 5.69 123.318 5.97 123.094 6.334C122.879 6.698 122.772 7.118 122.772 7.594C122.772 8.07 122.879 8.49 123.094 8.854C123.318 9.218 123.621 9.50267 124.004 9.708C124.396 9.91333 124.839 10.016 125.334 10.016ZM135.868 4.01C136.475 4.01 137.007 4.12667 137.464 4.36C137.931 4.59333 138.295 4.948 138.556 5.424C138.817 5.9 138.948 6.502 138.948 7.23V11.5H137.604V7.384C137.604 6.66533 137.427 6.124 137.072 5.76C136.727 5.396 136.237 5.214 135.602 5.214C135.126 5.214 134.711 5.30733 134.356 5.494C134.001 5.68067 133.726 5.956 133.53 6.32C133.343 6.684 133.25 7.13667 133.25 7.678V11.5H131.906V1.112H133.25V6.082L132.984 5.55C133.227 5.06467 133.6 4.68667 134.104 4.416C134.608 4.14533 135.196 4.01 135.868 4.01ZM144.123 11.584C143.377 11.584 142.798 11.3833 142.387 10.982C141.977 10.5807 141.771 10.0067 141.771 9.26V2.456H143.115V9.204C143.115 9.60533 143.213 9.91333 143.409 10.128C143.615 10.3427 143.904 10.45 144.277 10.45C144.697 10.45 145.047 10.3333 145.327 10.1L145.747 11.066C145.542 11.2433 145.295 11.374 145.005 11.458C144.725 11.542 144.431 11.584 144.123 11.584ZM140.511 5.186V4.08H145.243V5.186H140.511ZM149.64 11.584C149.024 11.584 148.436 11.5 147.876 11.332C147.326 11.164 146.892 10.9587 146.574 10.716L147.134 9.652C147.452 9.86667 147.844 10.0487 148.31 10.198C148.777 10.3473 149.253 10.422 149.738 10.422C150.364 10.422 150.812 10.3333 151.082 10.156C151.362 9.97867 151.502 9.73133 151.502 9.414C151.502 9.18067 151.418 8.99867 151.25 8.868C151.082 8.73733 150.858 8.63933 150.578 8.574C150.308 8.50867 150.004 8.45267 149.668 8.406C149.332 8.35 148.996 8.28467 148.66 8.21C148.324 8.126 148.016 8.014 147.736 7.874C147.456 7.72467 147.232 7.524 147.064 7.272C146.896 7.01067 146.812 6.66533 146.812 6.236C146.812 5.788 146.938 5.396 147.19 5.06C147.442 4.724 147.797 4.46733 148.254 4.29C148.721 4.10333 149.272 4.01 149.906 4.01C150.392 4.01 150.882 4.07067 151.376 4.192C151.88 4.304 152.291 4.46733 152.608 4.682L152.034 5.746C151.698 5.522 151.348 5.368 150.984 5.284C150.62 5.2 150.256 5.158 149.892 5.158C149.304 5.158 148.866 5.256 148.576 5.452C148.287 5.63867 148.142 5.88133 148.142 6.18C148.142 6.432 148.226 6.628 148.394 6.768C148.572 6.89867 148.796 7.00133 149.066 7.076C149.346 7.15067 149.654 7.216 149.99 7.272C150.326 7.31867 150.662 7.384 150.998 7.468C151.334 7.54267 151.638 7.65 151.908 7.79C152.188 7.93 152.412 8.126 152.58 8.378C152.758 8.63 152.846 8.966 152.846 9.386C152.846 9.834 152.716 10.2213 152.454 10.548C152.193 10.8747 151.824 11.1313 151.348 11.318C150.872 11.4953 150.303 11.584 149.64 11.584ZM158.566 11.5V4.08H159.854V6.096L159.728 5.592C159.933 5.07867 160.278 4.68667 160.764 4.416C161.249 4.14533 161.846 4.01 162.556 4.01V5.312C162.5 5.30267 162.444 5.298 162.388 5.298C162.341 5.298 162.294 5.298 162.248 5.298C161.529 5.298 160.96 5.51267 160.54 5.942C160.12 6.37133 159.91 6.992 159.91 7.804V11.5H158.566ZM167.588 11.584C166.794 11.584 166.094 11.4207 165.488 11.094C164.89 10.7673 164.424 10.3193 164.088 9.75C163.761 9.18067 163.598 8.52733 163.598 7.79C163.598 7.05267 163.756 6.39933 164.074 5.83C164.4 5.26067 164.844 4.81733 165.404 4.5C165.973 4.17333 166.612 4.01 167.322 4.01C168.04 4.01 168.675 4.16867 169.226 4.486C169.776 4.80333 170.206 5.25133 170.514 5.83C170.831 6.39933 170.99 7.06667 170.99 7.832C170.99 7.888 170.985 7.95333 170.976 8.028C170.976 8.10267 170.971 8.17267 170.962 8.238H164.648V7.272H170.262L169.716 7.608C169.725 7.132 169.627 6.70733 169.422 6.334C169.216 5.96067 168.932 5.67133 168.568 5.466C168.213 5.25133 167.798 5.144 167.322 5.144C166.855 5.144 166.44 5.25133 166.076 5.466C165.712 5.67133 165.427 5.96533 165.222 6.348C165.016 6.72133 164.914 7.15067 164.914 7.636V7.86C164.914 8.35467 165.026 8.798 165.25 9.19C165.483 9.57267 165.805 9.87133 166.216 10.086C166.626 10.3007 167.098 10.408 167.63 10.408C168.068 10.408 168.465 10.3333 168.82 10.184C169.184 10.0347 169.501 9.81067 169.772 9.512L170.514 10.38C170.178 10.772 169.758 11.0707 169.254 11.276C168.759 11.4813 168.204 11.584 167.588 11.584ZM175.124 11.584C174.508 11.584 173.92 11.5 173.36 11.332C172.809 11.164 172.375 10.9587 172.058 10.716L172.618 9.652C172.935 9.86667 173.327 10.0487 173.794 10.198C174.261 10.3473 174.737 10.422 175.222 10.422C175.847 10.422 176.295 10.3333 176.566 10.156C176.846 9.97867 176.986 9.73133 176.986 9.414C176.986 9.18067 176.902 8.99867 176.734 8.868C176.566 8.73733 176.342 8.63933 176.062 8.574C175.791 8.50867 175.488 8.45267 175.152 8.406C174.816 8.35 174.48 8.28467 174.144 8.21C173.808 8.126 173.5 8.014 173.22 7.874C172.94 7.72467 172.716 7.524 172.548 7.272C172.38 7.01067 172.296 6.66533 172.296 6.236C172.296 5.788 172.422 5.396 172.674 5.06C172.926 4.724 173.281 4.46733 173.738 4.29C174.205 4.10333 174.755 4.01 175.39 4.01C175.875 4.01 176.365 4.07067 176.86 4.192C177.364 4.304 177.775 4.46733 178.092 4.682L177.518 5.746C177.182 5.522 176.832 5.368 176.468 5.284C176.104 5.2 175.74 5.158 175.376 5.158C174.788 5.158 174.349 5.256 174.06 5.452C173.771 5.63867 173.626 5.88133 173.626 6.18C173.626 6.432 173.71 6.628 173.878 6.768C174.055 6.89867 174.279 7.00133 174.55 7.076C174.83 7.15067 175.138 7.216 175.474 7.272C175.81 7.31867 176.146 7.384 176.482 7.468C176.818 7.54267 177.121 7.65 177.392 7.79C177.672 7.93 177.896 8.126 178.064 8.378C178.241 8.63 178.33 8.966 178.33 9.386C178.33 9.834 178.199 10.2213 177.938 10.548C177.677 10.8747 177.308 11.1313 176.832 11.318C176.356 11.4953 175.787 11.584 175.124 11.584ZM183.454 11.584C182.66 11.584 181.96 11.4207 181.354 11.094C180.756 10.7673 180.29 10.3193 179.954 9.75C179.627 9.18067 179.464 8.52733 179.464 7.79C179.464 7.05267 179.622 6.39933 179.94 5.83C180.266 5.26067 180.71 4.81733 181.27 4.5C181.839 4.17333 182.478 4.01 183.188 4.01C183.906 4.01 184.541 4.16867 185.092 4.486C185.642 4.80333 186.072 5.25133 186.38 5.83C186.697 6.39933 186.856 7.06667 186.856 7.832C186.856 7.888 186.851 7.95333 186.842 8.028C186.842 8.10267 186.837 8.17267 186.828 8.238H180.514V7.272H186.128L185.582 7.608C185.591 7.132 185.493 6.70733 185.288 6.334C185.082 5.96067 184.798 5.67133 184.434 5.466C184.079 5.25133 183.664 5.144 183.188 5.144C182.721 5.144 182.306 5.25133 181.942 5.466C181.578 5.67133 181.293 5.96533 181.088 6.348C180.882 6.72133 180.78 7.15067 180.78 7.636V7.86C180.78 8.35467 180.892 8.798 181.116 9.19C181.349 9.57267 181.671 9.87133 182.082 10.086C182.492 10.3007 182.964 10.408 183.496 10.408C183.934 10.408 184.331 10.3333 184.686 10.184C185.05 10.0347 185.367 9.81067 185.638 9.512L186.38 10.38C186.044 10.772 185.624 11.0707 185.12 11.276C184.625 11.4813 184.07 11.584 183.454 11.584ZM188.862 11.5V4.08H190.15V6.096L190.024 5.592C190.229 5.07867 190.575 4.68667 191.06 4.416C191.545 4.14533 192.143 4.01 192.852 4.01V5.312C192.796 5.30267 192.74 5.298 192.684 5.298C192.637 5.298 192.591 5.298 192.544 5.298C191.825 5.298 191.256 5.51267 190.836 5.942C190.416 6.37133 190.206 6.992 190.206 7.804V11.5H188.862ZM196.895 11.5L193.647 4.08H195.047L197.931 10.8H197.259L200.199 4.08H201.515L198.267 11.5H196.895ZM206.008 11.584C205.215 11.584 204.515 11.4207 203.908 11.094C203.311 10.7673 202.844 10.3193 202.508 9.75C202.182 9.18067 202.018 8.52733 202.018 7.79C202.018 7.05267 202.177 6.39933 202.494 5.83C202.821 5.26067 203.264 4.81733 203.824 4.5C204.394 4.17333 205.033 4.01 205.742 4.01C206.461 4.01 207.096 4.16867 207.646 4.486C208.197 4.80333 208.626 5.25133 208.934 5.83C209.252 6.39933 209.41 7.06667 209.41 7.832C209.41 7.888 209.406 7.95333 209.396 8.028C209.396 8.10267 209.392 8.17267 209.382 8.238H203.068V7.272H208.682L208.136 7.608C208.146 7.132 208.048 6.70733 207.842 6.334C207.637 5.96067 207.352 5.67133 206.988 5.466C206.634 5.25133 206.218 5.144 205.742 5.144C205.276 5.144 204.86 5.25133 204.496 5.466C204.132 5.67133 203.848 5.96533 203.642 6.348C203.437 6.72133 203.334 7.15067 203.334 7.636V7.86C203.334 8.35467 203.446 8.798 203.67 9.19C203.904 9.57267 204.226 9.87133 204.636 10.086C205.047 10.3007 205.518 10.408 206.05 10.408C206.489 10.408 206.886 10.3333 207.24 10.184C207.604 10.0347 207.922 9.81067 208.192 9.512L208.934 10.38C208.598 10.772 208.178 11.0707 207.674 11.276C207.18 11.4813 206.624 11.584 206.008 11.584ZM214.483 11.584C213.764 11.584 213.12 11.4253 212.551 11.108C211.991 10.7907 211.547 10.3473 211.221 9.778C210.894 9.20867 210.731 8.546 210.731 7.79C210.731 7.034 210.894 6.376 211.221 5.816C211.547 5.24667 211.991 4.80333 212.551 4.486C213.12 4.16867 213.764 4.01 214.483 4.01C215.108 4.01 215.673 4.15 216.177 4.43C216.681 4.71 217.082 5.13 217.381 5.69C217.689 6.25 217.843 6.95 217.843 7.79C217.843 8.63 217.693 9.33 217.395 9.89C217.105 10.45 216.709 10.8747 216.205 11.164C215.701 11.444 215.127 11.584 214.483 11.584ZM214.595 10.408C215.061 10.408 215.481 10.3007 215.855 10.086C216.237 9.87133 216.536 9.568 216.751 9.176C216.975 8.77467 217.087 8.31267 217.087 7.79C217.087 7.258 216.975 6.80067 216.751 6.418C216.536 6.026 216.237 5.72267 215.855 5.508C215.481 5.29333 215.061 5.186 214.595 5.186C214.119 5.186 213.694 5.29333 213.321 5.508C212.947 5.72267 212.649 6.026 212.425 6.418C212.201 6.80067 212.089 7.258 212.089 7.79C212.089 8.31267 212.201 8.77467 212.425 9.176C212.649 9.568 212.947 9.87133 213.321 10.086C213.694 10.3007 214.119 10.408 214.595 10.408ZM217.129 11.5V9.498L217.213 7.776L217.073 6.054V1.112H218.417V11.5H217.129ZM224.243 11.5V10.548L228.233 6.698C228.588 6.362 228.849 6.068 229.017 5.816C229.195 5.55467 229.311 5.31667 229.367 5.102C229.433 4.878 229.465 4.66333 229.465 4.458C229.465 3.954 229.288 3.55733 228.933 3.268C228.579 2.97867 228.061 2.834 227.379 2.834C226.857 2.834 226.385 2.92267 225.965 3.1C225.545 3.268 225.181 3.534 224.873 3.898L223.921 3.072C224.295 2.596 224.794 2.232 225.419 1.98C226.054 1.71867 226.749 1.588 227.505 1.588C228.187 1.588 228.779 1.7 229.283 1.924C229.787 2.13867 230.175 2.45133 230.445 2.862C230.725 3.27267 230.865 3.758 230.865 4.318C230.865 4.63533 230.823 4.948 230.739 5.256C230.655 5.564 230.497 5.89067 230.263 6.236C230.03 6.58133 229.694 6.96867 229.255 7.398L225.699 10.828L225.363 10.282H231.285V11.5H224.243ZM236.567 11.612C235.802 11.612 235.116 11.416 234.509 11.024C233.912 10.632 233.436 10.0627 233.081 9.316C232.736 8.56933 232.563 7.664 232.563 6.6C232.563 5.536 232.736 4.63067 233.081 3.884C233.436 3.13733 233.912 2.568 234.509 2.176C235.116 1.784 235.802 1.588 236.567 1.588C237.323 1.588 238.004 1.784 238.611 2.176C239.218 2.568 239.694 3.13733 240.039 3.884C240.384 4.63067 240.557 5.536 240.557 6.6C240.557 7.664 240.384 8.56933 240.039 9.316C239.694 10.0627 239.218 10.632 238.611 11.024C238.004 11.416 237.323 11.612 236.567 11.612ZM236.567 10.366C237.08 10.366 237.528 10.226 237.911 9.946C238.303 9.666 238.606 9.246 238.821 8.686C239.045 8.126 239.157 7.43067 239.157 6.6C239.157 5.76933 239.045 5.074 238.821 4.514C238.606 3.954 238.303 3.534 237.911 3.254C237.528 2.974 237.08 2.834 236.567 2.834C236.054 2.834 235.601 2.974 235.209 3.254C234.817 3.534 234.509 3.954 234.285 4.514C234.07 5.074 233.963 5.76933 233.963 6.6C233.963 7.43067 234.07 8.126 234.285 8.686C234.509 9.246 234.817 9.666 235.209 9.946C235.601 10.226 236.054 10.366 236.567 10.366ZM241.887 11.5V10.548L245.877 6.698C246.231 6.362 246.493 6.068 246.661 5.816C246.838 5.55467 246.955 5.31667 247.011 5.102C247.076 4.878 247.109 4.66333 247.109 4.458C247.109 3.954 246.931 3.55733 246.577 3.268C246.222 2.97867 245.704 2.834 245.023 2.834C244.5 2.834 244.029 2.92267 243.609 3.1C243.189 3.268 242.825 3.534 242.517 3.898L241.565 3.072C241.938 2.596 242.437 2.232 243.063 1.98C243.697 1.71867 244.393 1.588 245.149 1.588C245.83 1.588 246.423 1.7 246.927 1.924C247.431 2.13867 247.818 2.45133 248.089 2.862C248.369 3.27267 248.509 3.758 248.509 4.318C248.509 4.63533 248.467 4.948 248.383 5.256C248.299 5.564 248.14 5.89067 247.907 6.236C247.673 6.58133 247.337 6.96867 246.899 7.398L243.343 10.828L243.007 10.282H248.929V11.5H241.887ZM250.066 11.5V10.548L254.056 6.698C254.41 6.362 254.672 6.068 254.84 5.816C255.017 5.55467 255.134 5.31667 255.19 5.102C255.255 4.878 255.288 4.66333 255.288 4.458C255.288 3.954 255.11 3.55733 254.756 3.268C254.401 2.97867 253.883 2.834 253.202 2.834C252.679 2.834 252.208 2.92267 251.788 3.1C251.368 3.268 251.004 3.534 250.696 3.898L249.744 3.072C250.117 2.596 250.616 2.232 251.242 1.98C251.876 1.71867 252.572 1.588 253.328 1.588C254.009 1.588 254.602 1.7 255.106 1.924C255.61 2.13867 255.997 2.45133 256.268 2.862C256.548 3.27267 256.688 3.758 256.688 4.318C256.688 4.63533 256.646 4.948 256.562 5.256C256.478 5.564 256.319 5.89067 256.086 6.236C255.852 6.58133 255.516 6.96867 255.078 7.398L251.522 10.828L251.186 10.282H257.108V11.5H250.066Z" fill="black" fill-opacity="0.2"/>
</svg>
