<svg width="64" height="64" viewBox="0 0 64 64" fill="none" xmlns="http://www.w3.org/2000/svg">
<path d="M31.9999 5.33331C17.3066 5.33331 5.33325 17.3066 5.33325 32C5.33325 46.6933 17.3066 58.6666 31.9999 58.6666C46.6933 58.6666 58.6666 46.6933 58.6666 32C58.6666 17.3066 46.6933 5.33331 31.9999 5.33331ZM42.8266 36.7733C42.4266 37.1733 41.9199 37.36 41.4133 37.36C40.9066 37.36 40.3999 37.1733 39.9999 36.7733L31.9999 28.7733L23.9999 36.7733C23.2266 37.5466 21.9466 37.5466 21.1733 36.7733C20.3999 36 20.3999 34.72 21.1733 33.9466L30.5866 24.5333C31.3599 23.76 32.6399 23.76 33.4133 24.5333L42.8266 33.9466C43.5999 34.7466 43.5999 36 42.8266 36.7733Z" fill="#FF0000"/>
</svg>
