<svg width="64" height="65" viewBox="0 0 64 65" fill="none" xmlns="http://www.w3.org/2000/svg">
<path d="M24.4266 29.8681C24.1599 29.8414 23.8399 29.8414 23.5466 29.8681C17.1999 29.6547 12.1599 24.4547 12.1599 18.0547C12.1599 11.5214 17.4399 6.21472 23.9999 6.21472C30.5332 6.21472 35.8399 11.5214 35.8399 18.0547C35.8132 24.4547 30.7732 29.6547 24.4266 29.8681Z" stroke="#292D32" stroke-width="4" stroke-linecap="round" stroke-linejoin="round"/>
<path d="M43.7598 11.5481C48.9331 11.5481 53.0931 15.7348 53.0931 20.8814C53.0931 25.9214 49.0931 30.0281 44.1064 30.2148C43.8931 30.1881 43.6531 30.1881 43.4131 30.2148" stroke="#F92323" stroke-width="4" stroke-linecap="round" stroke-linejoin="round"/>
<path d="M11.0934 39.708C4.64008 44.028 4.64008 51.068 11.0934 55.3613C18.4268 60.268 30.4534 60.268 37.7868 55.3613C44.2401 51.0413 44.2401 44.0013 37.7868 39.708C30.4801 34.828 18.4534 34.828 11.0934 39.708Z" stroke="#292D32" stroke-width="4" stroke-linecap="round" stroke-linejoin="round"/>
<path d="M48.9067 54.2147C50.8267 53.8147 52.6401 53.0414 54.1334 51.8947C58.2934 48.7747 58.2934 43.6281 54.1334 40.5081C52.6667 39.3881 50.8801 38.6414 48.9867 38.2147" stroke="#F92323" stroke-width="4" stroke-linecap="round" stroke-linejoin="round"/>
</svg>
