<svg width="65" height="64" viewBox="0 0 65 64" fill="none" xmlns="http://www.w3.org/2000/svg">
<path d="M53.879 13.925C54.1914 13.9104 54.4979 13.8345 54.7809 13.7014C55.064 13.5684 55.3181 13.3809 55.5287 13.1497C55.7393 12.9185 55.9023 12.6481 56.0084 12.3539C56.1144 12.0596 56.1615 11.7474 56.147 11.435C56.1324 11.1226 56.0564 10.8161 55.9234 10.533C55.7904 10.25 55.6029 9.99591 55.3717 9.7853C55.1405 9.5747 54.87 9.4117 54.5758 9.30561C54.2816 9.19952 53.9694 9.15242 53.657 9.167L52.765 9.208L52.724 8.316C52.7094 8.00358 52.6334 7.6971 52.5004 7.41404C52.3674 7.13099 52.1799 6.87691 51.9487 6.6663C51.7175 6.4557 51.447 6.2927 51.1528 6.18661C50.8586 6.08052 50.5464 6.03342 50.234 6.048C49.9216 6.06258 49.6151 6.13854 49.332 6.27157C49.049 6.40459 48.7949 6.59206 48.5843 6.82328C48.3737 7.0545 48.2107 7.32493 48.1046 7.61915C47.9985 7.91336 47.9514 8.22558 47.966 8.538L48.229 14.188L53.879 13.925ZM56.899 19.19C56.4126 19.1675 55.9371 19.3391 55.5772 19.6671C55.2174 19.9951 55.0025 20.4526 54.98 20.939L54.948 21.627L54.26 21.595C54.0183 21.5824 53.7765 21.6177 53.5485 21.6988C53.3205 21.78 53.1108 21.9054 52.9315 22.0679C52.7521 22.2304 52.6067 22.4268 52.5035 22.6457C52.4003 22.8646 52.3414 23.1017 52.3302 23.3435C52.319 23.5853 52.3557 23.8268 52.4382 24.0543C52.5207 24.2819 52.6474 24.4908 52.8109 24.6692C52.9745 24.8476 53.1716 24.9919 53.3912 25.0938C53.6107 25.1957 53.8482 25.2532 54.09 25.263L58.445 25.465L58.647 21.11C58.6584 20.8691 58.6222 20.6284 58.5405 20.4015C58.4589 20.1746 58.3333 19.966 58.1709 19.7877C58.0086 19.6094 57.8127 19.4648 57.5944 19.3622C57.3762 19.2597 57.1399 19.2012 56.899 19.19Z" fill="#F92323"/>
<path d="M44.8999 5.43799C45.5903 5.43799 46.1499 4.87834 46.1499 4.18799C46.1499 3.49763 45.5903 2.93799 44.8999 2.93799C44.2095 2.93799 43.6499 3.49763 43.6499 4.18799C43.6499 4.87834 44.2095 5.43799 44.8999 5.43799Z" fill="#F92323"/>
<path d="M58.6499 6.68799C59.3403 6.68799 59.8999 6.12834 59.8999 5.43799C59.8999 4.74763 59.3403 4.18799 58.6499 4.18799C57.9595 4.18799 57.3999 4.74763 57.3999 5.43799C57.3999 6.12834 57.9595 6.68799 58.6499 6.68799Z" fill="#F92323"/>
<path d="M47.3999 20.438C48.0903 20.438 48.6499 19.8783 48.6499 19.188C48.6499 18.4976 48.0903 17.938 47.3999 17.938C46.7095 17.938 46.1499 18.4976 46.1499 19.188C46.1499 19.8783 46.7095 20.438 47.3999 20.438Z" fill="#F92323"/>
<path d="M10.9209 13.925L16.5709 14.188L16.8339 8.53799C16.8514 7.91416 16.6234 7.30838 16.1989 6.85094C15.7743 6.39349 15.1873 6.12091 14.5639 6.09182C13.9405 6.06274 13.3306 6.27947 12.8653 6.6954C12.4 7.11133 12.1166 7.69324 12.0759 8.31599L12.0349 9.20799L11.1429 9.16699C10.512 9.13755 9.89516 9.35996 9.42819 9.78529C8.96123 10.2106 8.68235 10.804 8.65291 11.435C8.62347 12.0659 8.84588 12.6827 9.27122 13.1497C9.69655 13.6167 10.29 13.8956 10.9209 13.925ZM12.4579 23.342C12.4354 22.8556 12.2205 22.3981 11.8606 22.0701C11.5008 21.7421 11.0253 21.5705 10.5389 21.593L9.85091 21.625L9.81991 20.938C9.81012 20.6962 9.75262 20.4587 9.65071 20.2392C9.54881 20.0197 9.40451 19.8225 9.22612 19.6589C9.04773 19.4954 8.83877 19.3687 8.61126 19.2862C8.38374 19.2037 8.14216 19.167 7.90041 19.1782C7.65866 19.1895 7.42151 19.2483 7.2026 19.3515C6.98369 19.4547 6.78734 19.6002 6.62485 19.7795C6.46235 19.9588 6.33691 20.1685 6.25575 20.3965C6.17458 20.6245 6.13929 20.8663 6.15191 21.108L6.35391 25.463L10.7089 25.261C10.9498 25.25 11.1861 25.1915 11.4044 25.0891C11.6227 24.9867 11.8187 24.8422 11.9811 24.664C12.1436 24.4858 12.2693 24.2773 12.3511 24.0504C12.4329 23.8236 12.4692 23.5829 12.4579 23.342Z" fill="#F92323"/>
<path d="M19.8999 5.43799C20.5903 5.43799 21.1499 4.87834 21.1499 4.18799C21.1499 3.49763 20.5903 2.93799 19.8999 2.93799C19.2095 2.93799 18.6499 3.49763 18.6499 4.18799C18.6499 4.87834 19.2095 5.43799 19.8999 5.43799Z" fill="#F92323"/>
<path d="M6.1499 6.68799C6.84026 6.68799 7.3999 6.12834 7.3999 5.43799C7.3999 4.74763 6.84026 4.18799 6.1499 4.18799C5.45955 4.18799 4.8999 4.74763 4.8999 5.43799C4.8999 6.12834 5.45955 6.68799 6.1499 6.68799Z" fill="#F92323"/>
<path d="M17.3999 20.438C18.0903 20.438 18.6499 19.8783 18.6499 19.188C18.6499 18.4976 18.0903 17.938 17.3999 17.938C16.7095 17.938 16.1499 18.4976 16.1499 19.188C16.1499 19.8783 16.7095 20.438 17.3999 20.438Z" fill="#F92323"/>
<path d="M35.171 8.56299L33.43 4.81299H31.37L29.629 8.56299H35.171ZM29.992 4.81299H27.713L24.9 8.56299H28.251L29.992 4.81299ZM30.124 16.063L28.189 9.81299H24.661L27.786 16.063H30.124ZM39.9 8.56299L37.088 4.81299H34.808L36.549 8.56299H39.9ZM34.676 16.063H37.014L40.139 9.81299H36.611L34.676 16.063ZM29.498 9.81299L31.432 16.063H33.368L35.302 9.81299H29.498ZM25.525 22.242C27.676 21.479 29.99 21.062 32.4 21.062C34.81 21.062 37.124 21.479 39.275 22.242V17.312H25.524L25.525 22.242ZM38.135 54.813H8.05298C8.36998 58.312 11.32 61.063 14.9 61.063H49.9C53.48 61.063 56.43 58.312 56.747 54.813H38.135ZM40.497 53.563H47.707C50.369 50.141 51.774 46.042 51.774 41.688C51.774 31.005 43.082 22.313 32.399 22.313C21.716 22.313 13.024 31.005 13.024 41.688C13.024 46.042 14.43 50.141 17.091 53.563H24.301C20.426 50.912 18.023 46.473 18.023 41.688C18.023 33.762 24.472 27.313 32.398 27.313C40.324 27.313 46.773 33.762 46.773 41.688C46.775 46.472 44.372 50.912 40.497 53.563Z" fill="black"/>
</svg>
