<svg width="65" height="64" viewBox="0 0 65 64" fill="none" xmlns="http://www.w3.org/2000/svg">
<path d="M23.0811 22.4874C23.9977 24.0964 25.3239 25.434 26.9248 26.3645C28.5258 27.2949 30.3445 27.7851 32.1961 27.7851C34.0478 27.7851 35.8665 27.2949 37.4675 26.3645C39.0684 25.434 40.3946 24.0964 41.3111 22.4874C42.0124 22.4306 42.6768 22.1498 43.2061 21.6863C43.7355 21.2229 44.1017 20.6015 44.2508 19.9139C44.3998 19.2263 44.3237 18.509 44.0337 17.868C43.7437 17.227 43.2552 16.6962 42.6404 16.3542C42.5167 14.9355 42.1033 13.5572 41.4257 12.3046C40.7481 11.052 39.8207 9.9518 38.7009 9.07195C38.6715 8.75999 38.5902 8.45514 38.4604 8.16995C38.6961 7.65152 38.7683 7.07361 38.6674 6.51314C38.5665 5.95266 38.2974 5.43619 37.8958 5.03245C37.3721 4.50886 36.662 4.21472 35.9215 4.21472C35.181 4.21472 34.4708 4.50886 33.9471 5.03245L33.33 5.64995C32.9607 5.47537 32.5573 5.38483 32.1488 5.38483C31.7403 5.38483 31.3368 5.47537 30.9675 5.64995L30.3505 5.03295C29.8876 4.56996 29.2767 4.28439 28.6245 4.22615C27.9724 4.16791 27.3205 4.34071 26.7829 4.71435C26.2452 5.08798 25.856 5.63868 25.6832 6.2702C25.5104 6.90172 25.565 7.57388 25.8375 8.1692C25.697 8.47858 25.6143 8.81105 25.5934 9.1502C24.5005 10.0313 23.5968 11.124 22.9364 12.3628C22.2761 13.6016 21.8727 14.961 21.7504 16.3594C21.1377 16.7025 20.6514 17.2333 20.363 17.8735C20.0746 18.5137 19.9994 19.2296 20.1484 19.9158C20.2974 20.602 20.6628 21.2222 21.1908 21.6852C21.7187 22.1481 22.3814 22.4294 23.0811 22.4874ZM35.1845 6.27045C35.3713 6.08338 35.6222 5.97429 35.8864 5.96526C36.1507 5.95624 36.4084 6.04796 36.6076 6.22184C36.8067 6.39572 36.9323 6.63878 36.959 6.9018C36.9856 7.16482 36.9113 7.42814 36.7511 7.63845C36.6346 7.79101 36.5714 7.97769 36.5714 8.1697C36.5714 8.3617 36.6346 8.54838 36.7511 8.70095C36.9038 8.90158 36.9785 9.15076 36.9614 9.40228C36.9443 9.65379 36.8365 9.89057 36.6581 10.0687C36.4626 10.2639 36.1975 10.3735 35.9212 10.3735C35.6449 10.3735 35.3799 10.2639 35.1843 10.0687L34.6016 9.4862C34.6069 9.47645 34.6113 9.46645 34.6163 9.4567C34.6323 9.4262 34.6475 9.39532 34.6624 9.36432L34.6874 9.31157C34.7021 9.27857 34.7161 9.2452 34.7298 9.21157L34.7488 9.1647C34.7675 9.11557 34.7853 9.06607 34.8014 9.01595L34.8041 9.00645C34.8191 8.95936 34.8326 8.91186 34.8449 8.86395C34.8494 8.84682 34.8531 8.82957 34.8574 8.81232C34.8917 8.67067 34.9143 8.52643 34.925 8.38107C34.9264 8.36395 34.928 8.34682 34.929 8.3297C34.9321 8.27645 34.9341 8.22295 34.9341 8.16932C34.9341 8.1157 34.9321 8.06232 34.929 8.00907C34.928 7.99195 34.9264 7.97495 34.925 7.95782C34.9224 7.92155 34.9189 7.88533 34.9148 7.8492C34.9125 7.82945 34.9098 7.80982 34.9071 7.7902C34.8997 7.73676 34.8907 7.68353 34.8804 7.63057C34.8735 7.59557 34.8656 7.56095 34.8574 7.52632C34.8533 7.5092 34.8496 7.49195 34.8449 7.47482C34.8326 7.42732 34.8191 7.38015 34.8044 7.33332L34.8013 7.3227C34.7853 7.2727 34.7676 7.2227 34.7489 7.17432C34.7426 7.15807 34.7364 7.1422 34.7293 7.1262C34.716 7.09318 34.7022 7.06042 34.6876 7.02795C34.6794 7.00957 34.6708 6.99145 34.6626 6.97332C34.6483 6.94323 34.6335 6.91339 34.6181 6.88382C34.6128 6.87345 34.6081 6.86282 34.6026 6.8527L35.1845 6.27045ZM32.8523 7.41095L32.853 7.4117C32.9579 7.50803 33.0415 7.6252 33.0984 7.75571C33.1554 7.88621 33.1844 8.02718 33.1838 8.16957C33.1838 8.20568 33.1819 8.24177 33.1783 8.2777C33.1541 8.50968 33.0523 8.7267 32.8894 8.8936C32.7264 9.0605 32.5119 9.16749 32.2806 9.19725C32.0492 9.22701 31.8146 9.17779 31.6148 9.05756C31.4149 8.93733 31.2615 8.75314 31.1794 8.53483C31.0973 8.31652 31.0913 8.07688 31.1624 7.85474C31.2335 7.6326 31.3775 7.44097 31.5711 7.3109C31.7647 7.18084 31.9965 7.11995 32.2291 7.13811C32.4616 7.15626 32.6812 7.2524 32.8523 7.41095ZM27.6398 6.27045C27.8354 6.07529 28.1004 5.96569 28.3767 5.96569C28.653 5.96569 28.918 6.07529 29.1136 6.27045L29.6961 6.85295C29.6908 6.86295 29.6861 6.87332 29.6809 6.88345C29.6653 6.91336 29.6503 6.94361 29.6358 6.9742C29.6273 6.99195 29.6189 7.0097 29.6108 7.0277C29.5959 7.0607 29.582 7.09407 29.5684 7.1277L29.5495 7.17432C29.5306 7.22345 29.5129 7.27307 29.4969 7.3232C29.4959 7.32607 29.4951 7.32907 29.4943 7.33195C29.4793 7.37936 29.4656 7.4272 29.4531 7.47545C29.4489 7.4922 29.4453 7.50907 29.4413 7.52545C29.4199 7.61284 29.4033 7.70129 29.3913 7.79045C29.3886 7.80995 29.3859 7.82945 29.3836 7.84907C29.3794 7.88532 29.3761 7.9217 29.3734 7.9582C29.372 7.97507 29.3704 7.99195 29.3694 8.00895C29.3663 8.0622 29.3643 8.1157 29.3643 8.16932C29.3643 8.22295 29.3663 8.27657 29.3694 8.32982C29.3704 8.34682 29.372 8.36357 29.3734 8.38045C29.3776 8.43646 29.3835 8.49232 29.3913 8.54795C29.396 8.5822 29.4014 8.61628 29.4073 8.6502C29.4108 8.66945 29.4141 8.68857 29.4179 8.70757C29.425 8.74345 29.433 8.77895 29.4415 8.81432C29.4454 8.83057 29.4489 8.84695 29.453 8.86307C29.4655 8.91382 29.4803 8.96407 29.4963 9.01395V9.0152C29.5124 9.06595 29.5304 9.11607 29.5494 9.1652C29.5549 9.17945 29.561 9.19345 29.5666 9.2077C29.5808 9.24282 29.5954 9.2777 29.611 9.3122C29.6185 9.32895 29.6264 9.34545 29.6343 9.3622C29.6495 9.3942 29.6653 9.4259 29.6816 9.45732C29.6865 9.4667 29.6908 9.47632 29.6958 9.4857L29.1133 10.0682C28.9264 10.2551 28.6755 10.3641 28.4114 10.373C28.1472 10.382 27.8895 10.2903 27.6904 10.1164C27.4914 9.94257 27.3658 9.69959 27.339 9.43664C27.3123 9.17369 27.3865 8.91041 27.5465 8.70007C27.6631 8.5475 27.7263 8.36083 27.7263 8.16882C27.7263 7.97681 27.6631 7.79014 27.5465 7.63757C27.3939 7.43694 27.3192 7.18775 27.3363 6.93624C27.3534 6.68473 27.4611 6.44795 27.6395 6.26982L27.6398 6.27045ZM22.8678 17.7704C23.0368 17.7141 23.1845 17.6074 23.2913 17.4648C23.3981 17.3222 23.4588 17.1504 23.4653 16.9723C23.544 14.7092 24.5039 12.5665 26.1403 11.0012C26.38 11.3219 26.6858 11.5873 27.037 11.7795C27.3883 11.9716 27.7767 12.086 28.176 12.1149C28.5754 12.1438 28.9762 12.0865 29.3515 11.9469C29.7267 11.8073 30.0675 11.5887 30.3509 11.3058L30.968 10.6887C31.3373 10.8634 31.7407 10.954 32.1493 10.954C32.5578 10.954 32.9612 10.8634 33.3305 10.6887L33.9476 11.3058C34.4713 11.8294 35.1815 12.1235 35.922 12.1235C36.6625 12.1235 37.3726 11.8294 37.8963 11.3058C38.0064 11.1944 38.1071 11.074 38.1974 10.9459C39.8673 12.5144 40.8485 14.68 40.9266 16.9697C40.9332 17.1483 40.9943 17.3207 41.1018 17.4636C41.2092 17.6064 41.3578 17.713 41.5276 17.7688C41.8724 17.8829 42.1652 18.116 42.3537 18.4264C42.5421 18.7368 42.6139 19.1041 42.5561 19.4626C42.4983 19.8211 42.3148 20.1473 42.0383 20.3827C41.7619 20.6182 41.4106 20.7475 41.0475 20.7474C40.9946 20.7475 40.9416 20.7446 40.889 20.7387C40.7111 20.7184 40.5311 20.7532 40.3736 20.8384C40.216 20.9236 40.0884 21.0551 40.008 21.2152C39.2809 22.6636 38.1654 23.8814 36.7862 24.7324C35.4069 25.5834 33.8181 26.0341 32.1975 26.0342C30.5768 26.0343 28.988 25.5838 27.6086 24.733C26.2292 23.8822 25.1135 22.6645 24.3863 21.2162C24.3063 21.0574 24.18 20.9268 24.0241 20.8415C23.8681 20.7562 23.6899 20.7204 23.5131 20.7388C23.1388 20.7782 22.763 20.6781 22.458 20.4575C22.1529 20.237 21.94 19.9116 21.8601 19.5437C21.7802 19.1759 21.8389 18.7914 22.0249 18.4642C22.211 18.1369 22.5113 17.8899 22.8683 17.7704H22.8678Z" fill="#F92323"/>
<path d="M26.6361 18.1727C26.9043 18.1727 27.1664 18.0932 27.3893 17.9442C27.6122 17.7953 27.786 17.5835 27.8886 17.3358C27.9912 17.0881 28.018 16.8155 27.9657 16.5526C27.9134 16.2896 27.7843 16.0481 27.5947 15.8585C27.4051 15.6689 27.1636 15.5398 26.9006 15.4875C26.6376 15.4352 26.3651 15.462 26.1174 15.5646C25.8697 15.6672 25.6579 15.841 25.509 16.0639C25.36 16.2868 25.2805 16.5489 25.2805 16.8171C25.2809 17.1765 25.4239 17.521 25.678 17.7752C25.9322 18.0293 26.2767 18.1723 26.6361 18.1727ZM26.6361 16.4227C26.7141 16.4227 26.7904 16.4458 26.8552 16.4891C26.9201 16.5325 26.9706 16.5941 27.0005 16.6661C27.0303 16.7382 27.0382 16.8175 27.0229 16.894C27.0077 16.9705 26.9702 17.0408 26.915 17.0959C26.8599 17.1511 26.7896 17.1886 26.7131 17.2038C26.6366 17.2191 26.5573 17.2113 26.4852 17.1814C26.4132 17.1516 26.3516 17.101 26.3082 17.0362C26.2649 16.9713 26.2418 16.8951 26.2418 16.8171C26.2419 16.7125 26.2834 16.6122 26.3574 16.5383C26.4313 16.4644 26.5316 16.4228 26.6361 16.4227Z" fill="#F92323"/>
<path d="M37.7638 18.1727C38.0319 18.1727 38.294 18.0932 38.517 17.9442C38.7399 17.7953 38.9137 17.5835 39.0163 17.3358C39.1189 17.0881 39.1457 16.8155 39.0934 16.5526C39.0411 16.2896 38.912 16.0481 38.7224 15.8585C38.5328 15.6689 38.2913 15.5398 38.0283 15.4875C37.7653 15.4352 37.4928 15.462 37.2451 15.5646C36.9973 15.6672 36.7856 15.841 36.6367 16.0639C36.4877 16.2868 36.4082 16.5489 36.4082 16.8171C36.4086 17.1765 36.5516 17.521 36.8057 17.7752C37.0598 18.0293 37.4044 18.1723 37.7638 18.1727ZM37.7638 16.4227C37.8418 16.4227 37.9181 16.4458 37.9829 16.4891C38.0478 16.5325 38.0983 16.5941 38.1282 16.6661C38.158 16.7382 38.1658 16.8175 38.1506 16.894C38.1354 16.9705 38.0978 17.0408 38.0427 17.0959C37.9875 17.1511 37.9173 17.1886 37.8408 17.2038C37.7643 17.2191 37.685 17.2113 37.6129 17.1814C37.5408 17.1516 37.4793 17.101 37.4359 17.0362C37.3926 16.9713 37.3695 16.8951 37.3695 16.8171C37.3696 16.7125 37.4111 16.6122 37.4851 16.5383C37.559 16.4644 37.6593 16.4228 37.7638 16.4227Z" fill="#F92323"/>
<path d="M32.1489 24.9474C33.2982 24.9461 34.4 24.489 35.2128 23.6763C36.0255 22.8637 36.4828 21.7619 36.4842 20.6125C36.4842 20.3805 36.392 20.1579 36.2279 19.9938C36.0639 19.8297 35.8413 19.7375 35.6092 19.7375C35.3772 19.7375 35.1546 19.8297 34.9905 19.9938C34.8264 20.1579 34.7342 20.3805 34.7342 20.6125C34.7342 21.2982 34.4618 21.9558 33.977 22.4407C33.4921 22.9255 32.8345 23.1979 32.1489 23.1979C31.4632 23.1979 30.8056 22.9255 30.3207 22.4407C29.8359 21.9558 29.5635 21.2982 29.5635 20.6125C29.5635 20.3805 29.4713 20.1579 29.3072 19.9938C29.1431 19.8297 28.9205 19.7375 28.6885 19.7375C28.4564 19.7375 28.2339 19.8297 28.0698 19.9938C27.9057 20.1579 27.8135 20.3805 27.8135 20.6125C27.8149 21.7619 28.2722 22.8637 29.0849 23.6763C29.8977 24.489 30.9995 24.9461 32.1489 24.9474Z" fill="#F92323"/>
<path d="M47.3608 26.8986V16.2861C47.3608 12.2652 45.7635 8.40904 42.9203 5.56585C40.0771 2.72266 36.2209 1.12537 32.2001 1.12537C28.1792 1.12537 24.323 2.72266 21.4798 5.56585C18.6366 8.40904 17.0393 12.2652 17.0393 16.2861V47.7142C17.0371 49.7381 17.4423 51.7417 18.2309 53.6056C18.2479 53.6567 18.2694 53.706 18.2954 53.7531C19.6836 56.95 22.131 59.571 25.2254 61.1747C28.3199 62.7784 31.8724 63.2669 35.2848 62.5579C38.6973 61.8489 41.7612 59.9857 43.9607 57.2821C46.1602 54.5785 47.361 51.1996 47.3608 47.7142V26.8986ZM45.6108 39.7486C42.7869 42.8738 39.4681 45.5132 35.7874 47.5611C32.4395 46.5911 29.3346 44.9236 26.6768 42.6684C34.2026 40.4314 40.8292 35.8741 45.6108 29.647V39.7486ZM18.7893 47.7142V35.248L18.9018 35.476C21.912 41.6113 27.1778 46.3451 33.5978 48.6875C29.8549 50.4656 25.849 51.6264 21.7353 52.125L19.6271 52.3804C19.0716 50.8874 18.7879 49.3071 18.7893 47.7142ZM32.2001 2.87499C35.7556 2.87899 39.1643 4.29319 41.6785 6.80733C44.1926 9.32147 45.6068 12.7302 45.6108 16.2857V26.6429C40.8452 33.7955 33.6474 38.9771 25.3522 41.2267L25.1942 41.2697C25.1854 41.2721 25.1773 41.2754 25.1692 41.278C23.2537 39.3598 21.667 37.1393 20.4729 34.7056L18.7898 31.273V16.2855C18.7939 12.7301 20.208 9.32149 22.7221 6.80742C25.2361 4.29335 28.6447 2.87913 32.2001 2.87499ZM32.2001 61.125C29.7752 61.1232 27.3962 60.4646 25.3157 59.2191C23.2351 57.9736 21.5309 56.1878 20.3839 54.0514L21.9464 53.8621C30.9117 52.7776 39.2493 48.7013 45.6113 42.2922V47.7142C45.6073 51.2699 44.193 54.6787 41.6788 57.1928C39.1646 59.707 35.7557 61.1211 32.2001 61.125Z" fill="black"/>
</svg>
