<svg width="64" height="64" viewBox="0 0 64 64" fill="none" xmlns="http://www.w3.org/2000/svg">
<path d="M61.8668 0H2.13346C1.56818 0.00168824 1.02654 0.226992 0.626826 0.626704C0.227114 1.02642 0.00181031 1.56806 0.00012207 2.13333V4.26667C0.00181031 4.83194 0.227114 5.37358 0.626826 5.7733C1.02654 6.17301 1.56818 6.39831 2.13346 6.4H4.26679V30.9333H3.20012C2.35221 30.9359 1.53975 31.2738 0.940178 31.8734C0.34061 32.473 0.00265443 33.2854 0.00012207 34.1333V60.8C0.00265443 61.6479 0.34061 62.4604 0.940178 63.0599C1.53975 63.6595 2.35221 63.9975 3.20012 64H60.8001C61.648 63.9975 62.4605 63.6595 63.0601 63.0599C63.6596 62.4604 63.9976 61.6479 64.0001 60.8V34.1333C63.9976 33.2854 63.6596 32.473 63.0601 31.8734C62.4605 31.2738 61.648 30.9359 60.8001 30.9333H59.7335V6.4H61.8668C62.4321 6.39831 62.9737 6.17301 63.3734 5.7733C63.7731 5.37358 63.9984 4.83194 64.0001 4.26667V2.13333C63.9984 1.56806 63.7731 1.02642 63.3734 0.626704C62.9737 0.226992 62.4321 0.00168824 61.8668 0ZM56.5868 19.7333L53.8668 23.5093L51.1468 19.7333H56.5868ZM51.1468 17.6L53.8668 13.824L56.5868 17.6H51.1468ZM56.5868 30.9333H51.1468L53.8668 27.1573L56.5868 30.9333ZM53.8668 36.2667C54.4997 36.2667 55.1184 36.4543 55.6446 36.806C56.1709 37.1576 56.581 37.6574 56.8232 38.2421C57.0654 38.8268 57.1288 39.4702 57.0053 40.091C56.8818 40.7117 56.5771 41.2819 56.1295 41.7294C55.682 42.1769 55.1118 42.4817 54.4911 42.6052C53.8703 42.7287 53.2269 42.6653 52.6422 42.4231C52.0575 42.1809 51.5577 41.7707 51.2061 41.2445C50.8545 40.7183 50.6668 40.0996 50.6668 39.4667C50.6693 38.6188 51.0073 37.8063 51.6068 37.2067C52.2064 36.6072 53.0189 36.2692 53.8668 36.2667ZM55.1788 25.3333L57.6001 21.9733V28.6933L55.1788 25.3333ZM55.1788 12L57.6001 8.64V15.36L55.1788 12ZM56.5868 6.4L53.8668 10.176L51.1468 6.4H56.5868ZM50.1335 8.64L52.5548 12L50.1335 15.36V8.64ZM50.1335 21.9733L52.5548 25.3333L50.1335 28.6933V21.9733ZM32.0001 17.5893C30.9335 17.5893 29.8775 17.632 28.8535 17.7067C29 16.5226 29.2281 15.35 29.5361 14.1973C31.1497 13.76 32.8506 13.76 34.4641 14.1973C34.7722 15.35 35.0003 16.5226 35.1468 17.7067C34.1228 17.632 33.0668 17.5893 32.0001 17.5893ZM35.0508 28.7253C34.8482 30.1255 34.5161 31.5039 34.0588 32.8427C32.7026 33.1413 31.2977 33.1413 29.9415 32.8427C29.4841 31.5039 29.152 30.1255 28.9495 28.7253C29.9415 28.7893 30.9655 28.832 32.0001 28.832C33.0348 28.832 34.0588 28.7893 35.0508 28.7253ZM12.8535 19.7333L10.1335 23.5093L7.41346 19.7333H12.8535ZM7.41346 17.6L10.1335 13.824L12.8535 17.6H7.41346ZM12.8535 30.9333H7.41346L10.1335 27.1573L12.8535 30.9333ZM10.1335 36.2667C10.7664 36.2667 11.385 36.4543 11.9113 36.806C12.4375 37.1576 12.8477 37.6574 13.0899 38.2421C13.3321 38.8268 13.3954 39.4702 13.272 40.091C13.1485 40.7117 12.8437 41.2819 12.3962 41.7294C11.9487 42.1769 11.3785 42.4817 10.7577 42.6052C10.137 42.7287 9.49359 42.6653 8.90887 42.4231C8.32415 42.1809 7.82437 41.7707 7.47275 41.2445C7.12113 40.7183 6.93346 40.0996 6.93346 39.4667C6.93599 38.6188 7.27394 37.8063 7.87351 37.2067C8.47308 36.6072 9.28554 36.2692 10.1335 36.2667ZM11.4455 25.3333L13.8668 21.9733V28.6933L11.4455 25.3333ZM11.4455 12L13.8668 8.64V15.36L11.4455 12ZM12.8535 6.4L10.1335 10.176L7.41346 6.4H12.8535ZM6.40012 8.64L8.82146 12L6.40012 15.36V8.64ZM6.40012 21.9733L8.82146 25.3333L6.40012 28.6933V21.9733ZM10.1335 58.4C8.9204 58.4 7.73458 58.0403 6.72596 57.3663C5.71734 56.6924 4.93121 55.7345 4.46699 54.6138C4.00278 53.4931 3.88132 52.2599 4.11797 51.0701C4.35463 49.8804 4.93877 48.7875 5.79653 47.9297C6.6543 47.072 7.74715 46.4878 8.9369 46.2512C10.1267 46.0145 11.3599 46.136 12.4806 46.6002C13.6013 47.0644 14.5592 47.8505 15.2331 48.8592C15.9071 49.8678 16.2668 51.0536 16.2668 52.2667C16.2648 53.8927 15.618 55.4516 14.4682 56.6014C13.3184 57.7512 11.7595 58.398 10.1335 58.4ZM26.1335 61.8667H20.2668V46.9333H26.1335V61.8667ZM35.7335 61.8667H28.2668V46.9333H35.7335V61.8667ZM43.7335 61.8667H37.8668V46.9333H43.7335V61.8667ZM43.7335 34.1333V39.4667H20.2668V34.1333C20.2643 33.2854 19.9263 32.473 19.3267 31.8734C18.7272 31.2738 17.9147 30.9359 17.0668 30.9333H16.0001V6.4H30.9335V8.72533C30.3119 8.94674 29.7736 9.35428 29.3919 9.8925C29.0101 10.4307 28.8035 11.0735 28.8001 11.7333V12.192C26.0754 12.9644 23.7221 14.6962 22.1742 17.0678C20.6264 19.4394 19.9886 22.2909 20.3785 25.0959C20.7684 27.901 22.1597 30.4704 24.2957 32.33C26.4316 34.1896 29.1681 35.2139 32.0001 35.2139C34.8322 35.2139 37.5686 34.1896 39.7046 32.33C41.8405 30.4704 43.2318 27.901 43.6217 25.0959C44.0116 22.2909 43.3738 19.4394 41.826 17.0678C40.2782 14.6962 37.9248 12.9644 35.2001 12.192V11.7333C35.1967 11.0735 34.9901 10.4307 34.6084 9.8925C34.2267 9.35428 33.6884 8.94674 33.0668 8.72533V6.4H48.0001V30.9333H46.9335C46.0855 30.9359 45.2731 31.2738 44.6735 31.8734C44.0739 32.473 43.736 33.2854 43.7335 34.1333ZM26.5281 26.3467C25.2122 26.1774 23.9108 25.91 22.6348 25.5467C22.4807 24.864 22.402 24.1665 22.4001 23.4667C22.4038 22.5755 22.5294 21.6891 22.7735 20.832C23.989 20.5001 25.2256 20.2506 26.4748 20.0853C26.4108 20.992 26.3788 21.92 26.3788 22.8587C26.3788 24.0427 26.4321 25.216 26.5281 26.3467ZM37.5255 20.0853C38.7746 20.2506 40.0112 20.5001 41.2268 20.832C41.4709 21.6891 41.5965 22.5755 41.6001 23.4667C41.5982 24.1665 41.5196 24.864 41.3655 25.5467C40.0894 25.91 38.788 26.1774 37.4721 26.3467C37.5681 25.216 37.6215 24.0427 37.6215 22.8587C37.6215 21.92 37.5895 20.992 37.5255 20.0853ZM60.0001 52.2667C60.0001 53.4797 59.6404 54.6655 58.9665 55.6742C58.2925 56.6828 57.3346 57.4689 56.2139 57.9331C55.0932 58.3973 53.86 58.5188 52.6702 58.2822C51.4805 58.0455 50.3876 57.4614 49.5299 56.6036C48.6721 55.7458 48.088 54.653 47.8513 53.4632C47.6147 52.2735 47.7361 51.0403 48.2003 49.9195C48.6646 48.7988 49.4507 47.8409 50.4593 47.167C51.4679 46.4931 52.6537 46.1333 53.8668 46.1333C55.4928 46.1353 57.0517 46.7821 58.2015 47.9319C59.3513 49.0817 59.9981 50.6406 60.0001 52.2667Z" fill="black"/>
</svg>
