<svg width="65" height="64" viewBox="0 0 65 64" fill="none" xmlns="http://www.w3.org/2000/svg">
<path fill-rule="evenodd" clip-rule="evenodd" d="M36.3039 9.72529C35.2282 9.13875 34.0225 8.83142 32.7973 8.83142C31.572 8.83142 30.3663 9.13875 29.2906 9.72529C24.6959 12.2266 14.9413 17.5386 8.9306 20.8053C8.14638 21.2318 7.50096 21.8743 7.07089 22.6566C6.64082 23.4389 6.44416 24.3281 6.50423 25.2188C6.5643 26.1095 6.87859 26.9643 7.4098 27.6818C7.94102 28.3992 8.66688 28.9492 9.50127 29.2666L30.1866 37.1466C31.8666 37.7866 33.7253 37.7866 35.4079 37.1466L56.0933 29.2666C56.9277 28.9492 57.6535 28.3992 58.1847 27.6818C58.716 26.9643 59.0302 26.1095 59.0903 25.2188C59.1504 24.3281 58.9537 23.4389 58.5237 22.6566C58.0936 21.8743 57.4482 21.2318 56.6639 20.8053L36.3039 9.72529ZM34.3919 13.2373L54.7466 24.32C54.8585 24.3808 54.9505 24.4725 55.0119 24.5841C55.0733 24.6956 55.1015 24.8225 55.0931 24.9495C55.0847 25.0766 55.04 25.1986 54.9645 25.3011C54.8889 25.4036 54.7855 25.4823 54.6666 25.528L33.9813 33.4079C33.2169 33.6986 32.3723 33.6986 31.6079 33.4079L10.9253 25.528C10.8064 25.4823 10.703 25.4036 10.6274 25.3011C10.5518 25.1986 10.5072 25.0766 10.4988 24.9495C10.4904 24.8225 10.5185 24.6956 10.5799 24.5841C10.6413 24.4725 10.7334 24.3808 10.8453 24.32L31.1999 13.2373C31.6892 12.9707 32.2375 12.8311 32.7946 12.8311C33.3518 12.8311 33.9 12.9707 34.3893 13.2373H34.3919Z" fill="#F92323"/>
<path fill-rule="evenodd" clip-rule="evenodd" d="M12.1279 36V42.6666C12.1279 46.026 13.4624 49.2478 15.8379 51.6233C18.2134 53.9988 21.4352 55.3333 24.7946 55.3333H40.7946C44.154 55.3333 47.3758 53.9988 49.7513 51.6233C52.1267 49.2478 53.4613 46.026 53.4613 42.6666V36C53.4613 35.4695 53.2505 34.9608 52.8755 34.5857C52.5004 34.2107 51.9917 34 51.4613 34C50.9308 34 50.4221 34.2107 50.0471 34.5857C49.672 34.9608 49.4613 35.4695 49.4613 36V42.6666C49.4613 44.9652 48.5482 47.1696 46.9229 48.7949C45.2975 50.4202 43.0931 51.3333 40.7946 51.3333H24.7946C22.4961 51.3333 20.2917 50.4202 18.6663 48.7949C17.041 47.1696 16.1279 44.9652 16.1279 42.6666V36C16.1279 35.4695 15.9172 34.9608 15.5421 34.5857C15.1671 34.2107 14.6584 34 14.1279 34C13.5975 34 13.0888 34.2107 12.7137 34.5857C12.3386 34.9608 12.1279 35.4695 12.1279 36ZM54.7999 26.6666V37.3333C54.7999 37.8637 55.0106 38.3724 55.3857 38.7475C55.7608 39.1226 56.2695 39.3333 56.7999 39.3333C57.3304 39.3333 57.8391 39.1226 58.2141 38.7475C58.5892 38.3724 58.7999 37.8637 58.7999 37.3333V26.6666C58.7999 26.1362 58.5892 25.6275 58.2141 25.2524C57.8391 24.8773 57.3304 24.6666 56.7999 24.6666C56.2695 24.6666 55.7608 24.8773 55.3857 25.2524C55.0106 25.6275 54.7999 26.1362 54.7999 26.6666Z" fill="black"/>
</svg>
