<svg width="65" height="64" viewBox="0 0 65 64" fill="none" xmlns="http://www.w3.org/2000/svg">
<g clip-path="url(#clip0_0_791)">
<path d="M54.6 51C54.3348 51 54.0804 51.1054 53.8929 51.2929C53.7053 51.4804 53.6 51.7348 53.6 52C53.6 52.2652 53.7053 52.5196 53.8929 52.7071C54.0804 52.8946 54.3348 53 54.6 53H55.6C55.8652 53 56.1195 52.8946 56.3071 52.7071C56.4946 52.5196 56.6 52.2652 56.6 52C56.6 51.7348 56.4946 51.4804 56.3071 51.2929C56.1195 51.1054 55.8652 51 55.6 51H54.6Z" fill="#F92323"/>
<path d="M58.6 49C58.6 48.7348 58.4946 48.4804 58.3071 48.2929C58.1195 48.1054 57.8652 48 57.6 48C57.3348 48 57.0804 48.1054 56.8929 48.2929C56.7053 48.4804 56.6 48.7348 56.6 49V50C56.6 50.2652 56.7053 50.5196 56.8929 50.7071C57.0804 50.8946 57.3348 51 57.6 51C57.8652 51 58.1195 50.8946 58.3071 50.7071C58.4946 50.5196 58.6 50.2652 58.6 50V49Z" fill="#F92323"/>
<path d="M59.6 53H60.6C60.8652 53 61.1195 52.8946 61.3071 52.7071C61.4946 52.5196 61.6 52.2652 61.6 52C61.6 51.7348 61.4946 51.4804 61.3071 51.2929C61.1195 51.1054 60.8652 51 60.6 51H59.6C59.3348 51 59.0804 51.1054 58.8929 51.2929C58.7053 51.4804 58.6 51.7348 58.6 52C58.6 52.2652 58.7053 52.5196 58.8929 52.7071C59.0804 52.8946 59.3348 53 59.6 53Z" fill="#F92323"/>
<path d="M57.6 53C57.3348 53 57.0804 53.1054 56.8929 53.2929C56.7053 53.4804 56.6 53.7348 56.6 54V55C56.6 55.2652 56.7053 55.5196 56.8929 55.7071C57.0804 55.8946 57.3348 56 57.6 56C57.8652 56 58.1195 55.8946 58.3071 55.7071C58.4946 55.5196 58.6 55.2652 58.6 55V54C58.6 53.7348 58.4946 53.4804 58.3071 53.2929C58.1195 53.1054 57.8652 53 57.6 53Z" fill="#F92323"/>
<path d="M1.59998 40C1.59998 40.2652 1.70533 40.5196 1.89287 40.7071C2.08041 40.8946 2.33476 41 2.59998 41H3.59998C3.86519 41 4.11955 40.8946 4.30708 40.7071C4.49462 40.5196 4.59998 40.2652 4.59998 40C4.59998 39.7348 4.49462 39.4804 4.30708 39.2929C4.11955 39.1054 3.86519 39 3.59998 39H2.59998C2.33476 39 2.08041 39.1054 1.89287 39.2929C1.70533 39.4804 1.59998 39.7348 1.59998 40Z" fill="#F92323"/>
<path d="M6.59998 37C6.59998 36.7348 6.49462 36.4804 6.30708 36.2929C6.11955 36.1054 5.86519 36 5.59998 36C5.33476 36 5.08041 36.1054 4.89287 36.2929C4.70533 36.4804 4.59998 36.7348 4.59998 37V38C4.59998 38.2652 4.70533 38.5196 4.89287 38.7071C5.08041 38.8946 5.33476 39 5.59998 39C5.86519 39 6.11955 38.8946 6.30708 38.7071C6.49462 38.5196 6.59998 38.2652 6.59998 38V37Z" fill="#F92323"/>
<path d="M7.59998 41H8.59998C8.86519 41 9.11955 40.8946 9.30708 40.7071C9.49462 40.5196 9.59998 40.2652 9.59998 40C9.59998 39.7348 9.49462 39.4804 9.30708 39.2929C9.11955 39.1054 8.86519 39 8.59998 39H7.59998C7.33476 39 7.08041 39.1054 6.89287 39.2929C6.70533 39.4804 6.59998 39.7348 6.59998 40C6.59998 40.2652 6.70533 40.5196 6.89287 40.7071C7.08041 40.8946 7.33476 41 7.59998 41Z" fill="#F92323"/>
<path d="M5.59998 41C5.33476 41 5.08041 41.1054 4.89287 41.2929C4.70533 41.4804 4.59998 41.7348 4.59998 42V43C4.59998 43.2652 4.70533 43.5196 4.89287 43.7071C5.08041 43.8946 5.33476 44 5.59998 44C5.86519 44 6.11955 43.8946 6.30708 43.7071C6.49462 43.5196 6.59998 43.2652 6.59998 43V42C6.59998 41.7348 6.49462 41.4804 6.30708 41.2929C6.11955 41.1054 5.86519 41 5.59998 41Z" fill="#F92323"/>
<path d="M58.1 38C56.721 38 55.6 39.121 55.6 40.5C55.6 41.879 56.721 43 58.1 43C59.479 43 60.6 41.879 60.6 40.5C60.6 39.121 59.479 38 58.1 38ZM58.1 41C57.825 41 57.6 40.775 57.6 40.5C57.6 40.225 57.825 40 58.1 40C58.375 40 58.6 40.225 58.6 40.5C58.6 40.775 58.375 41 58.1 41Z" fill="#F92323"/>
<path d="M20.893 6.70701C20.9858 6.79995 21.096 6.87369 21.2173 6.924C21.3386 6.97431 21.4687 7.00021 21.6 7.00021C21.7314 7.00021 21.8614 6.97431 21.9827 6.924C22.104 6.87369 22.2142 6.79995 22.307 6.70701L23.042 5.97201L21.663 9.64901C21.5765 9.89597 21.5901 10.167 21.701 10.4041C21.8118 10.6411 22.0111 10.8253 22.2561 10.9172C22.5011 11.0091 22.7724 11.0014 23.0118 10.8958C23.2512 10.7902 23.4398 10.595 23.537 10.352L25.285 5.69201L26.112 11.272C26.116 11.3 26.132 11.321 26.138 11.348C26.1138 11.5645 26.1011 11.7822 26.1 12C26.1 15.584 29.016 18.5 32.6 18.5C36.184 18.5 39.1 15.584 39.1 12C39.1 8.89901 36.916 6.30201 34.006 5.65801L26.173 0.181005C26.0128 0.0692887 25.8234 0.00688433 25.6282 0.00148176C25.4329 -0.00392081 25.2404 0.0479144 25.0742 0.1506C24.9081 0.253286 24.7756 0.402337 24.6931 0.579385C24.6106 0.756433 24.5817 0.953744 24.61 1.14701L24.665 1.52001L20.892 5.29301C20.7047 5.48067 20.5995 5.73505 20.5997 6.00021C20.5999 6.26538 20.7054 6.51961 20.893 6.70701ZM32.93 7.53301C32.022 8.50701 30.468 9.85401 28.32 10.621C28.5916 9.76958 29.112 9.019 29.814 8.46601C30.6059 7.83674 31.5886 7.49602 32.6 7.50001C32.713 7.50001 32.819 7.52501 32.93 7.53301ZM32.6 16.5C30.381 16.5 28.544 14.882 28.177 12.766C30.192 12.205 31.796 11.207 32.99 10.223C34.148 10.804 35.895 11.63 37.099 11.994V11.999C37.0982 13.1922 36.624 14.3362 35.7805 15.1801C34.937 16.024 33.7932 16.4987 32.6 16.5ZM36.394 9.60201C35.7679 9.33186 35.1478 9.04813 34.534 8.75101C34.712 8.55401 34.87 8.37001 35.002 8.20801C35.5627 8.56486 36.038 9.04079 36.394 9.60201ZM30.711 5.79401C29.936 6.02419 29.2114 6.39839 28.575 6.89701C28.2267 7.17395 27.9077 7.48592 27.623 7.82801L26.93 3.15001L30.711 5.79401Z" fill="black"/>
<path d="M7.59998 8H6.59998C6.33476 8 6.08041 8.10536 5.89287 8.29289C5.70533 8.48043 5.59998 8.73478 5.59998 9C5.59998 9.26522 5.70533 9.51957 5.89287 9.70711C6.08041 9.89464 6.33476 10 6.59998 10H7.59998C7.86519 10 8.11955 9.89464 8.30708 9.70711C8.49462 9.51957 8.59998 9.26522 8.59998 9C8.59998 8.73478 8.49462 8.48043 8.30708 8.29289C8.11955 8.10536 7.86519 8 7.59998 8Z" fill="#F92323"/>
<path d="M9.59998 5C9.33476 5 9.08041 5.10536 8.89287 5.29289C8.70533 5.48043 8.59998 5.73478 8.59998 6V7C8.59998 7.26522 8.70533 7.51957 8.89287 7.70711C9.08041 7.89464 9.33476 8 9.59998 8C9.86519 8 10.1195 7.89464 10.3071 7.70711C10.4946 7.51957 10.6 7.26522 10.6 7V6C10.6 5.73478 10.4946 5.48043 10.3071 5.29289C10.1195 5.10536 9.86519 5 9.59998 5Z" fill="#F92323"/>
<path d="M11.6 10H12.6C12.8652 10 13.1195 9.89464 13.3071 9.70711C13.4946 9.51957 13.6 9.26522 13.6 9C13.6 8.73478 13.4946 8.48043 13.3071 8.29289C13.1195 8.10536 12.8652 8 12.6 8H11.6C11.3348 8 11.0804 8.10536 10.8929 8.29289C10.7053 8.48043 10.6 8.73478 10.6 9C10.6 9.26522 10.7053 9.51957 10.8929 9.70711C11.0804 9.89464 11.3348 10 11.6 10Z" fill="#F92323"/>
<path d="M8.59998 12C8.59998 12.2652 8.70533 12.5196 8.89287 12.7071C9.08041 12.8946 9.33476 13 9.59998 13C9.86519 13 10.1195 12.8946 10.3071 12.7071C10.4946 12.5196 10.6 12.2652 10.6 12V11C10.6 10.7348 10.4946 10.4804 10.3071 10.2929C10.1195 10.1054 9.86519 10 9.59998 10C9.33476 10 9.08041 10.1054 8.89287 10.2929C8.70533 10.4804 8.59998 10.7348 8.59998 11V12Z" fill="#F92323"/>
<path d="M44.6 3H43.6C43.3348 3 43.0804 3.10536 42.8929 3.29289C42.7053 3.48043 42.6 3.73478 42.6 4C42.6 4.26522 42.7053 4.51957 42.8929 4.70711C43.0804 4.89464 43.3348 5 43.6 5H44.6C44.8652 5 45.1195 4.89464 45.3071 4.70711C45.4946 4.51957 45.6 4.26522 45.6 4C45.6 3.73478 45.4946 3.48043 45.3071 3.29289C45.1195 3.10536 44.8652 3 44.6 3Z" fill="#F92323"/>
<path d="M46.6 0C46.3348 0 46.0804 0.105357 45.8929 0.292893C45.7053 0.48043 45.6 0.734784 45.6 1V2C45.6 2.26522 45.7053 2.51957 45.8929 2.70711C46.0804 2.89464 46.3348 3 46.6 3C46.8652 3 47.1195 2.89464 47.3071 2.70711C47.4946 2.51957 47.6 2.26522 47.6 2V1C47.6 0.734784 47.4946 0.48043 47.3071 0.292893C47.1195 0.105357 46.8652 0 46.6 0Z" fill="#F92323"/>
<path d="M48.6 5H49.6C49.8652 5 50.1195 4.89464 50.3071 4.70711C50.4946 4.51957 50.6 4.26522 50.6 4C50.6 3.73478 50.4946 3.48043 50.3071 3.29289C50.1195 3.10536 49.8652 3 49.6 3H48.6C48.3348 3 48.0804 3.10536 47.8929 3.29289C47.7053 3.48043 47.6 3.73478 47.6 4C47.6 4.26522 47.7053 4.51957 47.8929 4.70711C48.0804 4.89464 48.3348 5 48.6 5Z" fill="#F92323"/>
<path d="M45.6 7C45.6 7.26522 45.7053 7.51957 45.8929 7.70711C46.0804 7.89464 46.3348 8 46.6 8C46.8652 8 47.1195 7.89464 47.3071 7.70711C47.4946 7.51957 47.6 7.26522 47.6 7V6C47.6 5.73478 47.4946 5.48043 47.3071 5.29289C47.1195 5.10536 46.8652 5 46.6 5C46.3348 5 46.0804 5.10536 45.8929 5.29289C45.7053 5.48043 45.6 5.73478 45.6 6V7Z" fill="#F92323"/>
<path d="M63.6729 3.84199C63.5534 3.71927 63.4044 3.62926 63.2402 3.58059C63.076 3.53191 62.902 3.5262 62.7349 3.56399L60.7629 4.01099L59.0569 2.92699C58.9124 2.83426 58.7463 2.78042 58.5748 2.77066C58.4034 2.7609 58.2323 2.79555 58.0781 2.87127C57.924 2.94699 57.792 3.06121 57.6949 3.20289C57.5978 3.34456 57.5389 3.50889 57.5239 3.67999L57.3399 5.69299L55.7849 6.97999C55.6525 7.08885 55.5503 7.23002 55.4882 7.38986C55.4262 7.54971 55.4063 7.72285 55.4306 7.89259C55.455 8.06232 55.5226 8.22293 55.6271 8.35892C55.7315 8.49491 55.8692 8.6017 56.0269 8.66899L57.1989 9.17199L53.1119 14.426C50.7182 13.1794 47.9904 12.7253 45.3219 13.129C41.5809 13.683 38.2859 15.868 36.3599 18.999H28.8129C26.9009 15.867 23.6079 13.682 19.8559 13.13C13.0349 12.119 6.69993 16.621 5.73093 23.163C5.02293 27.951 7.42393 32.742 11.7219 35.245C11.1519 39.293 12.7659 43.347 15.9749 46.026C13.4509 51.759 11.8679 57.728 11.6329 61.88C11.6178 62.1532 11.6584 62.4266 11.7522 62.6836C11.8461 62.9406 11.9913 63.1759 12.1789 63.375C12.5549 63.772 13.0839 64 13.6319 64H50.5699C50.8411 63.9995 51.1093 63.9441 51.3585 63.8372C51.6077 63.7303 51.8327 63.5741 52.0199 63.378C52.3969 62.982 52.5969 62.44 52.5699 61.89C52.3609 57.851 50.9419 52.065 48.6689 46.453C52.1929 43.811 54.0529 39.505 53.4549 35.252C57.7659 32.743 60.1599 27.981 59.4459 23.169C58.9899 20.094 57.3449 17.386 54.8139 15.496L58.4289 10.848L58.6259 11.347C58.6884 11.5068 58.7911 11.6478 58.924 11.7564C59.0569 11.865 59.2156 11.9374 59.3847 11.9668C59.5538 11.9961 59.7276 11.9814 59.8893 11.924C60.051 11.8666 60.1952 11.7684 60.3079 11.639L61.6399 10.119L63.6579 9.99299C63.8292 9.98263 63.9949 9.92834 64.139 9.83536C64.2832 9.74239 64.401 9.61385 64.4811 9.46213C64.5612 9.31041 64.6008 9.14063 64.5962 8.96913C64.5917 8.79764 64.543 8.63021 64.4549 8.48299L63.4209 6.74599L63.9249 4.78899C63.9676 4.62277 63.9669 4.44838 63.9227 4.28254C63.8786 4.1167 63.7926 3.965 63.6729 3.84199ZM45.6159 15.108C47.7889 14.787 49.9509 15.118 51.8629 16.033L51.4039 16.623C51.141 16.5205 50.8599 16.4729 50.5779 16.483C50.3001 16.4957 50.028 16.566 49.7788 16.6897C49.5297 16.8133 49.3091 16.9874 49.1309 17.201L45.3099 21.787L39.7479 19.403C39.4183 19.2637 39.0747 19.1605 38.7229 19.095C40.4287 16.9363 42.8942 15.5102 45.6159 15.108ZM7.70893 23.456C8.51693 18.006 13.8259 14.258 19.5639 15.109C22.2537 15.5009 24.6948 16.8982 26.3949 19.019C25.0169 19.118 23.9729 20.169 23.4249 21.206L21.5459 25.217C17.0889 26.066 13.5609 29.119 12.2039 33.194C8.93893 31.03 7.15093 27.238 7.70893 23.456ZM13.7089 35.457C14.2609 31.763 16.8749 28.786 20.4439 27.569L17.1059 34.695C16.8828 35.1667 16.8537 35.707 17.0248 36.2C17.1959 36.6929 17.5536 37.099 18.0209 37.331L20.0799 38.361C18.9019 40.161 17.8219 42.114 16.8519 44.123C14.4309 41.878 13.2339 38.662 13.7089 35.457ZM13.6289 61.992C14.1099 53.49 20.5809 37.235 28.5349 32.202C28.8809 31.9886 29.1532 31.6744 29.3153 31.3017C29.4775 30.929 29.5216 30.5156 29.4419 30.117L29.1499 28.65C29.0717 28.2402 28.8658 27.8656 28.5617 27.58C28.2576 27.2944 27.8708 27.1123 27.4569 27.06C27.044 27 26.6227 27.0725 26.2536 27.2671C25.8845 27.4617 25.5867 27.7684 25.4029 28.143L21.1249 36.646L18.9199 35.542L23.0539 26.715C23.1456 26.5975 23.2095 26.4607 23.2409 26.315L25.2159 22.098C25.4949 21.569 26.0469 21 26.5999 21H37.7789C38.1869 21 38.5859 21.082 38.9619 21.242L44.5209 23.625C44.9172 23.7936 45.3572 23.8304 45.776 23.7299C46.1948 23.6294 46.5702 23.397 46.8469 23.067L50.6679 18.481L52.2309 20.045L46.3039 26.82L46.3029 26.819L39.9229 24.426C39.6717 24.3304 39.4036 24.2871 39.135 24.2986C38.8665 24.3101 38.6031 24.3763 38.3609 24.493C38.1175 24.6078 37.8999 24.771 37.7216 24.9727C37.5433 25.1744 37.408 25.4103 37.3239 25.666L35.8949 29.949C35.7574 30.3644 35.7601 30.8135 35.9026 31.2273C36.0452 31.641 36.3197 31.9965 36.6839 32.239C44.3809 37.513 50.1409 53.64 50.5709 62L13.6289 61.992ZM25.8699 31.665L27.1889 29.043L27.4659 30.512C26.9249 30.854 26.3929 31.24 25.8699 31.665ZM47.8539 44.532C45.2639 38.703 41.7759 33.308 37.7919 30.583L39.2199 26.301L45.5999 28.693C46.0619 28.866 46.5549 28.838 46.9979 28.672C49.4289 30.227 51.0539 32.668 51.4679 35.46C51.9709 38.854 50.5619 42.293 47.8539 44.532ZM57.4679 23.461C58.0329 27.266 56.2419 31.04 52.9589 33.206C52.1588 30.8139 50.6115 28.7422 48.5449 27.296L53.7369 21.362C54.4269 20.572 54.3869 19.373 53.6459 18.632L52.9309 17.917L53.5889 17.072C55.7099 18.646 57.0889 20.902 57.4679 23.461ZM61.1009 8.14699C60.9694 8.15531 60.8408 8.18954 60.7226 8.24772C60.6044 8.3059 60.4988 8.38687 60.4119 8.48599L59.8859 9.08699L59.5919 8.34499C59.5435 8.22229 59.4713 8.11037 59.3795 8.01564C59.2877 7.92092 59.1781 7.84525 59.0569 7.79299L58.3229 7.47799L58.9379 6.96899C59.0399 6.88516 59.1242 6.78186 59.1858 6.66511C59.2475 6.54836 59.2852 6.42049 59.2969 6.28899L59.3689 5.49299L60.0439 5.92199C60.2689 6.06499 60.5439 6.11099 60.8009 6.05399L61.5799 5.87699L61.3799 6.64999C61.3139 6.90799 61.3539 7.18099 61.4889 7.41099L61.8979 8.09799L61.1009 8.14699Z" fill="black"/>
</g>
<defs>
<clipPath id="clip0_0_791">
<rect width="64" height="64" fill="white" transform="translate(0.599976)"/>
</clipPath>
</defs>
</svg>
