<svg width="65" height="65" viewBox="0 0 65 65" fill="none" xmlns="http://www.w3.org/2000/svg">
<path d="M59.4667 40.8815C59.4667 51.2015 51.12 59.5481 40.8 59.5481L43.6001 54.8815" stroke="#F92323" stroke-width="4" stroke-linecap="round" stroke-linejoin="round"/>
<path d="M6.1333 24.8814C6.1333 14.5614 14.48 6.21472 24.8 6.21472L22 10.8814" stroke="#131313" stroke-width="4" stroke-linecap="round" stroke-linejoin="round"/>
<path d="M37.3335 12.748L47.9468 18.8813L58.4535 12.7747" stroke="#131313" stroke-width="4" stroke-linecap="round" stroke-linejoin="round"/>
<path d="M47.9465 29.7349V18.8549" stroke="#131313" stroke-width="4" stroke-linecap="round" stroke-linejoin="round"/>
<path d="M45.4401 6.77472L39.0401 10.3213C37.6001 11.1213 36.4001 13.1479 36.4001 14.8013V21.5747C36.4001 23.228 37.5735 25.2547 39.0401 26.0547L45.4401 29.6014C46.8001 30.3747 49.0401 30.3747 50.4268 29.6014L56.8268 26.0547C58.2668 25.2547 59.4668 23.228 59.4668 21.5747V14.8013C59.4668 13.1479 58.2934 11.1213 56.8268 10.3213L50.4268 6.77472C49.0668 6.02806 46.8268 6.02806 45.4401 6.77472Z" stroke="#131313" stroke-width="4" stroke-linecap="round" stroke-linejoin="round"/>
<path d="M7.06689 42.0811L17.6536 48.2144L28.1869 42.1077" stroke="#F92323" stroke-width="4" stroke-linecap="round" stroke-linejoin="round"/>
<path d="M17.6541 59.0678V48.1877" stroke="#F92323" stroke-width="4" stroke-linecap="round" stroke-linejoin="round"/>
<path d="M15.1733 36.108L8.77332 39.6545C7.33332 40.4545 6.1333 42.4812 6.1333 44.1345V50.9079C6.1333 52.5613 7.30665 54.5879 8.77332 55.3879L15.1733 58.9346C16.5333 59.708 18.7733 59.708 20.16 58.9346L26.56 55.3879C28 54.5879 29.2 52.5613 29.2 50.9079V44.1345C29.2 42.4812 28.0266 40.4545 26.56 39.6545L20.16 36.108C18.7733 35.3613 16.5333 35.3613 15.1733 36.108Z" stroke="#F92323" stroke-width="4" stroke-linecap="round" stroke-linejoin="round"/>
</svg>
