<svg width="49" height="48" viewBox="0 0 49 48" fill="none" xmlns="http://www.w3.org/2000/svg">
<path d="M18.1436 28.6597C18.1436 31.2397 20.1236 33.3197 22.5836 33.3197H27.6036C29.7436 33.3197 31.4836 31.4997 31.4836 29.2597C31.4836 26.8197 30.4236 25.9597 28.8436 25.3997L20.7836 22.5997C19.2036 22.0397 18.1436 21.1797 18.1436 18.7397C18.1436 16.4997 19.8836 14.6797 22.0236 14.6797H27.0436C29.5036 14.6797 31.4836 16.7597 31.4836 19.3397" stroke="#F92323" stroke-width="3" stroke-linecap="round" stroke-linejoin="round"/>
<path d="M24.7998 12V36" stroke="#F92323" stroke-width="3" stroke-linecap="round" stroke-linejoin="round"/>
<path d="M24.7998 44C35.8455 44 44.7998 35.0457 44.7998 24C44.7998 12.9543 35.8455 4 24.7998 4C13.7541 4 4.7998 12.9543 4.7998 24C4.7998 35.0457 13.7541 44 24.7998 44Z" stroke="#F92323" stroke-width="3" stroke-linecap="round" stroke-linejoin="round"/>
</svg>
