<svg width="49" height="48" viewBox="0 0 49 48" fill="none" xmlns="http://www.w3.org/2000/svg">
<path d="M40.4673 22.7246C40.0126 22.7246 39.5766 22.544 39.2551 22.2225C38.9336 21.901 38.753 21.465 38.753 21.0103V16.1692C38.753 9.31204 32.417 3.82632 24.6273 3.82632C16.8376 3.82632 10.5016 9.38061 10.5016 16.1692V21.0103C10.5016 21.465 10.321 21.901 9.99947 22.2225C9.67798 22.544 9.24194 22.7246 8.78728 22.7246C8.33263 22.7246 7.89659 22.544 7.5751 22.2225C7.25361 21.901 7.073 21.465 7.073 21.0103V16.1692C7.073 7.4469 14.9587 0.342896 24.6273 0.342896C34.2959 0.342896 42.1816 7.4469 42.1816 16.1692V21.0103C42.1834 21.236 42.1403 21.4597 42.0548 21.6685C41.9693 21.8773 41.8431 22.067 41.6835 22.2266C41.524 22.3861 41.3343 22.5123 41.1255 22.5978C40.9167 22.6833 40.6929 22.7264 40.4673 22.7246Z" fill="#F92323"/>
<path d="M35.8319 38.8525C35.3772 38.8525 34.9412 38.6719 34.6197 38.3504C34.2982 38.0289 34.1176 37.5929 34.1176 37.1382V20.8594C34.1318 20.4143 34.3187 19.9922 34.6387 19.6825C34.9586 19.3728 35.3866 19.1997 35.8319 19.2C41.7427 19.2 46.5564 23.6297 46.5564 29.0605C46.5564 34.4914 41.7427 38.8525 35.8319 38.8525ZM37.5462 22.752V35.2457C39.047 34.9972 40.4178 34.2427 41.4306 33.1076C42.4435 31.9725 43.0376 30.525 43.1142 29.0057C43.0406 27.4839 42.4479 26.0332 41.4348 24.8953C40.4216 23.7574 39.0492 23.001 37.5462 22.752ZM13.3679 38.8525C7.45703 38.8525 2.64331 34.4365 2.64331 29.0057C2.64331 23.5748 7.45703 19.2 13.3679 19.2C13.8225 19.2 14.2586 19.3806 14.5801 19.7021C14.9016 20.0235 15.0822 20.4596 15.0822 20.9142V37.1382C15.0822 37.5929 14.9016 38.0289 14.5801 38.3504C14.2586 38.6719 13.8225 38.8525 13.3679 38.8525ZM11.6536 22.752C10.1505 23.001 8.77812 23.7574 7.76499 24.8953C6.75186 26.0332 6.15916 27.4839 6.0856 29.0057C6.1622 30.525 6.75628 31.9725 7.76915 33.1076C8.78201 34.2427 10.1527 34.9972 11.6536 35.2457V22.752Z" fill="#F92323"/>
<path d="M35.2697 44.4343H29.592C29.1373 44.4343 28.7013 44.2537 28.3798 43.9322C28.0583 43.6108 27.8777 43.1747 27.8777 42.7201C27.8777 42.2654 28.0583 41.8294 28.3798 41.5079C28.7013 41.1864 29.1373 41.0058 29.592 41.0058H35.2697C36.1572 41.0058 37.0083 40.6532 37.6359 40.0257C38.2634 39.3981 38.616 38.547 38.616 37.6595V36.9052C38.616 36.4505 38.7966 36.0145 39.1181 35.693C39.4396 35.3715 39.8756 35.1909 40.3303 35.1909C40.7849 35.1909 41.2209 35.3715 41.5424 35.693C41.8639 36.0145 42.0445 36.4505 42.0445 36.9052V37.6595C42.0445 39.4563 41.3308 41.1795 40.0602 42.45C38.7897 43.7206 37.0665 44.4343 35.2697 44.4343Z" fill="#F92323"/>
<path d="M26.6571 47.6571H23.2696C22.0257 47.6571 20.8327 47.163 19.9531 46.2834C19.0735 45.4038 18.5793 44.2108 18.5793 42.9668V42.7748C18.583 41.5333 19.0787 40.3438 19.9579 39.4672C20.8371 38.5905 22.0281 38.0983 23.2696 38.0983H26.6571C27.8974 38.0983 29.0869 38.591 29.9639 39.468C30.8409 40.345 31.3336 41.5345 31.3336 42.7748V42.9668C31.3336 44.2084 30.8414 45.3993 29.9647 46.2785C29.0881 47.1577 27.8986 47.6535 26.6571 47.6571ZM23.2971 41.5268C22.9648 41.5268 22.6459 41.6579 22.4097 41.8915C22.1735 42.1252 22.039 42.4426 22.0353 42.7748V42.9668C22.0353 43.3015 22.1683 43.6224 22.4049 43.859C22.6415 44.0956 22.9624 44.2286 23.2971 44.2286H26.6571C26.9893 44.2249 27.3067 44.0904 27.5404 43.8542C27.774 43.618 27.9051 43.2991 27.9051 42.9668V42.7748C27.9051 42.4438 27.7736 42.1264 27.5395 41.8924C27.3055 41.6583 26.9881 41.5268 26.6571 41.5268H23.2971Z" fill="#F92323"/>
</svg>
