<svg width="64" height="65" viewBox="0 0 64 65" fill="none" xmlns="http://www.w3.org/2000/svg">
<path d="M53.2541 27.1667H10.5874V48.5C10.5874 56.5 13.2541 59.1667 21.2541 59.1667H42.5874C50.5874 59.1667 53.2541 56.5 53.2541 48.5V27.1667Z" stroke="#131313" stroke-width="4.25" stroke-miterlimit="10" stroke-linecap="round" stroke-linejoin="round"/>
<path d="M57.3334 19.1666V21.8333C57.3334 24.7666 55.9201 27.1666 52.0001 27.1666H12.0001C7.92008 27.1666 6.66675 24.7666 6.66675 21.8333V19.1666C6.66675 16.2333 7.92008 13.8333 12.0001 13.8333H52.0001C55.9201 13.8333 57.3334 16.2333 57.3334 19.1666Z" stroke="#131313" stroke-width="4.25" stroke-miterlimit="10" stroke-linecap="round" stroke-linejoin="round"/>
<path d="M31.0395 13.8332H16.3195C15.4128 12.8465 15.4395 11.3265 16.3995 10.3665L20.1862 6.57984C21.1728 5.59318 22.7995 5.59318 23.7862 6.57984L31.0395 13.8332Z" stroke="#131313" stroke-width="4.25" stroke-miterlimit="10" stroke-linecap="round" stroke-linejoin="round"/>
<path d="M47.6538 13.8332H32.9338L40.1872 6.57984C41.1738 5.59318 42.8005 5.59318 43.7872 6.57984L47.5738 10.3665C48.5338 11.3265 48.5605 12.8465 47.6538 13.8332Z" stroke="#131313" stroke-width="4.25" stroke-miterlimit="10" stroke-linecap="round" stroke-linejoin="round"/>
<path d="M23.8401 27.1667V40.8734C23.8401 43.0067 26.1868 44.26 27.9734 43.1134L30.4801 41.46C31.3868 40.8734 32.5334 40.8734 33.4134 41.46L35.7868 43.06C37.5468 44.2334 39.9201 42.98 39.9201 40.8467V27.1667H23.8401Z" stroke="#131313" stroke-width="4.25" stroke-miterlimit="10" stroke-linecap="round" stroke-linejoin="round"/>
</svg>
