<svg width="64" height="65" viewBox="0 0 64 65" fill="none" xmlns="http://www.w3.org/2000/svg">
<path d="M31.9993 37.8333H34.6659C37.5993 37.8333 39.9993 35.4333 39.9993 32.5V5.83331H15.9993C11.9993 5.83331 8.50596 8.04661 6.69263 11.2999" stroke="#131313" stroke-width="4.25" stroke-linecap="round" stroke-linejoin="round"/>
<path d="M5.33325 45.8333C5.33325 50.26 8.90659 53.8333 13.3333 53.8333H15.9999C15.9999 50.9 18.3999 48.5 21.3333 48.5C24.2666 48.5 26.6666 50.9 26.6666 53.8333H37.3333C37.3333 50.9 39.7333 48.5 42.6666 48.5C45.5999 48.5 47.9999 50.9 47.9999 53.8333H50.6666C55.0933 53.8333 58.6666 50.26 58.6666 45.8333V37.8333H50.6666C49.1999 37.8333 47.9999 36.6333 47.9999 35.1666V27.1666C47.9999 25.7 49.1999 24.5 50.6666 24.5H54.1065L49.5466 16.5267C48.5866 14.8733 46.8267 13.8333 44.9067 13.8333H39.9999V32.5C39.9999 35.4333 37.5999 37.8333 34.6666 37.8333H31.9999" stroke="#131313" stroke-width="4.25" stroke-linecap="round" stroke-linejoin="round"/>
<path d="M21.3331 59.1667C24.2786 59.1667 26.6664 56.7789 26.6664 53.8333C26.6664 50.8878 24.2786 48.5 21.3331 48.5C18.3876 48.5 15.9998 50.8878 15.9998 53.8333C15.9998 56.7789 18.3876 59.1667 21.3331 59.1667Z" stroke="#131313" stroke-width="4.25" stroke-linecap="round" stroke-linejoin="round"/>
<path d="M42.6666 59.1667C45.6121 59.1667 47.9999 56.7789 47.9999 53.8333C47.9999 50.8878 45.6121 48.5 42.6666 48.5C39.7211 48.5 37.3333 50.8878 37.3333 53.8333C37.3333 56.7789 39.7211 59.1667 42.6666 59.1667Z" stroke="#131313" stroke-width="4.25" stroke-linecap="round" stroke-linejoin="round"/>
<path d="M58.6664 32.5V37.8333H50.6664C49.1998 37.8333 47.9998 36.6333 47.9998 35.1667V27.1667C47.9998 25.7 49.1998 24.5 50.6664 24.5H54.1064L58.6664 32.5Z" stroke="#131313" stroke-width="4.25" stroke-linecap="round" stroke-linejoin="round"/>
<path d="M5.33325 21.8333H21.3333" stroke="#131313" stroke-width="4.25" stroke-linecap="round" stroke-linejoin="round"/>
<path d="M5.33325 29.8333H15.9999" stroke="#131313" stroke-width="4.25" stroke-linecap="round" stroke-linejoin="round"/>
<path d="M5.33325 37.8333H10.6666" stroke="#131313" stroke-width="4.25" stroke-linecap="round" stroke-linejoin="round"/>
</svg>
