<svg width="64" height="65" viewBox="0 0 64 65" fill="none" xmlns="http://www.w3.org/2000/svg">
<path d="M55.8721 38.26V58.74C55.8721 59.444 55.2961 60.02 54.5921 60.02H43.7121V36.98H54.5921C55.2961 36.98 55.8721 37.556 55.8721 38.26ZM22.5921 46.964V58.74C22.5921 59.444 23.1681 60.02 23.8721 60.02H34.7521V36.98H30.2081L22.5921 46.964ZM37.3121 60.02H41.1521V36.98H37.3121V60.02ZM32.4481 27.764L29.3761 25.46C29.1201 25.268 28.8641 25.204 28.6081 25.204H28.4161C28.0961 25.268 27.7761 25.396 27.5841 25.716L18.2401 37.876L16.7041 39.924L14.4001 42.996L5.82408 54.132C5.37608 54.708 5.50408 55.476 6.08008 55.924L9.15208 58.292C9.40808 58.484 9.79208 58.612 10.1121 58.548C10.4321 58.484 10.7521 58.356 10.9441 58.036L32.7041 29.556C33.0881 29.044 33.0241 28.212 32.4481 27.764ZM13.4401 35.828L15.4881 37.364L17.0241 35.316C17.8561 34.164 17.6641 32.564 16.5121 31.732C16.0641 31.412 15.4881 31.22 14.9761 31.22C14.2081 31.22 13.4401 31.54 12.9281 32.244C12.5441 32.756 12.3521 33.46 12.4161 34.164C12.4801 34.868 12.8641 35.38 13.4401 35.828ZM8.76808 41.908C9.92008 42.74 11.5201 42.548 12.3521 41.396L13.8881 39.348L11.8401 37.812C11.3921 37.428 10.8161 37.3 10.3041 37.3C9.53608 37.3 8.76808 37.62 8.25608 38.324C7.80808 38.9 7.68008 39.54 7.74408 40.244C7.87208 40.884 8.19208 41.46 8.76808 41.908ZM43.7121 18.036C45.4401 16.628 46.1441 14.836 45.6321 13.236C45.2481 12.02 44.2241 11.124 43.2001 11.06H43.0081C41.9201 11.06 40.8961 11.572 40.2561 12.468C40.0001 12.788 39.6161 12.98 39.2321 12.98C38.8481 12.98 38.4641 12.788 38.2081 12.468C37.5681 11.572 36.5441 11.06 35.4561 11.06H35.2641C34.2401 11.124 33.2161 12.02 32.8321 13.236C32.3201 14.836 33.0241 16.628 34.7521 18.036L39.2321 21.556L43.7121 18.036ZM57.1521 13.94H53.3121C52.6081 13.94 52.0321 14.516 52.0321 15.22C52.0321 15.924 52.6081 16.5 53.3121 16.5H57.1521C57.8561 16.5 58.4321 15.924 58.4321 15.22C58.4321 14.516 57.8561 13.94 57.1521 13.94ZM52.0321 10.1C52.3521 10.1 52.6721 9.97198 52.9281 9.71598L55.4881 7.15598C56.0001 6.64398 56.0001 5.87598 55.4881 5.36398C54.9761 4.85198 54.2081 4.85198 53.6961 5.36398L51.1361 7.92398C50.6241 8.43598 50.6241 9.20398 51.1361 9.71598C51.3921 9.97198 51.7121 10.1 52.0321 10.1ZM52.9281 20.724C52.4161 20.212 51.6481 20.212 51.1361 20.724C50.6241 21.236 50.6241 22.004 51.1361 22.516L53.6961 25.076C53.9521 25.332 54.2721 25.46 54.5921 25.46C54.9121 25.46 55.2321 25.332 55.4881 25.076C56.0001 24.564 56.0001 23.796 55.4881 23.284L52.9281 20.724ZM21.3121 16.5H25.1521C25.8561 16.5 26.4321 15.924 26.4321 15.22C26.4321 14.516 25.8561 13.94 25.1521 13.94H21.3121C20.6081 13.94 20.0321 14.516 20.0321 15.22C20.0321 15.924 20.6081 16.5 21.3121 16.5ZM25.5361 9.71598C25.7921 9.97198 26.1121 10.1 26.4321 10.1C26.7521 10.1 27.0721 9.97198 27.3281 9.71598C27.8401 9.20398 27.8401 8.43598 27.3281 7.92398L24.7681 5.36398C24.2561 4.85198 23.4881 4.85198 22.9761 5.36398C22.4641 5.87598 22.4641 6.64398 22.9761 7.15598L25.5361 9.71598Z" fill="#131313"/>
</svg>
