<svg width="65" height="65" viewBox="0 0 65 65" fill="none" xmlns="http://www.w3.org/2000/svg">
<path d="M49.7331 52.8813H39.0664" stroke="#F92323" stroke-width="4" stroke-linecap="round" stroke-linejoin="round"/>
<path d="M44.3999 58.2146V47.548" stroke="#F92323" stroke-width="4" stroke-linecap="round" stroke-linejoin="round"/>
<path d="M32.8263 29.8681C32.5597 29.8414 32.2397 29.8414 31.9463 29.8681C25.5997 29.6547 20.5597 24.4547 20.5597 18.0547C20.533 11.5214 25.8397 6.21472 32.373 6.21472C38.9063 6.21472 44.213 11.5214 44.213 18.0547C44.213 24.4547 39.1463 29.6547 32.8263 29.8681Z" stroke="#292D32" stroke-width="4" stroke-linecap="round" stroke-linejoin="round"/>
<path d="M32.3733 59.0414C27.52 59.0414 22.6933 57.8147 19.0133 55.3614C12.56 51.0414 12.56 44.0014 19.0133 39.7081C26.3467 34.8014 38.3733 34.8014 45.7067 39.7081" stroke="#292D32" stroke-width="4" stroke-linecap="round" stroke-linejoin="round"/>
</svg>
