<svg width="65" height="65" viewBox="0 0 65 65" fill="none" xmlns="http://www.w3.org/2000/svg">
<path d="M61.9331 48.6413C61.9864 50.6413 61.4531 52.5346 60.4931 54.1613C59.9597 55.1213 59.2397 56.0014 58.4397 56.7214C56.5997 58.428 54.173 59.468 51.4797 59.548C47.5864 59.628 44.1464 57.628 42.2531 54.5614C41.2397 52.988 40.6264 51.0947 40.5997 49.0947C40.5197 45.7347 42.0131 42.6947 44.4131 40.6947C46.2264 39.2013 48.5198 38.268 51.0264 38.2147C56.9198 38.0814 61.7997 42.748 61.9331 48.6413Z" stroke="#F92323" stroke-width="4" stroke-miterlimit="10" stroke-linecap="round" stroke-linejoin="round"/>
<path d="M47.1077 48.9615L49.801 51.5214L55.3743 46.1346" stroke="#F92323" stroke-width="4" stroke-linecap="round" stroke-linejoin="round"/>
<path d="M9.05298 20.7213L32.5996 34.3479L55.9862 20.8012" stroke="#292D32" stroke-width="4" stroke-linecap="round" stroke-linejoin="round"/>
<path d="M32.5994 58.5079V34.3212" stroke="#292D32" stroke-width="4" stroke-linecap="round" stroke-linejoin="round"/>
<path d="M58.2264 25.3347V40.4282C58.2264 40.5615 58.2265 40.668 58.1998 40.8014C56.3331 39.1747 53.9331 38.2148 51.2664 38.2148C48.7598 38.2148 46.4398 39.0948 44.5998 40.5615C42.1464 42.5081 40.5998 45.5214 40.5998 48.8814C40.5998 50.8814 41.1597 52.7748 42.1464 54.3748C42.3864 54.8014 42.6798 55.2015 42.9998 55.5748L38.1198 58.2682C35.0798 59.9748 30.1198 59.9748 27.0798 58.2682L12.8398 50.3748C9.6131 48.5881 6.97314 44.1082 6.97314 40.4282V25.3347C6.97314 21.6547 9.6131 17.1748 12.8398 15.3881L27.0798 7.49472C30.1198 5.78806 35.0798 5.78806 38.1198 7.49472L52.3598 15.3881C55.5864 17.1748 58.2264 21.6547 58.2264 25.3347Z" stroke="#292D32" stroke-width="4" stroke-linecap="round" stroke-linejoin="round"/>
</svg>
