<svg width="471" height="172" viewBox="0 0 471 172" fill="none" xmlns="http://www.w3.org/2000/svg">
<path d="M39.37 140.351C32.37 140.351 26.45 138.541 22.46 134.311H21.86C21.98 135.031 22.1 136.121 22.1 137.211V138.421H0V47.8512H23.91V73.6912C23.91 77.1912 23.79 77.8012 23.67 77.9212H24.27C27.41 74.7812 32.6 73.3312 39 73.3312C55.79 73.3312 68.59 86.4912 68.59 106.661C68.59 126.831 56.39 140.351 39.37 140.351ZM44.44 106.541C44.44 98.8112 40.21 94.2212 33.81 94.2212C27.41 94.2212 23.06 98.8112 23.06 106.541C23.06 114.271 27.65 119.221 33.81 119.221C39.97 119.221 44.44 114.271 44.44 106.541Z" fill="black"/>
<path d="M96.3801 73.3312C103.38 73.3312 108.7 75.0212 112.32 78.7612H112.8C112.68 78.4012 112.56 77.7912 112.56 77.0712V75.2612H134.66V138.421H112.56V136.611C112.56 135.761 112.68 134.801 112.8 134.321H112.32C108.21 138.431 102.42 140.361 95.2901 140.361C78.3801 140.361 66.0701 126.961 66.0701 106.911C66.0701 86.8612 79.1101 73.3412 96.3801 73.3412V73.3312ZM111.72 106.541C111.72 98.9312 107.25 94.2212 100.97 94.2212C94.6901 94.2212 90.3401 98.9312 90.3401 106.541C90.3401 114.151 94.6901 119.221 100.97 119.221C107.25 119.221 111.72 114.271 111.72 106.541Z" fill="black"/>
<path d="M207.4 117.641C206.87 117.761 206.35 117.761 205.68 117.761C202.18 117.761 199.52 116.791 199.52 112.211V47.8512H175.37V114.501C175.37 115.281 175.39 116.041 175.44 116.781C175.8 123.961 177.96 129.341 181.82 133.031C186.3 129.251 189.65 124.751 191.5 121.941L185.17 135.571C189.33 138.071 194.78 139.281 201.45 139.281C204.35 139.281 206.64 138.921 207.85 138.441V117.531C207.69 117.561 207.54 117.621 207.4 117.651V117.641Z" fill="black"/>
<path d="M245.43 73.3312C225.39 73.3312 211.14 87.1012 211.14 106.901C211.14 110.111 211.52 113.161 212.24 116.031C213.62 121.521 216.26 126.311 219.92 130.141C223.7 126.281 226.32 122.311 227.48 120.391L223.84 133.621C229.6 137.931 237 140.361 245.44 140.361C265.48 140.361 279.73 126.601 279.73 106.901C279.73 87.2012 265.48 73.3312 245.44 73.3312H245.43ZM245.43 119.221C239.03 119.221 235.29 114.271 235.29 106.541C235.29 98.8112 239.03 94.2212 245.43 94.2212C251.83 94.2212 255.57 98.9312 255.57 106.541C255.57 114.151 251.83 119.221 245.43 119.221Z" fill="black"/>
<path d="M278.77 106.901C278.77 87.0912 293.02 73.3312 313.07 73.3312C333.12 73.3312 347.37 87.1012 347.37 106.901C347.37 126.701 333.12 140.351 313.07 140.351C293.02 140.351 278.77 126.581 278.77 106.901ZM323.21 106.541C323.21 98.9312 319.47 94.2212 313.07 94.2212C306.67 94.2212 302.93 98.9312 302.93 106.541C302.93 114.151 306.67 121.911 313.07 121.911C319.47 121.911 323.21 114.271 323.21 106.541Z" fill="black"/>
<path d="M375.09 73.3312C392.12 73.3312 404.8 83.4712 404.8 99.1712V138.421H380.65V99.9012C380.65 96.6412 378.36 94.2212 375.22 94.2212C372.08 94.2212 369.79 96.6412 369.79 99.9012V138.421H345.64V98.4512C345.64 83.2312 358.2 73.3312 375.11 73.3312H375.09Z" fill="black"/>
<path d="M228.17 119.211C228.17 119.211 227.93 119.641 227.48 120.381C226.32 122.291 223.7 126.261 219.92 130.131C216.68 133.441 212.59 136.671 207.85 138.431C207.85 138.431 200.55 120.041 207.4 117.641C207.54 117.611 207.69 117.551 207.85 117.521C209.51 117.161 210.95 116.621 212.25 116.021C216.91 113.851 219.22 110.711 219.22 110.711L228.17 119.211Z" fill="black"/>
<path d="M172.4 117.641C171.87 117.761 171.35 117.761 170.68 117.761C167.18 117.761 164.52 116.791 164.52 112.211V47.8512H140.35V114.501C140.35 131.421 149.41 139.271 166.43 139.271C169.35 139.271 171.64 138.911 172.85 138.431V117.521C172.69 117.551 172.54 117.611 172.4 117.641Z" fill="black"/>
<path d="M193.17 119.211C193.17 119.211 192.58 120.281 191.5 121.941C189.65 124.751 186.31 129.251 181.82 133.031C179.2 135.241 176.2 137.191 172.85 138.431C172.85 138.431 165.55 120.041 172.4 117.641C172.54 117.611 172.69 117.551 172.85 117.521C173.76 117.311 174.63 117.051 175.44 116.781C181.3 114.661 184.2 110.711 184.2 110.711L193.17 119.211Z" fill="black"/>
<path d="M422.3 84.3411L438.83 94.6811C447.17 99.9011 458.02 98.5811 464.87 91.5211L465.09 91.2911C473.11 83.0211 472.91 69.8111 464.64 61.7911C457.48 54.8411 446.39 53.9411 438.2 59.6411L421.97 70.9311C417.24 74.2211 417.41 81.2811 422.3 84.3411Z" fill="black"/>
<path d="M386.09 55.9012L384.55 46.0413C383.78 41.0713 379.63 37.3112 374.61 37.0312H374.45C368.56 36.6912 363.52 41.1913 363.19 47.0713C362.9 52.1713 366.26 56.7612 371.21 58.0212L381.01 60.5212C383.87 61.2512 386.54 58.8212 386.09 55.9012Z" fill="black"/>
<path d="M413.41 64.7712L434.37 50.1612C444.95 42.7912 448.94 29.0312 443.94 17.1412L443.78 16.7612C437.93 2.84118 421.91 -3.70882 407.98 2.14118C395.92 7.21118 389.14 20.1012 391.8 32.9112L397.07 58.2812C398.61 65.6812 407.2 69.1012 413.4 64.7812L413.41 64.7712Z" fill="black"/>
<path d="M8.78 152.301C9.96 152.901 10.86 153.761 11.49 154.871C12.12 155.981 12.43 157.301 12.43 158.811C12.43 160.321 12.12 161.631 11.49 162.741C10.86 163.851 9.96 164.701 8.78 165.281C7.6 165.871 6.20998 166.161 4.59998 166.161H0V151.401H4.59998C6.20998 151.401 7.6 151.701 8.78 152.301ZM8.95999 163.061C9.95999 162.051 10.46 160.631 10.46 158.811C10.46 156.991 9.94998 155.541 8.94998 154.511C7.93998 153.481 6.48998 152.961 4.59998 152.961H1.92999V164.571H4.59998C6.50998 164.571 7.95999 164.061 8.95999 163.061Z" fill="black"/>
<path d="M25.5 161.081H16.22C16.29 162.221 16.68 163.121 17.4 163.761C18.11 164.401 18.98 164.721 19.99 164.721C20.82 164.721 21.52 164.531 22.08 164.141C22.64 163.751 23.03 163.231 23.26 162.581H25.34C25.03 163.701 24.41 164.601 23.48 165.301C22.55 166.001 21.39 166.351 20.01 166.351C18.91 166.351 17.92 166.101 17.06 165.611C16.19 165.121 15.51 164.411 15.02 163.501C14.53 162.591 14.28 161.531 14.28 160.331C14.28 159.131 14.52 158.081 15 157.171C15.48 156.271 16.15 155.571 17.02 155.081C17.89 154.591 18.89 154.351 20.02 154.351C21.15 154.351 22.1 154.591 22.94 155.071C23.79 155.551 24.44 156.211 24.9 157.051C25.36 157.891 25.59 158.841 25.59 159.901C25.59 160.271 25.57 160.661 25.53 161.061L25.5 161.081ZM23.09 157.621C22.77 157.091 22.32 156.691 21.77 156.411C21.22 156.131 20.59 156.001 19.92 156.001C18.95 156.001 18.12 156.311 17.43 156.931C16.75 157.551 16.35 158.411 16.25 159.511H23.58C23.58 158.781 23.42 158.141 23.09 157.611V157.621Z" fill="black"/>
<path d="M30.0301 150.491V166.161H28.1001V150.491H30.0301Z" fill="black"/>
<path d="M33.38 152.291C33.13 152.041 33 151.731 33 151.361C33 150.991 33.13 150.681 33.38 150.431C33.63 150.181 33.94 150.051 34.31 150.051C34.68 150.051 34.96 150.181 35.21 150.431C35.46 150.681 35.58 150.991 35.58 151.361C35.58 151.731 35.46 152.041 35.21 152.291C34.96 152.541 34.66 152.671 34.31 152.671C33.96 152.671 33.63 152.541 33.38 152.291ZM35.24 154.561V166.171H33.31V154.561H35.24Z" fill="black"/>
<path d="M42.8501 164.391L46.4501 154.561H48.5002L43.9501 166.171H41.7101L37.1602 154.561H39.2401L42.8601 164.391H42.8501Z" fill="black"/>
<path d="M60.93 161.081H51.65C51.72 162.221 52.11 163.121 52.83 163.761C53.54 164.401 54.41 164.721 55.42 164.721C56.25 164.721 56.9499 164.531 57.5099 164.141C58.0699 163.751 58.46 163.231 58.69 162.581H60.77C60.46 163.701 59.84 164.601 58.91 165.301C57.98 166.001 56.82 166.351 55.44 166.351C54.34 166.351 53.35 166.101 52.49 165.611C51.62 165.121 50.94 164.411 50.45 163.501C49.96 162.591 49.71 161.531 49.71 160.331C49.71 159.131 49.95 158.081 50.43 157.171C50.91 156.271 51.58 155.571 52.45 155.081C53.32 154.591 54.32 154.351 55.45 154.351C56.58 154.351 57.53 154.591 58.37 155.071C59.22 155.551 59.87 156.211 60.33 157.051C60.79 157.891 61.02 158.841 61.02 159.901C61.02 160.271 61 160.661 60.96 161.061L60.93 161.081ZM58.52 157.621C58.2 157.091 57.75 156.691 57.2 156.411C56.65 156.131 56.0199 156.001 55.3499 156.001C54.3799 156.001 53.55 156.311 52.86 156.931C52.18 157.551 51.78 158.411 51.68 159.511H59.0099C59.0099 158.781 58.85 158.141 58.52 157.611V157.621Z" fill="black"/>
<path d="M66.92 154.901C67.55 154.531 68.3101 154.351 69.2201 154.351V156.341H68.7101C66.5501 156.341 65.4701 157.511 65.4701 159.861V166.171H63.54V154.561H65.4701V156.441C65.8101 155.781 66.29 155.261 66.92 154.891V154.901Z" fill="black"/>
<path d="M71.5001 152.291C71.2501 152.041 71.1201 151.731 71.1201 151.361C71.1201 150.991 71.2501 150.681 71.5001 150.431C71.7501 150.181 72.0601 150.051 72.4301 150.051C72.8001 150.051 73.0801 150.181 73.3301 150.431C73.5801 150.681 73.7001 150.991 73.7001 151.361C73.7001 151.731 73.5801 152.041 73.3301 152.291C73.0801 152.541 72.7801 152.671 72.4301 152.671C72.0801 152.671 71.7501 152.541 71.5001 152.291ZM73.3601 154.561V166.171H71.4301V154.561H73.3601Z" fill="black"/>
<path d="M85.7299 155.631C86.6099 156.481 87.0399 157.721 87.0399 159.331V166.171H85.1299V159.601C85.1299 158.441 84.8399 157.561 84.2599 156.941C83.6799 156.331 82.8899 156.021 81.8899 156.021C80.8899 156.021 80.0699 156.341 79.4699 156.971C78.8699 157.611 78.5699 158.531 78.5699 159.751V166.171H76.6399V154.561H78.5699V156.211C78.9499 155.621 79.4699 155.161 80.1299 154.831C80.7899 154.511 81.5099 154.341 82.2999 154.341C83.7099 154.341 84.8599 154.771 85.7299 155.621V155.631Z" fill="black"/>
<path d="M97.62 155.021C98.38 155.461 98.94 156.011 99.3 156.671V154.551H101.25V166.411C101.25 167.471 101.02 168.411 100.57 169.241C100.12 170.071 99.47 170.711 98.63 171.181C97.79 171.651 96.81 171.881 95.7 171.881C94.18 171.881 92.9 171.521 91.89 170.801C90.88 170.081 90.27 169.101 90.09 167.861H92C92.21 168.571 92.65 169.131 93.31 169.561C93.97 169.991 94.77 170.211 95.7 170.211C96.76 170.211 97.6199 169.881 98.2899 169.211C98.9599 168.551 99.3 167.611 99.3 166.411V163.971C98.92 164.651 98.35 165.211 97.61 165.661C96.86 166.111 95.99 166.341 94.9799 166.341C93.9699 166.341 93.01 166.091 92.17 165.581C91.33 165.071 90.67 164.361 90.19 163.441C89.71 162.521 89.47 161.481 89.47 160.311C89.47 159.141 89.71 158.081 90.19 157.191C90.67 156.291 91.33 155.601 92.17 155.101C93.01 154.601 93.95 154.361 94.9799 154.361C96.0099 154.361 96.86 154.581 97.62 155.021ZM98.77 158.051C98.42 157.401 97.94 156.901 97.34 156.561C96.74 156.211 96.08 156.041 95.36 156.041C94.64 156.041 93.98 156.211 93.39 156.551C92.8 156.891 92.32 157.381 91.97 158.031C91.62 158.681 91.44 159.441 91.44 160.321C91.44 161.201 91.62 161.981 91.97 162.641C92.32 163.301 92.8 163.801 93.39 164.141C93.98 164.481 94.64 164.661 95.36 164.661C96.08 164.661 96.74 164.491 97.34 164.141C97.94 163.791 98.42 163.291 98.77 162.641C99.12 161.981 99.3 161.221 99.3 160.341C99.3 159.461 99.12 158.701 98.77 158.051Z" fill="black"/>
<path d="M121.55 151.401V166.161H119.62V159.471H112.1V166.161H110.17V151.401H112.1V157.881H119.62V151.401H121.55Z" fill="black"/>
<path d="M124.83 157.191C125.31 156.291 125.97 155.601 126.81 155.101C127.65 154.601 128.59 154.361 129.62 154.361C130.65 154.361 131.52 154.581 132.27 155.021C133.02 155.461 133.58 156.011 133.94 156.671V154.551H135.89V166.161H133.94V164.001C133.56 164.681 132.99 165.241 132.24 165.681C131.49 166.121 130.61 166.351 129.6 166.351C128.59 166.351 127.64 166.101 126.8 165.591C125.97 165.081 125.31 164.371 124.83 163.451C124.35 162.531 124.11 161.491 124.11 160.321C124.11 159.151 124.35 158.091 124.83 157.201V157.191ZM133.41 158.051C133.06 157.401 132.58 156.901 131.98 156.561C131.38 156.211 130.72 156.041 130 156.041C129.28 156.041 128.62 156.211 128.03 156.551C127.44 156.891 126.96 157.381 126.61 158.031C126.26 158.681 126.08 159.441 126.08 160.321C126.08 161.201 126.26 161.981 126.61 162.641C126.96 163.301 127.44 163.801 128.03 164.141C128.62 164.481 129.28 164.661 130 164.661C130.72 164.661 131.38 164.491 131.98 164.141C132.58 163.791 133.06 163.291 133.41 162.641C133.76 161.981 133.94 161.221 133.94 160.341C133.94 159.461 133.76 158.701 133.41 158.051Z" fill="black"/>
<path d="M142.78 155.031C143.54 154.591 144.41 154.361 145.42 154.361C146.43 154.361 147.39 154.611 148.23 155.101C149.07 155.591 149.73 156.291 150.21 157.191C150.69 158.091 150.93 159.131 150.93 160.311C150.93 161.491 150.69 162.531 150.21 163.441C149.73 164.361 149.07 165.071 148.23 165.581C147.39 166.091 146.45 166.341 145.42 166.341C144.39 166.341 143.56 166.121 142.8 165.671C142.04 165.221 141.47 164.671 141.07 164.011V171.661H139.14V154.551H141.07V156.691C141.45 156.031 142.02 155.471 142.77 155.031H142.78ZM148.42 158.031C148.07 157.381 147.59 156.891 146.99 156.551C146.39 156.211 145.73 156.041 145.01 156.041C144.29 156.041 143.65 156.211 143.05 156.561C142.45 156.911 141.97 157.411 141.61 158.061C141.25 158.711 141.07 159.481 141.07 160.341C141.07 161.201 141.25 161.981 141.61 162.641C141.97 163.301 142.45 163.801 143.05 164.141C143.65 164.491 144.3 164.661 145.01 164.661C145.72 164.661 146.39 164.491 146.99 164.141C147.59 163.791 148.07 163.291 148.42 162.641C148.77 161.981 148.95 161.211 148.95 160.321C148.95 159.431 148.77 158.681 148.42 158.031Z" fill="black"/>
<path d="M157.1 155.031C157.86 154.591 158.73 154.361 159.74 154.361C160.75 154.361 161.71 154.611 162.55 155.101C163.39 155.591 164.05 156.291 164.53 157.191C165.01 158.091 165.25 159.131 165.25 160.311C165.25 161.491 165.01 162.531 164.53 163.441C164.05 164.361 163.39 165.071 162.55 165.581C161.71 166.091 160.77 166.341 159.74 166.341C158.71 166.341 157.88 166.121 157.12 165.671C156.36 165.221 155.79 164.671 155.39 164.011V171.661H153.46V154.551H155.39V156.691C155.77 156.031 156.34 155.471 157.09 155.031H157.1ZM162.74 158.031C162.39 157.381 161.91 156.891 161.31 156.551C160.71 156.211 160.05 156.041 159.33 156.041C158.61 156.041 157.97 156.211 157.37 156.561C156.77 156.911 156.29 157.411 155.93 158.061C155.57 158.711 155.39 159.481 155.39 160.341C155.39 161.201 155.57 161.981 155.93 162.641C156.29 163.301 156.77 163.801 157.37 164.141C157.97 164.491 158.62 164.661 159.33 164.661C160.04 164.661 160.71 164.491 161.31 164.141C161.91 163.791 162.39 163.291 162.74 162.641C163.09 161.981 163.27 161.211 163.27 160.321C163.27 159.431 163.09 158.681 162.74 158.031Z" fill="black"/>
<path d="M167.84 152.291C167.59 152.041 167.46 151.731 167.46 151.361C167.46 150.991 167.59 150.681 167.84 150.431C168.09 150.181 168.4 150.051 168.77 150.051C169.14 150.051 169.42 150.181 169.67 150.431C169.92 150.681 170.04 150.991 170.04 151.361C170.04 151.731 169.92 152.041 169.67 152.291C169.42 152.541 169.12 152.671 168.77 152.671C168.42 152.671 168.09 152.541 167.84 152.291ZM169.7 154.561V166.171H167.77V154.561H169.7Z" fill="black"/>
<path d="M182.08 155.631C182.96 156.481 183.39 157.721 183.39 159.331V166.171H181.48V159.601C181.48 158.441 181.19 157.561 180.61 156.941C180.03 156.331 179.24 156.021 178.24 156.021C177.24 156.021 176.42 156.341 175.82 156.971C175.22 157.611 174.92 158.531 174.92 159.751V166.171H172.99V154.561H174.92V156.211C175.3 155.621 175.82 155.161 176.48 154.831C177.14 154.511 177.86 154.341 178.65 154.341C180.06 154.341 181.21 154.771 182.08 155.621V155.631Z" fill="black"/>
<path d="M197.07 161.081H187.79C187.86 162.221 188.25 163.121 188.97 163.761C189.68 164.401 190.55 164.721 191.56 164.721C192.39 164.721 193.09 164.531 193.65 164.141C194.21 163.751 194.6 163.231 194.83 162.581H196.91C196.6 163.701 195.98 164.601 195.05 165.301C194.12 166.001 192.96 166.351 191.58 166.351C190.48 166.351 189.49 166.101 188.63 165.611C187.76 165.121 187.08 164.411 186.59 163.501C186.1 162.591 185.85 161.531 185.85 160.331C185.85 159.131 186.09 158.081 186.57 157.171C187.05 156.271 187.72 155.571 188.59 155.081C189.46 154.591 190.46 154.351 191.59 154.351C192.72 154.351 193.67 154.591 194.51 155.071C195.36 155.551 196.01 156.211 196.47 157.051C196.93 157.891 197.16 158.841 197.16 159.901C197.16 160.271 197.14 160.661 197.1 161.061L197.07 161.081ZM194.66 157.621C194.34 157.091 193.89 156.691 193.34 156.411C192.79 156.131 192.16 156.001 191.49 156.001C190.52 156.001 189.69 156.311 189 156.931C188.32 157.551 187.92 158.411 187.82 159.511H195.15C195.15 158.781 194.99 158.141 194.66 157.611V157.621Z" fill="black"/>
<path d="M201.39 165.901C200.68 165.601 200.13 165.171 199.72 164.631C199.31 164.091 199.08 163.461 199.04 162.761H201.03C201.09 163.341 201.36 163.811 201.85 164.181C202.34 164.551 202.98 164.731 203.77 164.731C204.5 164.731 205.08 164.571 205.51 164.241C205.93 163.911 206.15 163.511 206.15 163.011C206.15 162.511 205.92 162.121 205.47 161.881C205.02 161.631 204.32 161.391 203.37 161.151C202.51 160.921 201.81 160.701 201.26 160.461C200.71 160.221 200.25 159.881 199.86 159.421C199.47 158.961 199.28 158.361 199.28 157.611C199.28 157.021 199.46 156.471 199.81 155.981C200.16 155.491 200.66 155.091 201.31 154.801C201.96 154.511 202.7 154.371 203.53 154.371C204.81 154.371 205.85 154.701 206.64 155.341C207.43 155.991 207.85 156.881 207.91 158.011H205.98C205.94 157.401 205.69 156.921 205.25 156.551C204.81 156.181 204.21 156.001 203.46 156.001C202.77 156.001 202.22 156.151 201.81 156.441C201.4 156.741 201.2 157.131 201.2 157.611C201.2 157.991 201.32 158.311 201.57 158.551C201.82 158.801 202.13 159.001 202.5 159.141C202.87 159.291 203.39 159.451 204.06 159.641C204.89 159.871 205.57 160.091 206.09 160.311C206.61 160.531 207.06 160.861 207.43 161.291C207.8 161.731 208 162.301 208.01 163.011C208.01 163.641 207.83 164.221 207.48 164.721C207.13 165.231 206.63 165.631 205.99 165.921C205.35 166.211 204.61 166.351 203.78 166.351C202.89 166.351 202.09 166.201 201.39 165.901Z" fill="black"/>
<path d="M212.45 165.901C211.74 165.601 211.19 165.171 210.78 164.631C210.37 164.091 210.14 163.461 210.1 162.761H212.09C212.15 163.341 212.42 163.811 212.91 164.181C213.4 164.551 214.04 164.731 214.83 164.731C215.56 164.731 216.14 164.571 216.57 164.241C216.99 163.911 217.21 163.511 217.21 163.011C217.21 162.511 216.98 162.121 216.53 161.881C216.08 161.631 215.38 161.391 214.43 161.151C213.57 160.921 212.87 160.701 212.32 160.461C211.77 160.221 211.31 159.881 210.92 159.421C210.53 158.961 210.34 158.361 210.34 157.611C210.34 157.021 210.52 156.471 210.87 155.981C211.22 155.491 211.72 155.091 212.37 154.801C213.02 154.511 213.76 154.371 214.59 154.371C215.87 154.371 216.91 154.701 217.7 155.341C218.49 155.991 218.91 156.881 218.97 158.011H217.04C217 157.401 216.75 156.921 216.31 156.551C215.87 156.181 215.27 156.001 214.52 156.001C213.83 156.001 213.28 156.151 212.87 156.441C212.46 156.741 212.26 157.131 212.26 157.611C212.26 157.991 212.38 158.311 212.63 158.551C212.88 158.801 213.19 159.001 213.56 159.141C213.93 159.291 214.45 159.451 215.12 159.641C215.95 159.871 216.63 160.091 217.15 160.311C217.67 160.531 218.12 160.861 218.49 161.291C218.86 161.731 219.06 162.301 219.07 163.011C219.07 163.641 218.89 164.221 218.54 164.721C218.19 165.231 217.69 165.631 217.05 165.921C216.41 166.211 215.67 166.351 214.84 166.351C213.95 166.351 213.15 166.201 212.45 165.901Z" fill="black"/>
<path d="M236.53 151.401V152.971H232.51V166.161H230.58V152.971H226.53V151.401H236.53Z" fill="black"/>
<path d="M241.01 165.611C240.13 165.121 239.44 164.411 238.93 163.501C238.43 162.591 238.18 161.531 238.18 160.331C238.18 159.131 238.44 158.101 238.95 157.191C239.46 156.281 240.17 155.581 241.06 155.091C241.95 154.601 242.94 154.361 244.05 154.361C245.16 154.361 246.15 154.601 247.04 155.091C247.93 155.581 248.63 156.271 249.15 157.181C249.67 158.081 249.92 159.141 249.92 160.341C249.92 161.541 249.66 162.601 249.13 163.511C248.6 164.421 247.88 165.121 246.98 165.621C246.08 166.121 245.07 166.361 243.97 166.361C242.87 166.361 241.9 166.111 241.02 165.621L241.01 165.611ZM245.91 164.171C246.52 163.851 247.01 163.361 247.38 162.711C247.75 162.061 247.94 161.271 247.94 160.341C247.94 159.411 247.76 158.621 247.39 157.971C247.02 157.321 246.54 156.841 245.95 156.521C245.36 156.201 244.71 156.041 244.02 156.041C243.33 156.041 242.67 156.201 242.08 156.521C241.49 156.841 241.02 157.321 240.67 157.971C240.32 158.621 240.14 159.411 240.14 160.341C240.14 161.271 240.31 162.081 240.66 162.731C241.01 163.381 241.47 163.861 242.05 164.181C242.63 164.501 243.26 164.661 243.96 164.661C244.66 164.661 245.3 164.501 245.91 164.171Z" fill="black"/>
<path d="M268.45 151.401L263.64 160.591V166.161H261.71V160.591L256.88 151.401H259.02L262.66 158.881L266.3 151.401H268.44H268.45Z" fill="black"/>
<path d="M272.59 165.611C271.71 165.121 271.02 164.411 270.51 163.501C270.01 162.591 269.76 161.531 269.76 160.331C269.76 159.131 270.02 158.101 270.53 157.191C271.04 156.281 271.75 155.581 272.64 155.091C273.53 154.601 274.52 154.361 275.63 154.361C276.74 154.361 277.73 154.601 278.62 155.091C279.51 155.581 280.21 156.271 280.73 157.181C281.25 158.081 281.5 159.141 281.5 160.341C281.5 161.541 281.24 162.601 280.71 163.511C280.18 164.421 279.46 165.121 278.56 165.621C277.66 166.121 276.65 166.361 275.55 166.361C274.45 166.361 273.48 166.111 272.6 165.621L272.59 165.611ZM277.49 164.171C278.1 163.851 278.59 163.361 278.96 162.711C279.33 162.061 279.52 161.271 279.52 160.341C279.52 159.411 279.34 158.621 278.97 157.971C278.6 157.321 278.12 156.841 277.53 156.521C276.94 156.201 276.29 156.041 275.6 156.041C274.91 156.041 274.25 156.201 273.66 156.521C273.07 156.841 272.6 157.321 272.25 157.971C271.9 158.621 271.72 159.411 271.72 160.341C271.72 161.271 271.89 162.081 272.24 162.731C272.59 163.381 273.05 163.861 273.63 164.181C274.21 164.501 274.84 164.661 275.54 164.661C276.24 164.661 276.88 164.501 277.49 164.171Z" fill="black"/>
<path d="M294.33 154.561V166.171H292.4V164.451C292.03 165.041 291.52 165.511 290.86 165.841C290.2 166.171 289.48 166.341 288.69 166.341C287.79 166.341 286.97 166.151 286.25 165.781C285.53 165.411 284.96 164.851 284.55 164.101C284.13 163.351 283.93 162.441 283.93 161.371V154.571H285.84V161.111C285.84 162.251 286.13 163.131 286.71 163.751C287.29 164.371 288.08 164.671 289.08 164.671C290.08 164.671 290.92 164.351 291.52 163.721C292.11 163.081 292.41 162.161 292.41 160.951V154.571H294.34L294.33 154.561Z" fill="black"/>
<path d="M300.97 154.901C301.6 154.531 302.36 154.351 303.27 154.351V156.341H302.76C300.6 156.341 299.52 157.511 299.52 159.861V166.171H297.59V154.561H299.52V156.441C299.86 155.781 300.34 155.261 300.97 154.891V154.901Z" fill="black"/>
<path d="M319.92 152.301C321.1 152.901 322 153.761 322.63 154.871C323.26 155.981 323.57 157.301 323.57 158.811C323.57 160.321 323.26 161.631 322.63 162.741C322 163.851 321.1 164.701 319.92 165.281C318.74 165.871 317.35 166.161 315.74 166.161H311.14V151.401H315.74C317.35 151.401 318.74 151.701 319.92 152.301ZM320.1 163.061C321.1 162.051 321.6 160.631 321.6 158.811C321.6 156.991 321.09 155.541 320.09 154.511C319.08 153.481 317.63 152.961 315.74 152.961H313.07V164.571H315.74C317.65 164.571 319.1 164.061 320.1 163.061Z" fill="black"/>
<path d="M328.22 165.611C327.34 165.121 326.65 164.411 326.14 163.501C325.64 162.591 325.39 161.531 325.39 160.331C325.39 159.131 325.65 158.101 326.16 157.191C326.67 156.281 327.38 155.581 328.27 155.091C329.16 154.601 330.15 154.361 331.26 154.361C332.37 154.361 333.36 154.601 334.25 155.091C335.14 155.581 335.84 156.271 336.36 157.181C336.88 158.081 337.13 159.141 337.13 160.341C337.13 161.541 336.87 162.601 336.34 163.511C335.81 164.421 335.09 165.121 334.19 165.621C333.29 166.121 332.28 166.361 331.18 166.361C330.08 166.361 329.11 166.111 328.23 165.621L328.22 165.611ZM333.12 164.171C333.73 163.851 334.22 163.361 334.59 162.711C334.96 162.061 335.15 161.271 335.15 160.341C335.15 159.411 334.97 158.621 334.6 157.971C334.23 157.321 333.75 156.841 333.16 156.521C332.57 156.201 331.92 156.041 331.23 156.041C330.54 156.041 329.88 156.201 329.29 156.521C328.7 156.841 328.23 157.321 327.88 157.971C327.53 158.621 327.35 159.411 327.35 160.341C327.35 161.271 327.52 162.081 327.87 162.731C328.22 163.381 328.68 163.861 329.26 164.181C329.84 164.501 330.47 164.661 331.17 164.661C331.87 164.661 332.51 164.501 333.12 164.171Z" fill="black"/>
<path d="M341.78 165.611C340.9 165.121 340.21 164.411 339.7 163.501C339.2 162.591 338.95 161.531 338.95 160.331C338.95 159.131 339.21 158.101 339.72 157.191C340.23 156.281 340.94 155.581 341.83 155.091C342.72 154.601 343.71 154.361 344.82 154.361C345.93 154.361 346.92 154.601 347.81 155.091C348.7 155.581 349.4 156.271 349.92 157.181C350.44 158.081 350.69 159.141 350.69 160.341C350.69 161.541 350.43 162.601 349.9 163.511C349.37 164.421 348.65 165.121 347.75 165.621C346.85 166.121 345.84 166.361 344.74 166.361C343.64 166.361 342.67 166.111 341.79 165.621L341.78 165.611ZM346.68 164.171C347.29 163.851 347.78 163.361 348.15 162.711C348.52 162.061 348.71 161.271 348.71 160.341C348.71 159.411 348.53 158.621 348.16 157.971C347.79 157.321 347.31 156.841 346.72 156.521C346.13 156.201 345.48 156.041 344.79 156.041C344.1 156.041 343.44 156.201 342.85 156.521C342.26 156.841 341.79 157.321 341.44 157.971C341.09 158.621 340.91 159.411 340.91 160.341C340.91 161.271 341.08 162.081 341.43 162.731C341.78 163.381 342.24 163.861 342.82 164.181C343.4 164.501 344.03 164.661 344.73 164.661C345.43 164.661 346.07 164.501 346.68 164.171Z" fill="black"/>
<path d="M356.6 154.901C357.23 154.531 357.99 154.351 358.9 154.351V156.341H358.39C356.23 156.341 355.15 157.511 355.15 159.861V166.171H353.22V154.561H355.15V156.441C355.49 155.781 355.97 155.261 356.6 154.891V154.901Z" fill="black"/>
<path d="M362.84 165.901C362.13 165.601 361.58 165.171 361.17 164.631C360.76 164.091 360.53 163.461 360.49 162.761H362.48C362.54 163.341 362.81 163.811 363.3 164.181C363.79 164.551 364.43 164.731 365.22 164.731C365.95 164.731 366.53 164.571 366.96 164.241C367.38 163.911 367.6 163.511 367.6 163.011C367.6 162.511 367.37 162.121 366.92 161.881C366.47 161.631 365.77 161.391 364.82 161.151C363.96 160.921 363.26 160.701 362.71 160.461C362.16 160.221 361.7 159.881 361.31 159.421C360.92 158.961 360.73 158.361 360.73 157.611C360.73 157.021 360.91 156.471 361.26 155.981C361.61 155.491 362.11 155.091 362.76 154.801C363.41 154.511 364.15 154.371 364.98 154.371C366.26 154.371 367.3 154.701 368.09 155.341C368.88 155.991 369.3 156.881 369.36 158.011H367.43C367.39 157.401 367.14 156.921 366.7 156.551C366.26 156.181 365.66 156.001 364.91 156.001C364.22 156.001 363.67 156.151 363.26 156.441C362.85 156.741 362.65 157.131 362.65 157.611C362.65 157.991 362.77 158.311 363.02 158.551C363.27 158.801 363.58 159.001 363.95 159.141C364.32 159.291 364.84 159.451 365.51 159.641C366.34 159.871 367.02 160.091 367.54 160.311C368.06 160.531 368.51 160.861 368.88 161.291C369.25 161.731 369.45 162.301 369.46 163.011C369.46 163.641 369.28 164.221 368.93 164.721C368.58 165.231 368.08 165.631 367.44 165.921C366.8 166.211 366.06 166.351 365.23 166.351C364.34 166.351 363.54 166.201 362.84 165.901Z" fill="black"/>
<path d="M374.53 156.151V162.991C374.53 163.561 374.65 163.951 374.89 164.191C375.13 164.421 375.55 164.541 376.14 164.541H377.56V166.171H375.82C374.75 166.171 373.94 165.921 373.41 165.431C372.88 164.941 372.61 164.121 372.61 162.991V156.151H371.11V154.561H372.61V151.641H374.54V154.561H377.57V156.151H374.54H374.53Z" fill="black"/>
<path d="M390.42 161.081H381.14C381.21 162.221 381.6 163.121 382.32 163.761C383.03 164.401 383.9 164.721 384.91 164.721C385.74 164.721 386.44 164.531 387 164.141C387.56 163.751 387.95 163.231 388.18 162.581H390.26C389.95 163.701 389.33 164.601 388.4 165.301C387.47 166.001 386.31 166.351 384.93 166.351C383.83 166.351 382.84 166.101 381.98 165.611C381.11 165.121 380.43 164.411 379.94 163.501C379.45 162.591 379.2 161.531 379.2 160.331C379.2 159.131 379.44 158.081 379.92 157.171C380.4 156.271 381.07 155.571 381.94 155.081C382.81 154.591 383.81 154.351 384.94 154.351C386.07 154.351 387.02 154.591 387.86 155.071C388.71 155.551 389.36 156.211 389.82 157.051C390.28 157.891 390.51 158.841 390.51 159.901C390.51 160.271 390.49 160.661 390.45 161.061L390.42 161.081ZM388.01 157.621C387.69 157.091 387.24 156.691 386.69 156.411C386.14 156.131 385.51 156.001 384.84 156.001C383.87 156.001 383.04 156.311 382.35 156.931C381.67 157.551 381.27 158.411 381.17 159.511H388.5C388.5 158.781 388.34 158.141 388.01 157.611V157.621Z" fill="black"/>
<path d="M396.65 155.031C397.41 154.591 398.28 154.361 399.29 154.361C400.3 154.361 401.26 154.611 402.1 155.101C402.94 155.591 403.6 156.291 404.08 157.191C404.56 158.091 404.8 159.131 404.8 160.311C404.8 161.491 404.56 162.531 404.08 163.441C403.6 164.361 402.94 165.071 402.1 165.581C401.26 166.091 400.32 166.341 399.29 166.341C398.26 166.341 397.43 166.121 396.67 165.671C395.91 165.221 395.34 164.671 394.94 164.011V171.661H393.01V154.551H394.94V156.691C395.32 156.031 395.89 155.471 396.64 155.031H396.65ZM402.29 158.031C401.94 157.381 401.46 156.891 400.86 156.551C400.26 156.211 399.6 156.041 398.88 156.041C398.16 156.041 397.52 156.211 396.92 156.561C396.32 156.911 395.84 157.411 395.48 158.061C395.12 158.711 394.94 159.481 394.94 160.341C394.94 161.201 395.12 161.981 395.48 162.641C395.84 163.301 396.32 163.801 396.92 164.141C397.52 164.491 398.17 164.661 398.88 164.661C399.59 164.661 400.26 164.491 400.86 164.141C401.46 163.791 401.94 163.291 402.29 162.641C402.64 161.981 402.82 161.211 402.82 160.321C402.82 159.431 402.64 158.681 402.29 158.031Z" fill="black"/>
</svg>
