<svg width="65" height="65" viewBox="0 0 65 65" fill="none" xmlns="http://www.w3.org/2000/svg">
<path d="M40.1999 6.21472V32.8814C40.1999 35.8147 37.7999 38.2147 34.8665 38.2147H5.5332V21.2014C7.47987 23.5214 10.4666 24.9614 13.7733 24.8814C16.4666 24.8281 18.8932 23.7881 20.7065 22.0547C21.5332 21.3614 22.2266 20.4814 22.7599 19.5214C23.7199 17.8947 24.2532 15.9747 24.1999 13.9747C24.1199 10.8547 22.7332 8.10806 20.5732 6.21472H40.1999Z" stroke="#292D32" stroke-width="4" stroke-linecap="round" stroke-linejoin="round"/>
<path d="M58.8665 38.2147V46.2147C58.8665 50.6414 55.2932 54.2147 50.8665 54.2147H48.1999C48.1999 51.2814 45.7999 48.8814 42.8665 48.8814C39.9332 48.8814 37.5332 51.2814 37.5332 54.2147H26.8665C26.8665 51.2814 24.4665 48.8814 21.5332 48.8814C18.5999 48.8814 16.1999 51.2814 16.1999 54.2147H13.5332C9.10654 54.2147 5.5332 50.6414 5.5332 46.2147V38.2147H34.8665C37.7999 38.2147 40.1999 35.8147 40.1999 32.8814V14.2147H45.1066C47.0266 14.2147 48.7866 15.2547 49.7466 16.9081L54.3065 24.8814H50.8665C49.3999 24.8814 48.1999 26.0814 48.1999 27.5481V35.5481C48.1999 37.0147 49.3999 38.2147 50.8665 38.2147H58.8665Z" stroke="#292D32" stroke-width="4" stroke-linecap="round" stroke-linejoin="round"/>
<path d="M21.533 59.548C24.4786 59.548 26.8664 57.1602 26.8664 54.2147C26.8664 51.2692 24.4786 48.8813 21.533 48.8813C18.5875 48.8813 16.1997 51.2692 16.1997 54.2147C16.1997 57.1602 18.5875 59.548 21.533 59.548Z" stroke="#292D32" stroke-width="4" stroke-linecap="round" stroke-linejoin="round"/>
<path d="M42.8665 59.548C45.8121 59.548 48.1999 57.1602 48.1999 54.2147C48.1999 51.2692 45.8121 48.8813 42.8665 48.8813C39.921 48.8813 37.5332 51.2692 37.5332 54.2147C37.5332 57.1602 39.921 59.548 42.8665 59.548Z" stroke="#292D32" stroke-width="4" stroke-linecap="round" stroke-linejoin="round"/>
<path d="M58.8664 32.8813V38.2147H50.8664C49.3997 38.2147 48.1997 37.0147 48.1997 35.548V27.548C48.1997 26.0813 49.3997 24.8813 50.8664 24.8813H54.3063L58.8664 32.8813Z" stroke="#292D32" stroke-width="4" stroke-linecap="round" stroke-linejoin="round"/>
<path d="M24.1997 13.9746C24.253 15.9746 23.7197 17.8947 22.7597 19.5213C22.2264 20.4813 21.533 21.3614 20.7064 22.0547C18.893 23.788 16.4664 24.828 13.7731 24.8814C10.4664 24.9614 7.47968 23.5213 5.53301 21.2013C5.15968 20.8013 4.83969 20.348 4.54636 19.8947C3.50636 18.3214 2.91968 16.4548 2.86634 14.4548C2.78634 11.0948 4.27966 8.02801 6.67966 6.02801C8.49299 4.53467 10.7863 3.60136 13.2929 3.54803C16.0929 3.49469 18.653 4.50803 20.573 6.21469C22.733 8.10803 24.1197 10.8546 24.1997 13.9746Z" stroke="#F92323" stroke-width="4" stroke-miterlimit="10" stroke-linecap="round" stroke-linejoin="round"/>
<path d="M9.37402 14.2947L12.0674 16.8546L17.6406 11.4679" stroke="#F92323" stroke-width="4" stroke-linecap="round" stroke-linejoin="round"/>
</svg>
