<svg width="24" height="24" viewBox="0 0 24 24" fill="none" xmlns="http://www.w3.org/2000/svg">
<g clip-path="url(#clip0_14_82)">
<path d="M12 24C18.6274 24 24 18.6274 24 12C24 5.37258 18.6274 0 12 0C5.37258 0 0 5.37258 0 12C0 18.6274 5.37258 24 12 24Z" fill="#F0F0F0"/>
<path d="M6.78271 16.1738L7.8262 23.2536C9.12614 23.736 10.5322 23.9999 12.0001 23.9999C17.1596 23.9999 21.5582 20.7434 23.2537 16.1738H6.78271Z" fill="#131313"/>
<path d="M6.78271 7.82611L7.8262 0.746297C9.12614 0.263906 10.5322 0 12.0001 0C17.1596 0 21.5582 3.2565 23.2537 7.82611H6.78271Z" fill="#6DA544"/>
<path d="M0 11.9999C0 17.1595 3.25655 21.558 7.82611 23.2536V0.746338C3.25655 2.44185 0 6.84037 0 11.9999Z" fill="#A2001D"/>
</g>
<defs>
<clipPath id="clip0_14_82">
<rect width="24" height="24" fill="white"/>
</clipPath>
</defs>
</svg>
