<svg width="30" height="18" viewBox="0 0 30 18" fill="none" xmlns="http://www.w3.org/2000/svg">
<path d="M9.41406 11.7109H8.35938C8.16667 11.7109 8.01042 11.7266 7.89062 11.7578C7.77604 11.7891 7.71875 11.8333 7.71875 11.8906C7.71875 11.9219 7.84635 11.987 8.10156 12.0859C8.35677 12.1849 8.48438 12.3385 8.48438 12.5469C8.48438 12.8333 8.4401 13.1797 8.35156 13.5859C8.26823 13.987 8.15104 14.349 8 14.6719C7.88542 14.9219 7.5651 15.2083 7.03906 15.5312C6.47656 15.875 5.83854 16.1615 5.125 16.3906C4.30729 16.651 3.53125 16.7812 2.79688 16.7812C1.95312 16.7812 1.3151 16.5859 0.882812 16.1953C0.450521 15.8047 0.234375 15.2344 0.234375 14.4844C0.234375 13.6615 0.333333 12.9479 0.53125 12.3438C0.770833 11.6146 1.26042 10.6615 2 9.48438L2.4375 9.8125C1.94792 10.6458 1.61198 11.3099 1.42969 11.8047C1.2474 12.2995 1.15625 12.7865 1.15625 13.2656C1.15625 13.7448 1.3099 14.1224 1.61719 14.3984C1.92448 14.6745 2.34896 14.8125 2.89062 14.8125C3.55208 14.8125 4.26302 14.7109 5.02344 14.5078C5.71094 14.3255 6.29948 14.1068 6.78906 13.8516C7.28385 13.5911 7.53125 13.3776 7.53125 13.2109C7.53125 13.1589 7.38542 13.1276 7.09375 13.1172C6.80208 13.1068 6.54167 13.1016 6.3125 13.1016C5.76042 13.1016 5.40365 13.0807 5.24219 13.0391C5.08073 12.9974 5 12.901 5 12.75C5 12.4688 5.04948 12.1719 5.14844 11.8594C5.2526 11.5469 5.375 11.3073 5.51562 11.1406C5.85938 10.724 6.26562 10.3698 6.73438 10.0781C7.26042 9.75 7.73177 9.58594 8.14844 9.58594H9.41406V11.7109ZM13.3787 11.7109H8.48812V9.58594H12.5975C12.5402 9.23177 12.436 8.93229 12.285 8.6875C12.2069 8.55208 12.0246 8.31771 11.7381 7.98438L12.3631 6.125C12.7537 6.56771 13.0194 7.03125 13.16 7.51562C13.3058 8 13.3787 8.71875 13.3787 9.67188V11.7109ZM12.5819 13.3594L11.6444 15.1094L9.83187 14.125L10.7694 12.3438L12.5819 13.3594ZM20.4606 11.8906C20.4606 12.2083 20.2783 12.6302 19.9137 13.1562C19.5492 13.6771 19.1221 14.1302 18.6325 14.5156C18.0908 14.9427 17.6273 15.1562 17.2419 15.1562C16.7835 15.1562 16.2914 15.026 15.7653 14.7656C15.307 14.5417 14.5908 14.0938 13.6169 13.4219L13.945 12.9375C14.4137 13.25 14.7914 13.4609 15.0778 13.5703C15.3643 13.6797 15.6742 13.7344 16.0075 13.7344C16.3669 13.7344 16.7262 13.6328 17.0856 13.4297C17.445 13.2266 17.9346 12.849 18.5544 12.2969C19.419 11.526 19.8512 10.9323 19.8512 10.5156C19.8512 10.3073 19.7679 10.0339 19.6012 9.69531C19.4137 9.3099 19.1846 8.98958 18.9137 8.73438L19.3512 6.625C19.7054 6.98958 19.9789 7.40885 20.1716 7.88281C20.3643 8.35677 20.4606 8.89583 20.4606 9.5V11.8906ZM28.355 7.98438L27.48 10.2031C26.079 10.6354 24.9201 10.9688 24.0034 11.2031C23.2066 11.4062 22.5347 11.5469 21.9878 11.625C21.5868 11.6823 21.1831 11.7109 20.7769 11.7109H20.0737V9.58594H20.9175C21.0685 9.58594 21.1805 9.58333 21.2534 9.57812C21.4097 9.55729 21.5633 9.54167 21.7144 9.53125C21.454 9.14062 21.2795 8.82552 21.1909 8.58594C21.1024 8.34115 21.0581 8.06771 21.0581 7.76562C21.0581 6.98958 21.3784 6.3125 22.0191 5.73438C22.6649 5.15104 23.4175 4.85938 24.2769 4.85938C24.855 4.85938 25.4071 5.04948 25.9331 5.42969C26.4175 5.78385 26.7717 6.21354 26.9956 6.71875L26.6675 7C26.256 6.84375 25.9279 6.74219 25.6831 6.69531C25.4435 6.64844 25.1467 6.625 24.7925 6.625C24.1467 6.625 23.5868 6.67708 23.1128 6.78125C22.5139 6.91146 22.2144 7.09896 22.2144 7.34375C22.2144 7.70312 22.9383 8.29688 24.3862 9.125L28.355 7.98438Z" fill="#131313"/>
</svg>
